<?xml version="1.0" encoding="utf-8"?>
<!-- Generator: Adobe Illustrator 19.0.0, SVG Export Plug-In . SVG Version: 6.00 Build 0)  -->
<svg version="1.1" id="Layer_1" xmlns="http://www.w3.org/2000/svg" xmlns:xlink="http://www.w3.org/1999/xlink" x="0px" y="0px"
	 viewBox="0 0 100 100" style="enable-background:new 0 0 100 100;" xml:space="preserve">
<style type="text/css">
	.st0{fill:#313131;}
	.st1{fill:none;stroke:#313131;stroke-width:4;stroke-miterlimit:10;}
	.st2{fill:none;stroke:#000000;stroke-width:5;stroke-miterlimit:10;}
</style>
<rect x="35.5" y="38.7" transform="matrix(-0.6561 0.7547 -0.7547 -0.6561 115.6499 32.0068)" class="st0" width="30" height="7.3"/>
<circle class="st1" cx="52.9" cy="48.6" r="32.8"/>
<rect x="253.6" y="153.6" transform="matrix(-0.8108 0.5853 -0.5853 -0.8108 578.3407 127.5556)" width="30" height="7.3"/>
<rect x="253.9" y="153.3" transform="matrix(-0.8108 0.5853 -0.5853 -0.8108 578.8259 126.8725)" width="30" height="7.3"/>
<rect x="253.7" y="153.5" transform="matrix(-0.5839 0.8118 -0.8118 -0.5839 553.1955 30.8497)" width="30" height="7.3"/>
<rect x="151.7" y="98.5" transform="matrix(-0.5839 0.8118 -0.8118 -0.5839 346.9845 26.5357)" width="30" height="7.3"/>
<circle class="st2" cx="170.9" cy="113.6" r="32.8"/>
<rect x="371.6" y="218.6" transform="matrix(-0.8108 0.5853 -0.5853 -0.8108 830.0612 176.1902)" width="30" height="7.3"/>
<rect x="371.9" y="218.3" transform="matrix(-0.8108 0.5853 -0.5853 -0.8108 830.5464 175.5072)" width="30" height="7.3"/>
<rect x="371.7" y="218.5" transform="matrix(-0.5839 0.8118 -0.8118 -0.5839 792.8676 38.0145)" width="30" height="7.3"/>
<rect x="47" y="43.6" transform="matrix(0.6676 -0.7446 0.7446 0.6676 -25.901 57.1684)" class="st0" width="8.1" height="28"/>
</svg>
