<?xml version="1.0" encoding="utf-8"?>
<!-- Generator: Adobe Illustrator 19.0.0, SVG Export Plug-In . SVG Version: 6.00 Build 0)  -->
<svg version="1.1" id="Layer_1" xmlns="http://www.w3.org/2000/svg" xmlns:xlink="http://www.w3.org/1999/xlink" x="0px" y="0px"
	 viewBox="0 0 400 400" style="enable-background:new 0 0 400 400;" xml:space="preserve">
<style type="text/css">
	.st0{fill:#CAAFA5;}
	.st1{fill:none;stroke:#010101;stroke-width:0.5149;stroke-miterlimit:10;}
	.st2{fill:#050505;stroke:#010101;stroke-width:0.5149;stroke-miterlimit:10;}
	.st3{fill:#80544F;stroke:#010101;stroke-width:0.5149;stroke-miterlimit:10;}
	.st4{fill:#683929;}
	.st5{fill:#B4887C;}
	.st6{fill:#815141;stroke:#010101;stroke-width:0.5149;stroke-miterlimit:10;}
	.st7{fill:#B47D6B;stroke:#010101;stroke-width:0.5149;stroke-miterlimit:10;}
	.st8{fill:#C18685;stroke:#010101;stroke-width:0.5149;stroke-miterlimit:10;}
	.st9{fill:#B48D85;stroke:#010101;stroke-width:0.5149;stroke-miterlimit:10;}
	.st10{fill:#050505;}
	.st11{stroke:#010101;stroke-width:0.5149;stroke-miterlimit:10;}
	.st12{fill:#805046;stroke:#010101;stroke-width:0.5149;stroke-miterlimit:10;}
	.st13{fill:#8D604C;stroke:#010101;stroke-width:0.5149;stroke-miterlimit:10;}
	.st14{fill:#9E7369;stroke:#010101;stroke-width:0.5149;stroke-miterlimit:10;}
	.st15{fill:#C19881;stroke:#010101;stroke-width:0.5149;stroke-miterlimit:10;}
	.st16{fill:#020101;}
	.st17{fill:#020101;stroke:#010101;stroke-width:0.5149;stroke-miterlimit:10;}
	.st18{fill:#B48578;stroke:#010101;stroke-width:0.5149;stroke-miterlimit:10;}
	.st19{fill:#B47763;stroke:#010101;stroke-width:0.5149;stroke-miterlimit:10;}
	.st20{fill:#754130;}
	.st21{fill:#A97B77;stroke:#010101;stroke-width:0.5149;stroke-miterlimit:10;}
	.st22{fill:#070000;stroke:#010101;stroke-width:0.5149;stroke-miterlimit:10;}
	.st23{fill:#B49D8A;stroke:#010101;stroke-width:0.5149;stroke-miterlimit:10;}
	.st24{fill:#B8918E;stroke:#010101;stroke-width:0.5149;stroke-miterlimit:10;}
	.st25{opacity:0.77;}
	.st26{opacity:0.66;}
	.st27{opacity:0.41;fill:#050404;stroke:#010101;stroke-width:4.1193;stroke-miterlimit:10;}
	.st28{fill:none;stroke:#010101;stroke-width:4.1193;stroke-miterlimit:10;}
	.st29{opacity:0.7;}
	.st30{fill:#050404;stroke:#010101;stroke-width:4.1193;stroke-miterlimit:10;}
	.st31{fill:#FFFFFF;}
</style>
<g id="face">
	<g id="XMLID_460_">
		
			<image style="overflow:visible;opacity:0.75;" width="222" height="332" id="XMLID_44_" xlink:href="857F64891A745920.png"  transform="matrix(1 0 0 1 85.5483 17.0741)">
		</image>
		<g id="XMLID_31_">
			<path id="XMLID_43_" class="st0" d="M294.5,179.4c6.5,42.1-39.8,158.2-102.1,157.4c-62-0.8-102-117-102.1-157.4
				c0-1.9,0-17.9,1.4-39.1c1.5-24.4,2.4-38.7,4.8-48.4c8.2-33.1,48.7-72.6,95.9-69.9c47.3,2.7,79.4,46.5,87,75.7
				c2,7.6,5.2,25.2,9.7,50.3C291.9,163.6,294.1,177.2,294.5,179.4z"/>
			<path id="XMLID_42_" class="st1" d="M294.5,179.4c6.5,42.1-39.8,158.2-102.1,157.4c-62-0.8-102-117-102.1-157.4
				c0-1.9,0-17.9,1.4-39.1c1.5-24.4,2.4-38.7,4.8-48.4c8.2-33.1,48.7-72.6,95.9-69.9c47.3,2.7,79.4,46.5,87,75.7
				c2,7.6,5.2,25.2,9.7,50.3C291.9,163.6,294.1,177.2,294.5,179.4z"/>
		</g>
	</g>
	<path id="XMLID_459_" class="st2" d="M280.6,137.7c-1.4-2.4-8.6-14.4-8.6-14.4l-4.8-4.1l-11-2.1H248l-10.6,1.4h-9.6l3.1-3.1h-1.7
		l-1.4-4.1h20.6H262l10,4.1l5.5,9.1L280.6,137.7z"/>
	<polygon id="XMLID_452_" class="st1" points="261.2,161.6 252.3,161.6 246.5,159 240.6,156.8 235.4,155 241.3,157.8 246.5,160.2 
		250.9,162.4 254.1,163.3 	"/>
	<path id="XMLID_446_" class="st3" d="M218.8,150.8l3.4,5.5l5.5,5.1l5.8,5.8l10.5,7.9l-6.9-2.7l-5.7-3.8c-1.3-1.1-2.6-2.1-3.9-3.2
		c-0.4-0.4-0.9-0.9-1.3-1.3l-1.5,3.3l-5.8-1.5l-8.2-6.7l-5-6l6.9-2.4H218.8z"/>
	<g id="XMLID_447_">
		
			<image style="overflow:visible;opacity:0.75;" width="86" height="37" id="XMLID_39_" xlink:href="857F64891A745921.png"  transform="matrix(1 0 0 1 154.5483 191.0741)">
		</image>
		<g id="XMLID_26_">
			<polygon id="XMLID_38_" class="st4" points="164.4,214.3 168.8,215.3 179.1,210.8 181.5,210.1 187,212.7 193.6,212.7 
				202.5,211.9 208.8,212.7 216.9,213.6 224.1,212.7 227.4,207.4 223.6,202.9 217.4,201 207.8,198.5 197.5,201.4 187.7,201 
				181,196.4 175.2,200 171.6,199.8 165.6,201.2 161.5,201 159.4,201.4 159.4,205.8 			"/>
			<polygon id="XMLID_37_" class="st1" points="164.4,214.3 168.8,215.3 179.1,210.8 181.5,210.1 187,212.7 193.6,212.7 
				202.5,211.9 208.8,212.7 216.9,213.6 224.1,212.7 227.4,207.4 223.6,202.9 217.4,201 207.8,198.5 197.5,201.4 187.7,201 
				181,196.4 175.2,200 171.6,199.8 165.6,201.2 161.5,201 159.4,201.4 159.4,205.8 			"/>
		</g>
	</g>
	<path id="XMLID_440_" class="st2" d="M257.3,279c-1.3-5.1-11.1-27.2-11.1-27.2l-8.9-14.2l-15.2-13.9l-11.1-6.3l-12.7,4.1l-2.5-0.3
		l-10.4-5.8l-18.3,9.9l-13.3,12.3l-13,19c-4.2,11.5-8.4,23.1-12.6,34.6c2.8,3.9,5.6,7.8,8.5,11.6c3.8-14.8,7.6-29.6,11.4-44.4
		l12.7-17.7l16.9-11.1l4.6-0.6l11,3.8l12.2-3.5l10,2.5l11.8,10.4l7.8,10.4l11.1,21.8l3.2,10.1L257.3,279z"/>
	<g id="XMLID_455_">
		
			<image style="overflow:visible;opacity:0.75;" width="99" height="37" id="XMLID_34_" xlink:href="857F64891A745927.png"  transform="matrix(1 0 0 1 147.5483 248.0741)">
		</image>
		<g id="XMLID_21_">
			<polygon id="XMLID_33_" class="st5" points="152.9,260.4 165.6,257.9 180.1,253.4 185.3,252.6 193.4,255 205.6,252.6 
				214.2,252.6 223.4,255 233.5,256.5 219.9,271.1 198.5,272.8 184,272.7 170,271.1 			"/>
			<polygon id="XMLID_32_" class="st1" points="152.9,260.4 165.6,257.9 180.1,253.4 185.3,252.6 193.4,255 205.6,252.6 
				214.2,252.6 223.4,255 233.5,256.5 219.9,271.1 198.5,272.8 184,272.7 170,271.1 			"/>
		</g>
	</g>
	<polygon id="XMLID_454_" class="st6" points="230.7,246.7 223.2,238.6 215.6,231.9 205.6,229.3 193.4,232.8 181.2,229.2 
		177.8,229.7 160.9,240.7 158.6,243.9 169.9,240.7 177.8,243.6 186.2,243.6 193.2,241.8 196.5,245.6 207.5,246.7 215.7,245.7 
		220.8,241.8 228.8,246.7 	"/>
	<polygon id="XMLID_453_" class="st7" points="154.3,297.1 172.4,314.3 191.3,308.3 185.7,291.8 175,289.3 	"/>
	<path id="XMLID_441_" class="st8" d="M205.6,289.7l-3.8,18.6l3.8,2.9l14-4.6l3.2-7.2c-1.1-3.6-2.2-7.2-3.3-10.7
		C214.8,289,210.2,289.4,205.6,289.7z"/>
	<path id="XMLID_438_" class="st9" d="M165.6,214.5l-19.4,21.5l-12.1-12.4l-4.1-17.8l-13.1-18.2L104,175.1l-10-5.7l-3.4-6.4
		l-3.9,28.1l2.3,16.4l15.4,39.2l14.9,29.8c3,5.4,6,10.8,9,16.2c3.8-13.2,9.2-27.8,16.9-42.9c2.1-4.2,4.3-8.2,6.5-11.9
		c6.5-5,13-9.9,19.4-14.9l14.3-7.7l-4-5.1L165.6,214.5z"/>
	<g id="XMLID_485_">
		
			<image style="overflow:visible;opacity:0.75;" width="92" height="192" id="XMLID_29_" xlink:href="857F64891A745922.png"  transform="matrix(1 0 0 1 223.5483 185.0741)">
		</image>
		<g id="XMLID_16_">
			<path id="XMLID_28_" class="st10" d="M296.7,191.1c1.9,13.8,3.8,27.6,5.7,41.4c0.2,11.6-1,27.5-6.5,45.3
				c-3.1,10.2-7,18.8-10.8,25.9c-5.5,9.8-14.2,23.7-25.9,36.7c-7.5,8.3-13.1,12.8-16.2,15.1c-5.6,4.2-10.6,7.1-14.4,9.1
				c6.9-26.6,13.8-53.2,20.7-79.9l7.9-8.2l22.4-29.3l7.8-23.6L296.7,191.1z"/>
			<path id="XMLID_27_" class="st1" d="M296.7,191.1c1.9,13.8,3.8,27.6,5.7,41.4c0.2,11.6-1,27.5-6.5,45.3
				c-3.1,10.2-7,18.8-10.8,25.9c-5.5,9.8-14.2,23.7-25.9,36.7c-7.5,8.3-13.1,12.8-16.2,15.1c-5.6,4.2-10.6,7.1-14.4,9.1
				c6.9-26.6,13.8-53.2,20.7-79.9l7.9-8.2l22.4-29.3l7.8-23.6L296.7,191.1z"/>
		</g>
	</g>
	<path id="XMLID_484_" class="st2" d="M87.5,182.8c-1.6,16.7-3.2,33.3-4.8,50c1.1,12,3.1,25.6,6.7,40.2c2.1,8.7,4.5,16.8,7.1,24.2
		c2.5,6.9,5.2,12.7,7.7,17.3c2,3.7,4.9,9,9.6,15.1c1.3,1.6,3.8,4.8,9,11c2.3,2.8,4.1,5,4.3,5.2c5.8,7,24.7,19,39,27.6
		c-12.7-31-25.4-62-38.1-93l-7.5-8.5l-21.1-30.3l-6.7-23.9C90.8,205.9,89.2,194.4,87.5,182.8z"/>
	<polygon id="XMLID_483_" class="st11" points="227.4,255 221.6,255 212.9,252.6 200.1,253.8 193.4,255 185.3,252.6 177.8,253.8 
		167.9,256.7 151.8,260.4 162.2,244.3 169.6,241.8 182.8,244.7 191.5,241.8 196.5,245.6 203.8,245.1 213.7,247.2 220.8,241.8 
		230.7,250 	"/>
	<polygon id="XMLID_482_" class="st11" points="233.1,257.9 219.9,271.1 198.5,272.8 185.3,272.8 170,271.1 156,263.7 151.8,260.4 
		154.3,297.1 175,289.3 185.7,291.8 191.3,308.3 201.8,308.3 205.6,289.7 218.7,292.6 224.8,302.9 235.4,283.1 230.7,277.7 	"/>
	<path id="XMLID_450_" class="st12" d="M146.2,122.5l16.2,6.4l8.2,11.1l1.8,9.3l-5.9,5.7L156,165.3c2.6-1.1,5.1-2.1,7.7-3.2
		c1-0.6,2.1-1.1,3.1-1.7l-1.3,4.9l19.6-14.5l-2.3-6.9l-5,5.1v-10.3l-5.3-8.2c-0.6-1.2-2-3.6-4.9-5.4c-1.4-0.8-2.7-1.3-3.7-1.5
		c-2.6-0.4-5.1-0.8-7.7-1.1H146.2z"/>
	<polygon id="XMLID_449_" class="st13" points="161.9,191.1 169.4,191.1 177.8,179.9 185.1,169.1 187.4,159.2 187.4,151.9 
		187.4,146.2 185.1,140.8 185.1,130.8 179.1,121 167.3,114 155.5,114 143.4,114 139.8,114 139.8,115.8 143.9,122.5 156.2,122.5 
		165.6,124.5 173.5,132 177.8,138.7 177.8,149 182.7,143.9 185.1,150.8 166.9,164.2 166.8,160.4 156,165.3 146.2,171.2 148.5,173 
		153.1,175.1 153.4,176.3 163.6,172.5 158,179.4 159.4,191.1 	"/>
	<path id="XMLID_448_" class="st14" d="M223.4,110.2l-14.8,10.6l-6.2,14.1l-3.1,8.9l-8.3,2.4l-3.7-0.1l-1.2,22.1l5.8-5l0.5-8.2h6.5
		l-1,11.5l7.6,10.6l11.5,10.1l7.7,6l-1-8.2l-9.8-8.6l-3.9-6.9l14.8,9.6l1-8.1l-1.2-3.8l-5.8-1.5l-10.6-9.6c-0.9-1.6-1.9-3.2-2.8-4.8
		c0.9-4,1.8-7.9,2.8-11.9l4.1-7.7l7.4-9.4l11.5-1.8l13.5-3.2l-7.3,0.9h-9.6l3.1-3.1h-1.7l-1.4-4.1h20.6l-19.4-2.1L223.4,110.2z"/>
	<path id="XMLID_439_" class="st3" d="M248,117.1l-9.9,5.4l-11.9,3.9l-7.4,5.5l-3.4,7.2v6.4l2.6,4.1l-12.4,3.6
		c-0.2-0.8-0.3-1.6-0.5-2.5c1-3.7,2-7.4,3-11.1c0.8-2.3,2-5.1,3.8-8.1c2.6-4.1,5.5-7,7.7-9c5.3-0.9,10.5-1.9,15.8-2.8L248,117.1z"/>
	<path id="XMLID_436_" class="st15" d="M284.4,178.6c1.2,0.8,2.6,1.9,4,3.4c1.9,2,3.2,4,3.9,5.5c0.5,1.9,1,4,1.4,6.3
		c0.3,1.9,0.5,3.6,0.6,5.3c-4.7,15.6-9.5,31.2-14.2,46.8l-22.9,30.7L244,248.2l-6.6-10.6l-15.2-13.9l-11.1-6.3l-10.8,3.5l2.2-9
		l12,1.5l11.8,4.5l25,11.3c1.3-0.6,2.6-1.1,3.9-1.7c1.3-2.2,2.6-4.4,3.8-6.6c1.5-5,3-10,4.6-15l-9.4-9.4l-10.1-8l-9.8-3.3l-8,0.3
		l-3.6-1.2l-8.7-7.6l-3.9-6.9l13.2,8.6l1.6,1l1-8.1l-1.2-3.8l1.5-3.3l5.2,4.5l10.3,6.5h4.8L284.4,178.6z"/>
	<g id="XMLID_445_">
		
			<image style="overflow:visible;opacity:0.75;" width="174" height="212" id="XMLID_24_" xlink:href="857F64891A745923.png"  transform="matrix(1 0 0 1 79.5483 179.0741)">
		</image>
		<g id="XMLID_14_">
			<path id="XMLID_23_" class="st16" d="M88.1,183.5c-1.1,18.1-2.2,36.3-3.4,54.4l13.4,45.2l20.4,45.5l27.6,28.2l20,17.1
				c8.4,1.4,16.8,2.7,25.1,4.1c19.8,0.6,37.4-7.9,45-22.5c3.8-7.3,4.3-14.6,4.1-19.8c-5.2-7.2-10.4-14.3-15.6-21.5
				c-24.6,0.3-49.1,0.7-73.7,1c-7.3-7-14.5-14.1-21.8-21.1c-3.3-5.9-6.6-11.8-9.9-17.7c-4.4-9.3-8.8-18.6-13.3-28
				c-1.7-3.5-3.4-7.1-5.1-10.6l-12-30.5C88.7,199.5,88.4,191.5,88.1,183.5z"/>
			<path id="XMLID_22_" class="st1" d="M88.1,183.5c-1.1,18.1-2.2,36.3-3.4,54.4l13.4,45.2l20.4,45.5l27.6,28.2l20,17.1
				c8.4,1.4,16.8,2.7,25.1,4.1c19.8,0.6,37.4-7.9,45-22.5c3.8-7.3,4.3-14.6,4.1-19.8c-5.2-7.2-10.4-14.3-15.6-21.5
				c-24.6,0.3-49.1,0.7-73.7,1c-7.3-7-14.5-14.1-21.8-21.1c-3.3-5.9-6.6-11.8-9.9-17.7c-4.4-9.3-8.8-18.6-13.3-28
				c-1.7-3.5-3.4-7.1-5.1-10.6l-12-30.5C88.7,199.5,88.4,191.5,88.1,183.5z"/>
		</g>
	</g>
	<polygon id="XMLID_443_" class="st17" points="131.8,117.1 125.6,112.3 117.4,114.7 110,120.4 107.6,126.6 115,121.4 124.2,118.5 	
		"/>
	<path id="XMLID_442_" class="st17" d="M138.6,116.6c-2-1.8-4-3.5-6-5.3l12.2-2.1h8.4l11.2,1.2l-2.2,5.1h-17.3
		C142.8,115.9,140.7,116.3,138.6,116.6z"/>
	<path id="XMLID_437_" class="st18" d="M238.1,122.5l12,2c1.7-0.1,3.5-0.3,5.2-0.4c1.7,1.1,3.4,2.2,5,3.4c4.1,3.4,8.2,6.9,12.2,10.3
		l4.1,6.2v6.9c-0.6,1.2-1.2,2.4-1.8,3.6c-1.5,1.3-3,2.5-4.6,3.8c-3.7,1.6-7.3,3.2-11,4.9c2.6,2.5,5.1,5,7.7,7.5
		c4.5,0.9,9.1,1.7,13.6,2.6l7.7,3.6l-2.5-21v-11.7l-6.8-13.2l1.6,7l-8.6-14.4l-4.8-4.1l-9.2-1.7l-10-0.3L238.1,122.5z"/>
	<path id="XMLID_435_" class="st19" d="M161.9,191.1l-3.3,5.3c0,0.7,0.1,1.4,0.2,2.2c0.1,1.1,0.4,2,0.6,2.8c1.9,0.4,4.6,0.7,7.7,0.5
		c2.2-0.2,4.1-0.6,5.6-1.1c0.8-0.2,1.7-0.5,2.5-0.7l4.2-2.6h-8.1l-5.6-1.2l3.7-5.2H161.9z"/>
	<g id="XMLID_481_">
		
			<image style="overflow:visible;opacity:0.75;" width="41" height="50" id="XMLID_19_" xlink:href="857F64891A74592E.png"  transform="matrix(1 0 0 1 199.5483 170.0741)">
		</image>
		<g id="XMLID_12_">
			<polygon id="XMLID_18_" class="st20" points="224.8,193.3 227.7,200.2 227.4,207.4 223.6,202.9 212.3,199.7 218.8,197.4 
				220,194.4 213.8,189.2 207.7,184.6 204.5,179.9 204.1,175.1 			"/>
			<polygon id="XMLID_17_" class="st1" points="224.8,193.3 227.7,200.2 227.4,207.4 223.6,202.9 212.3,199.7 218.8,197.4 
				220,194.4 213.8,189.2 207.7,184.6 204.5,179.9 204.1,175.1 			"/>
		</g>
	</g>
	<polygon id="XMLID_480_" class="st9" points="164.4,42.2 139.2,62.8 119.7,80.7 111.9,97.7 97.9,116.6 97.9,122.5 122.5,105.9 
		148.5,101.3 166.4,95.6 179.4,82.4 182.1,67.4 172.8,56.1 194.6,50.5 215.9,56.6 224.8,75.1 217.2,85.9 224.8,96.6 248.3,103.8 
		267.4,109.2 280.6,119.4 272.5,95.1 256.6,73.5 230.7,49.4 212.3,38.6 182.6,35.6 	"/>
	<polygon id="XMLID_479_" class="st7" points="150.7,231.1 146.2,236.1 134.1,223.6 130,205.8 116.8,187.7 104,175.1 113.7,178.7 
		127.3,185.4 137.6,183.7 143.1,204.5 146.2,219.4 151.8,224.7 155.1,223 165.6,214.5 150.8,231.8 	"/>
	<path id="XMLID_478_" class="st21" d="M146.1,121.9c-5.5,1.6-11,3.1-16.4,4.7l-2.1,5.5c-1,1.3-2.1,2.6-3.1,3.9
		c-2.4,1.4-4.8,2.9-7.2,4.3c-1.8,1.2-3.7,2.4-5.5,3.6c0.3-1.8,0.6-3.6,1-5.4c-0.7-0.9-1.5-1.8-2.2-2.6l-4.4-0.7l-2.3-3.6l4.9-5.9
		l6.1-4.2l16.8-4.3l8-1.3C141.9,117.8,144,119.9,146.1,121.9z"/>
	<polygon id="XMLID_477_" class="st22" points="249.4,284.7 224.8,314.3 238.1,351.2 	"/>
	<polygon id="XMLID_476_" class="st23" points="97.9,136.8 94,155 97.9,170 104,175.1 107.6,163.3 113.7,152.5 107.6,143.9 
		106.3,135.1 	"/>
	<path id="XMLID_475_" class="st7" d="M240.6,187.3c3.5,3.7,7,7.5,10.5,11.2c1,1.1,3.9,4.3,4.3,9.2c0.2,2.1-0.2,3.9-0.6,5.2
		c-1.4,1.7-2.7,3.4-4.1,5.1c-3.8-0.1-7.5-0.2-11.3-0.3c-8.1-1.3-16.2-2.6-24.3-3.9c6.5,2.7,13.1,5.3,19.6,8c5.5,2.5,11,5,16.4,7.5
		c1.3-0.5,2.6-1,3.9-1.5c0.7-1.3,1.4-2.6,2.2-3.9l4.9-8.3l1.4-9.4c-2.2-2.7-4.4-5.3-6.5-8c-2.5-2.9-6.6-6.7-12.4-9.2
		C243.2,188.1,241.9,187.6,240.6,187.3z"/>
	<path id="XMLID_474_" class="st24" d="M207,192.6c0.3,2,0.5,3.9,0.8,5.9c-2.2,1-5,2.1-8.4,2.8c-3.2,0.7-6,0.9-8.3,0.9
		c-1.3-0.2-3.5-0.6-5.8-2c-2.1-1.3-3.5-2.8-4.2-3.8c-1.9-1.8-3.9-3.6-5.8-5.3h-5.8l15.7-22c-0.4,1.4-0.9,2.7-1.3,4.1
		c-0.4,2.1-0.8,4.2-1.2,6.4c-0.3,1.5-0.6,3-1,4.5c0.1,2.4,0.2,4.8,0.3,7.2c0.2,0.7,0.7,1.6,1.5,2.6c1,1.2,2.2,1.9,2.9,2.3
		c1.4,0.6,3.3,1.2,5.7,1.4c3.7,0.3,6.7-0.6,8.4-1.2c0.7-0.6,1.3-1.1,2-1.7c0.6-4.8,1.3-9.5,1.9-14.3
		C205.2,184.5,206.1,188.5,207,192.6z"/>
	<g id="glasses" class="st25">
		<g id="XMLID_434_">
			
				<image style="overflow:visible;opacity:0.75;" width="226" height="103" id="XMLID_117_" xlink:href="857F64891A74592F.png"  transform="matrix(1 0 0 1 85.5483 103.0741)">
			</image>
			<g id="XMLID_69_">
				<g id="XMLID_99_">
					<g id="XMLID_105_" class="st26">
						<circle id="XMLID_107_" class="st27" cx="140" cy="149.9" r="40.2"/>
						<circle id="XMLID_106_" class="st28" cx="140" cy="149.9" r="40.2"/>
					</g>
					<g id="XMLID_102_" class="st29">
						<circle id="XMLID_104_" class="st27" cx="249.2" cy="151.6" r="40.2"/>
						<circle id="XMLID_103_" class="st28" cx="249.2" cy="151.6" r="40.2"/>
					</g>
					<rect id="XMLID_101_" x="91.9" y="142" class="st30" width="7.7" height="15.6"/>
					<rect id="XMLID_100_" x="289.7" y="142" class="st30" width="7.7" height="15.6"/>
				</g>
			</g>
		</g>
		<path id="XMLID_433_" class="st30" d="M208.4,156.8c-0.6-0.7-5.7-7.2-14.6-7.1c-8.7,0.1-13.7,6.4-14.3,7.1c0-4.1,0-8.1,0-12.2
			h28.9V156.8z"/>
	</g>
</g>
<g id="humaneyes">
	<g id="XMLID_470_">
		<path id="XMLID_432_" class="st31" d="M166.3,145.7c0.4,8.9-13.1,17.9-25.1,17c-9.9-0.7-21.5-8.2-21.1-17
			c0.4-8.4,11.6-14.2,20.1-15.1C151.9,129.4,165.9,136.8,166.3,145.7z"/>
		<path id="XMLID_431_" class="st31" d="M267.1,145.9c0.4,8.9-13.1,17.9-25.1,17c-9.9-0.7-21.5-8.2-21.1-17
			c0.4-8.4,11.6-14.2,20.1-15.1C252.7,129.6,266.8,137,267.1,145.9z"/>
	</g>
	<g id="XMLID_465_">
		<circle id="XMLID_429_" cx="143.2" cy="146.7" r="11.9"/>
		<circle id="XMLID_428_" class="st31" cx="139.1" cy="142.6" r="4.1"/>
	</g>
	<g id="XMLID_427_">
		<circle id="XMLID_451_" cx="244.1" cy="146.7" r="11.9"/>
		<circle id="XMLID_457_" class="st31" cx="240" cy="142.6" r="4.1"/>
	</g>
</g>
</svg>
