<?xml version="1.0" encoding="utf-8"?>
<!-- Generator: Adobe Illustrator 19.0.0, SVG Export Plug-In . SVG Version: 6.00 Build 0)  -->
<svg version="1.1" xmlns="http://www.w3.org/2000/svg" xmlns:xlink="http://www.w3.org/1999/xlink" x="0px" y="0px"
	 viewBox="0 0 1280 800" style="enable-background:new 0 0 1280 800;" xml:space="preserve">
<style type="text/css">
	.st0{fill:#6FCE7D;}
	.st1{display:none;fill:#D7DADB;}
	.st2{display:none;fill:#E5E9EA;}
	.st3{fill:#A4E8F7;}
	.st4{fill:#050505;}
	.st5{fill:#B8BBBC;}
	.st6{fill:#FFFFFF;}
	.st7{display:none;}
	.st8{display:inline;fill:#FFFFFF;}
	.st9{display:inline;}
	.st10{display:inline;fill:#DF7721;}
	.st11{fill:#B2AFAD;}
	.st12{fill:#7DA0FB;}
	.st13{fill:#FBFBFB;}
	.st14{font-family:'Rockwell-ExtraBold';}
	.st15{font-size:21px;}
	.st16{fill:none;stroke:#676B6D;stroke-width:1.2144;stroke-miterlimit:10;}
	.st17{fill:none;stroke:#676B6D;stroke-width:1.5597;stroke-miterlimit:10;}
	.st18{fill:none;stroke:#676B6D;stroke-width:1.5682;stroke-miterlimit:10;}
	.st19{fill:none;stroke:#676B6D;stroke-width:1.5611;stroke-miterlimit:10;}
	.st20{fill:none;stroke:#676B6D;stroke-width:1.5619;stroke-miterlimit:10;}
	.st21{fill:none;stroke:#676B6D;stroke-width:1.5529;stroke-miterlimit:10;}
	.st22{fill:none;stroke:#676B6D;stroke-width:1.5542;stroke-miterlimit:10;}
	.st23{fill:none;stroke:#676B6D;stroke-width:1.5553;stroke-miterlimit:10;}
	.st24{fill:none;stroke:#676B6D;stroke-width:1.5658;stroke-miterlimit:10;}
	.st25{fill:none;stroke:#676B6D;stroke-width:1.5668;stroke-miterlimit:10;}
	.st26{fill:none;stroke:#676B6D;stroke-width:1.5678;stroke-miterlimit:10;}
	.st27{fill:none;stroke:#676B6D;stroke-width:1.5638;stroke-miterlimit:10;}
	.st28{fill:none;stroke:#676B6D;stroke-width:1.5549;stroke-miterlimit:10;}
	.st29{fill:#E8FF00;}
	.st30{display:none;fill:#FFFFFF;}
	.st31{fill:none;}
	.st32{fill:#F4EFAE;}
	.st33{fill:#E2E2E2;}
	.st34{fill:#00BCE8;}
	.st35{fill:#E5B900;}
	.st36{fill:#393A3A;}
	.st37{fill:#E99600;}
	.st38{font-family:'Phosphate-Inline';}
	.st39{font-size:106.9698px;}
	.st40{display:none;fill:none;stroke:#676B6D;stroke-width:5;stroke-miterlimit:10;}
</style>
<g id="Layer_1">
	
		<image style="overflow:visible;" width="1024" height="660" xlink:href="2D46B92D8D0777A5.jpg"  transform="matrix(0.24 0 0 0.24 517 321)">
	</image>
	<rect id="pitch" x="0" y="337.5" class="st0" width="1280" height="462.5"/>
	
		<rect x="627.7" y="49.2" transform="matrix(-8.444249e-04 -1 1 -8.444249e-04 140.0077 1123.9205)" class="st1" width="7.6" height="885.6"/>
	<polygon class="st2" points="188.7,583 188.7,598.1 1074.3,597.6 1074.3,582.5 	"/>
	<rect id="sky" x="0" y="0" class="st3" width="1280" height="338"/>
	
		<image style="display:none;overflow:visible;" width="1024" height="769" xlink:href="2D46B92D8D077784.png"  transform="matrix(0.2486 0 0 0.2181 0 106.3998)">
	</image>
	
		<image style="display:none;overflow:visible;" width="1024" height="769" xlink:href="2D46B92D8D077785.png"  transform="matrix(0.2486 0 0 0.2181 767.5016 115.1138)">
	</image>
	
		<image style="display:none;overflow:visible;" width="1024" height="769" xlink:href="2D46B92D8D077786.png"  transform="matrix(0.2486 0 0 0.2181 512.7076 106.3998)">
	</image>
	
		<image style="display:none;overflow:visible;" width="1024" height="769" xlink:href="2D46B92D8D077787.png"  transform="matrix(0.2486 0 0 0.2181 254.5847 106.3998)">
	</image>
	
		<image style="display:none;overflow:visible;" width="1024" height="769" xlink:href="2D46B92D8D077788.png"  transform="matrix(0.2612 0 0 0.2181 1014.5812 106.3998)">
	</image>
	<g>
		<path class="st4" d="M71.5,191.4c0.4,1.2,0.3,2.2,0.3,2.3c-0.2,1.7,0.4,1.9,0.7,5.1c0.1,1.6,0.3,3.9-0.3,6.7
			c-0.3,1.5-0.6,1.7-0.6,2.7c-0.1,1.7,0.6,2.6,1.4,4.9c1.4,3.6,0.8,3.6,1.9,5.7c1.3,2.5,2,2.2,3,4.5c0.3,0.8,0.3,0.9,1.4,5.1
			c0.7,2.5,1,3.8,1.3,4.4c1,2.5,1.7,2.3,3.2,5c1.7,3,1.6,4.6,3.5,7.3c0.9,1.3,1.6,1.8,2.3,2c0.8,0.3,1.2,0,2.2,0.5
			c0.7,0.3,0.8,0.6,1.6,0.9c0.5,0.2,1.2,0.4,1.6,0.2c1.3-0.6,1-5.4-1-6.5c-0.6-0.3-1,0-1.6-0.5c-1.1-0.9-1.2-3.1-0.3-3.9
			c0.4-0.3,0.8-0.2,1-0.5c0.5-0.7-0.6-1.8-1-3.2c-0.6-2.3,1-4.6,1.5-5.2c2.1-2.7,5.4-2.8,5.9-2.8c0.7,0,2.5,0,4.2,1.3
			c1.4,1.1,2,2.5,2.4,3.6c0.3,0.7,0.5,1.3,0.6,2.2c0.2,2.1-0.9,3.5-0.4,3.9c0.4,0.4,1.3-0.6,2-0.3c1,0.5,1,3.7-0.4,4.5
			c-0.5,0.3-0.8,0-1.4,0.3c-1.4,0.7-2.2,3.9-0.7,5.9c0.6,0.8,1.7,1.5,2.9,1.4c1-0.1,1.2-0.8,3-2.2c1.8-1.4,2.4-1.2,3.1-2.1
			c1-1.2,0.7-2.5,0.9-4.2c0.4-3.4,2.1-3.6,4.8-9.4c0.2-0.3,0.9-2.2,2.3-5.8c1.7-4.5,2.6-6.7,3-7.9c1.9-5.3,2.8-7.9,3-10.3
			c0.3-2.8-0.1-4.3,0.5-8.4c0.2-1.5,0.3-1.6,0.6-3.9c0.1-1.1,0.4-2.1,0.8-4.2c0.3-1.3,0.4-2,0.9-2.1c0.4-0.1,0.9,0.2,1.1,0.6
			c0.2,0.4-0.2,0.9-0.2,1.1c-1.1,1.8-0.9,6.3,0.1,6.6c0.6,0.2,1-1.1,2-1.1c1.5,0,3,2.8,3.4,5c0.1,0.7,0.4,2.8-0.7,4.7
			c-0.8,1.4-1.6,1.5-2.6,2.7c-1.5,1.8-1.4,4-1.5,5.8c-0.4,7.2-3.5,14-5,17.3c-0.6,1.3-1.1,2.3-1.7,4.2c-1,3.1-0.8,4.2-1.5,7.5
			c-1.1,5.1-1.6,7.6-3.5,10.2c-1,1.4-2.4,2.9-2.2,5c0,0.4,0.1,1.3,0.9,1.9c0.9,0.7,1.8,0.1,3.1,0.2c3.2,0.3,4.5,4.6,5.9,4.1
			c0.7-0.2,0.3-1.2,1.2-2.8c1.3-2.3,3.1-2,4-3.6c1-1.8-0.8-3-1-7.1c-0.1-1.6-0.3-4.7,1.7-7.3c1.3-1.6,4-3.5,6-2.8
			c3.1,1.1,3.2,7.2,4.3,7.1c0.5,0,0.5-1.1,1.5-4.2c1.2-3.3,1.7-3.5,1.8-5.2c0.1-1.7-0.5-2.2,0-3.3c0.4-0.8,1.2-2,1.7-2.5
			c0.4-0.5,0.4-0.4,0.5-0.6c0.9-1.4,0.4-2.7,1-3c0.3-0.1,0.7,0,0.8,0.2c0.2,0.3-0.2,0.7-0.6,1.6c-0.1,0.2-0.5,1.4-0.2,1.6
			c0.2,0.1,0.5-0.1,0.6-0.2c0.6-0.4,0.7-0.9,1.1-1.7c0.5-1.1,0.9-1.8,1.4-1.9c0.4,0,0.5,0.4,0.9,0.3c0.4-0.1,0.4-0.7,0.9-0.8
			c0.3-0.1,0.7,0.1,0.8,0.4c0.1,0.2-0.2,0.4-0.4,0.7c-0.5,0.6-0.3,0.7-0.9,1.9c-0.6,1.2-1,1.5-0.9,1.6c0.2,0.2,1-0.1,1.5-0.8
			c0.2-0.2,0.1-0.3,0.3-0.7c0.2-0.4,0.8-1.6,1.3-1.5c0.2,0,0.4,0.3,0.4,0.5c0,0.3-0.2,0.4-0.5,0.7c-0.4,0.4-0.3,0.7-0.6,1.2
			c-0.3,0.6-0.4,0.5-1.6,2.1c-0.7,0.9-0.9,1.2-0.8,1.7c0,0.1,0.1,0.5,0.3,0.6c0.5,0.2,1-0.5,2.2-0.7c0.1,0,1.1-0.2,1.3,0.2
			c0.1,0.2-0.2,0.6-0.2,0.6c-0.3,0.4-0.7,0.3-1.2,0.5c-0.8,0.3-0.7,0.6-1.6,1.1c-0.5,0.3-0.7,0.2-1.6,0.5c-1.2,0.3-1.8,0.5-2.2,0.9
			c-0.6,0.5-0.6,1-1.1,3.1c-0.6,2.3-0.7,2-0.9,2.9c-0.4,2,0.2,2.3,0.1,4.5c-0.1,3.5-1.6,5.4-0.6,6.3c0.3,0.3,0.6,0.3,1,0.3
			c1.9,0.3,3.3,2.1,5.5,5.5c3.1,4.8,4.4,7.2,5.1,7c0.3-0.1,0.4-0.5,0.5-0.8c0.1-0.7-0.6-1.3-1-1.7c-1.2-1.3-1.1-3.2-1.1-5.5
			c0.1-1.7,0.1-2.7,0.8-3.8c1.1-1.8,3-2.4,3.5-2.5c0.6-0.2,1.9-0.6,3.4,0c1.4,0.5,2.8,1.9,3.1,3.4c0.2,1.1-0.1,2.8,0.2,3.8
			c0,0,0.3,0.9,0.3,0.9c0.4-0.2,0.6-0.1,0.8-0.1c0.6,0.4,0,2.8-1.1,3.1c-0.3,0.1-0.5-0.1-0.8,0.1c-0.5,0.2-0.6,0.9-0.7,1.7
			c-0.3,2.6-0.4,3.8,0.1,4c0.3,0.1,0.6-0.1,0.9-0.3c0.8-0.6,1-1.5,1.2-2c0.2-0.6,1.1-1.7,2.8-3.7c1.8-2.2,1.8-1.9,2.4-2.8
			c1.1-1.7,1.5-3.3,1.7-4.1c0.5-2.3,0.8-3.6,0.1-4.6c-1.2-1.7-4.3-0.9-4.8-2.2c-0.3-0.9,1-1.6,0.7-2.7c-0.3-1-1.9-1.3-3.2-1.7
			c-3.4-1.1-6.8-3.8-8-6.8c-0.5-1.2-0.5-2.9-0.5-6.2c0-0.7,0-0.7,0.2-5.4c0.2-4.9,0.2-5.3-0.1-6c-0.6-1.1-1.5-1.9-1.6-3.6
			c0-0.5,0.1-0.4,0.2-1.3c0.2-2.5-0.5-3.6,0.1-4.2c0.5-0.4,1.2,0,1.6-0.6c0.3-0.5-0.1-1,0.2-1.3c0.3-0.3,1.1,0.2,1.3,0
			c0.2-0.2,0-0.5,0-1.2c0-0.3,0-1,0.3-1.1c0.2-0.1,0.5,0.2,0.6,0.4c0.1,0.3,0.1,0.6,0,0.9c-0.1,0.6,0,0.4,0,1.7
			c-0.1,1.1-0.2,1.3,0,1.6c0.2,0.3,0.7,0.4,0.9,0.2c0.3-0.2,0.2-0.7,0.1-1.5c0-1-0.1-2.6,0.6-2.9c0.3-0.1,0.7-0.1,0.8,0.1
			c0.1,0.1,0,0.3,0,0.5c-0.1,0.4,0,0.6,0,1.2c0,0.3-0.1,1-0.3,2.2c-0.2,1.3-0.2,1.5-0.2,1.8c0,0.2,0.2,1.5,0.7,1.6
			c0.1,0,0.2,0,1-0.6c0.6-0.5,0.7-0.7,1.2-1c0.5-0.4,0.7-0.5,1-0.5c0.3,0,0.7,0.1,0.8,0.3c0,0.2-0.3,0.3-0.7,0.7
			c-0.3,0.3-0.4,0.5-0.9,1.1c-0.6,0.8-0.9,1.2-1.3,1.6c-0.8,0.7-1.2,0.6-1.8,1.1c-0.7,0.6-0.8,1.6-0.9,2.6
			c-0.2,3.1-0.5,6.5,1.4,10.1c0.8,1.5,1.6,2.4,1.7,4c0,0.8-0.1,1.5,0.4,2c0.5,0.5,1.1,0.3,2.1,0.5c2.5,0.3,3.7,2.1,4.2,1.7
			c0.3-0.3,0.1-1.1-0.4-1.7c-0.5-0.7-1-0.5-2.2-1.2c-1.2-0.7-1.7-1.6-2.2-2.4c-0.2-0.4-0.4-0.7-0.2-0.8c0.2-0.2,0.8,0,1.2,0.1
			c0.9,0.3,1,0.5,1.3,0.5c0.5-0.1,0.8-1.1,0.8-1.8c0.1-1.3-0.7-2.5-0.9-2.8c-0.4-0.5-0.8-0.9-0.8-1.6c0-0.3,0-0.7,0.2-0.7
			c0.2-0.1,0.4,0.2,0.7,0.5c1,1.3,1.4,2.4,1.5,2.4c0.1,0-0.1-0.5,0-1.3c0.1-0.6,0.2-0.7,0.1-1.1c-0.1-0.4-0.3-0.4-0.5-1
			c-0.1-0.2-0.4-0.8-0.2-1c0.1-0.1,0.5,0,0.8,0.2c0.2,0.2,0.2,0.3,0.5,1.1c0.3,0.8,0.3,0.8,0.3,0.8c0.1,0,0.3-1.2,0-2.1
			c0-0.1-0.1-0.4,0-0.5c0.1-0.1,0.3-0.1,0.5-0.1c0.3,0.1,0.4,0.5,0.5,1c0.3,1.3,0.5,1.9,0.5,1.9c0.1,0-0.4-1.6,0.1-1.8
			c0.2-0.1,0.6,0.1,0.8,0.4c0.3,0.4,0,0.9-0.1,1.9c-0.1,0.5,0,1,0,1.4c0.1,1.8,0.8,2.2,0.9,4.1c0.1,0.8-0.1,0.8,0.1,1.3
			c0.3,1,0.9,1.2,1.1,2.2c0,0.5-0.1,0.4-0.1,1.1c0,0.5,0,1.2,0.4,1.6c0.4,0.5,1.2,0.2,2.3,0.3c2.2,0.1,3,1.4,6,1.8
			c0.3,0,0.7,0.1,1-0.2c0.6-0.5,0.2-2-0.3-3c-0.9-1.8-1.9-1.8-2.2-3.2c-0.1-0.8,0.1-1.6-0.3-1.8c-0.3-0.1-0.5,0.2-0.9,0.2
			c-1.2-0.1-2.1-3.6-1.3-4.2c0.4-0.3,1,0.2,1.2-0.1c0.4-0.4-0.9-1.6-1.3-3.1c-0.5-2.1,0.8-5,3.2-6.5c0.2-0.1,3-1.7,5.9-0.5
			c0.3,0.1,2.3,1,3.2,2.9c1.1,2.5-0.2,5.3,1,5.9c0.5,0.3,1-0.1,1.3,0.2c0.5,0.6-0.9,1.7-1.4,3.9c-0.5,2-0.1,3.7,0.2,4.5
			c0.2,1,0.4,1.7,1.1,2.4c1,1.2,2.5,1.3,3.2,1.4c2.2,0.2,3.6-0.6,5.9-1.4c5.5-2,8.1-1.1,8.6-2.7c0.4-1.1-1-1.8-2.8-4.8
			c-1.9-3.2-2.6-6.2-2.8-7.5c0,0-0.7-3.3-0.7-9c0-1.1,0-1.9,0-1.9c0-1,0.1-1.4,0.1-1.6c0-0.6,0.1-0.7,0-1c-0.1-0.7-0.5-1.1-0.6-1.4
			c-0.1-0.2-1.5-2.1-1.3-3.6c0.2-1.4,1.9-2.6,2.6-2.3c0.4,0.2,0.5,0.8,0.7,0.8c0.2,0,0.2-0.5,0.2-1c0-0.3-0.1-0.7-0.8-2
			c-0.4-0.7-0.5-0.9-0.4-1c0.1-0.2,0.5-0.1,0.8,0.1c0.3,0.2,0.5,0.6,0.5,0.8c0.5,1.6,0.8,2.5,1.3,2.8c0.4,0.2,0.7,0.1,0.8,0.4
			c0.2,0.4-0.2,0.8-0.1,1.4c0.1,0.4,0.2,0.4,0.5,1c0.3,0.6,0.5,1.1,0.4,1.6c-0.1,0.7-0.7,0.8-1,1.7c0,0.2-0.1,0.4-0.1,0.6
			c-0.1,2.6,1,8.8,0.8,10.9c0,0.1-0.1,0.7,0.1,0.7c0.1,0,0.4-0.4,0.5-0.6c0.5-0.9,1.3-1.2,2.7-2.2c1-0.7,2-1.4,2.9-2.5
			c1-1.2,0.8-1.4,1.8-2.3c0.7-0.7,1.8-1.8,3.4-2c1.5-0.1,2.6,0.6,3.7,1.3c0.6,0.4,2.3,1.6,3.4,3.9c1,2.2,0.3,2.7,1.5,5.2
			c0.8,1.7,1.8,2.8,2.3,3.4c1,1.2,1.6,1.8,2.6,2.3c1.9,0.9,3.9,0.6,4.7,0.1c0.2-0.1,0.3-0.3,0.4-0.4c0.2-0.6-0.4-1.3-0.9-1.9
			c-1.4-1.8-0.8-1.9-2.2-3.6c-0.3-0.4-0.1,0-2.3-2.4c-1-1-1.1-1.2-1.5-1.5c-0.7-0.5-0.9-0.6-1.2-1.1c-0.5-0.7-0.4-1.7-0.2-1.8
			c0.1-0.1,0.4,0.2,0.4,0.2c0.3,0.3,0.2,0.6,0.5,0.9c0.2,0.2,0.5,0.5,0.8,0.4c0.4-0.1,0.5-1.1,0.2-1.9c-0.1-0.2-0.4-1.3-1.2-1.6
			c-0.1-0.1-0.3-0.1-0.4-0.2c-0.2-0.3,0-0.9,0.3-1.1c0.1-0.1,0.4,0,0.9,0.2c0.5,0.2,0.6,0.3,0.8,0.3c0.3,0,0.4-0.2,0.7-0.3
			c0.7-0.2,1.7,0.5,1.9,1.3c0,0.2,0,0.4,0,0.4c-0.1,0.9,0,1.8-0.1,2.6c0,1.6,3,3.4,6.3,6.3c3.8,3.5,3.7,4.7,3.6,5.1
			c-0.1,0.5-0.4,0.6-2.1,2.2c-2.8,2.5-2.9,3-4,3.4c-1.6,0.6-1.9-0.3-3.5,0.3c-2,0.8-3.3,3-3.7,4.7c-0.3,1.2,0.1,1.2-0.2,3.1
			c-0.2,1.7-0.6,2.4-1,3.9c-0.3,1.1-1.5,5.6-0.2,6.3c0.5,0.3,1-0.2,3.9-1.7c3.6-1.9,4.5-2,5.1-2.1c0.7-0.1,2.9-0.3,4.2,1
			c0.6,0.5,1.1,1.4,1.2,4.8c0.1,2.5,0.1,3.7-0.2,5.8c-1.7,9.3,4.2,27.7-0.5,30c-0.6,0.3-1.2,0.2-2.4,0c-5.4-0.8-10.9-0.1-16.3-0.4
			c-9.5-0.4-30.6-0.3-37.4-0.3c-52,0.1-65.5-2.7-106.8-1.3c-38.8,1.3-77.4,5.4-79.1-2.1c-0.1-0.4,0-0.3,0.5-3.3
			c0.2-1.6,1.3-8.8,1.3-16.9c0-5.6-0.5-4.7-0.3-8.8c0.3-5.5,0.4-8.3,1.4-11.6c0.9-3.2,2.1-5.3,1-7c-0.7-1-1.9-1.4-2.4-3.1
			c-0.4-1.1,0-1.4-0.5-2.2c-0.7-1.1-1.6-1-2.5-2.3c-0.4-0.5-0.6-1-0.7-1.4c-0.5-1.4-0.8-3.6,0-4.1c0.8-0.5,2.9,1.2,4,2.6
			c0.6,0.8,0.7,1.2,1.2,1.3c1.1,0.1,2.1-2.8,2.5-3.9c0.7-2,1.3-3.7,0.7-5.1c-0.1-0.2-0.3-0.6-0.2-1.1c0.2-0.6,1-0.7,1.5-1.1
			c1.7-1.2-0.8-5.2,1.1-7.8c0.1-0.2,0.8-0.8,2-1.9c1.1-1,1.7-1.6,2-1.8c1.6-0.9,3.3-0.6,4.3-0.4c0.9,0.2,2.8,0.5,4.5,2.2
			c0.4,0.4,2.3,2.4,2,4.9c-0.2,2-1.7,2.1-2.8,5.1c-0.6,1.5-1.1,3.7-0.4,4.1c0.5,0.3,1.7-0.6,2.9-1.6c0.8-0.6,1.2-1,1.6-1.5
			c0.8-1.2,0.4-2,1.2-3.1c0.3-0.4,0.4-0.3,1.7-1.3c2.1-1.5,3.1-2.3,3.1-3.1c0-0.8-0.7-1.1-0.6-1.9c0.1-0.8,0.9-1.6,1.7-1.6
			c0.5,0,0.6,0.4,1.1,0.5c1.1,0.1,2.1-1.8,2.3-2.2c0.4-0.8,1.3-2.4,0.9-3.8c-0.1-0.2-0.2-0.5,0-0.7c0.2-0.3,0.9-0.2,1.2,0.2
			c0.1,0.2,0.2,0.4-0.1,1.8c-0.4,1.7-0.6,2.5-0.7,2.8c-0.1,0.1-0.3,0.5-0.1,0.6c0.2,0.2,0.8-0.3,1.2-0.1c0.3,0.2,0.1,0.6,0.4,0.8
			c0.4,0.2,0.8-0.2,1.1,0c0.3,0.2-0.1,0.7,0.2,1.2c0.3,0.4,0.7,0.3,0.9,0.6c0.4,0.7-0.7,2.4-1.9,2.5c-0.5,0-0.9-0.2-1.4,0
			c-0.3,0.1-0.3,0.3-0.5,0.5c-0.5,0.4-1.2,0.3-1.6,0.4c-1,0.2-1.5,1.6-1.9,2.6c-1.4,3.2-4,5.4-4.5,5.8c-1.3,1.1-2.2,1.5-3,2.9
			c-0.4,0.8-0.4,1.1-0.8,1.9c-0.8,1.5-2,2.3-2.5,2.7c-3.2,2.4-4.6,7.6-4.9,10.6c-0.2,2.1,0.1,3.6,0.2,4c0.4,1.8,0.9,2.6,1.6,4
			c2.2,4.8,1.8,8.8,2.7,8.8c0.3,0,0.5-0.3,0.9-1c0.9-1.4,0.7-2.1,1.3-3.5c0.6-1.3,1.3-2.1,2.1-2.9c0.8-0.8,1.2-1.3,2-1.5
			c0.8-0.2,1.4,0,1.5-0.2c0.1-0.2-0.4-0.6-0.7-0.9c-1.1-1.1-1.1-2.7-1.2-3.2c-0.1-1.6,0.8-1.8,1.5-4.9c0.3-1.1,0.1-0.9,0.3-1.8
			c0.3-1,0.8-3.3,2.8-5.1c0.5-0.5,1.8-1.7,3.9-2c0.5-0.1,2.7-0.4,4.8,0.8c0,0,3.5,2.1,4,7c0,0.4,0.1,0.6,0.2,1
			c0.2,1,0.4,1.3,0.5,1.5c0.2,0.3,0.4,0.6,0.6,0.6c0.7,0.1,1.5-1.3,1.8-2.6c0.1-0.4,0.2-0.8,0.2-2.5c0-2.3-0.1-2.6,0-3.6
			c0.1-1.2,0.3-1.4,1-3.8c0.6-2,0.8-3.6,1.1-5.1c0.5-2.6,0.6-4.1,0.7-4.7c0.1-1,0.1-1.6,0.1-2.4c0-1.3-0.2-1.6-0.4-3.7
			c-0.2-2,0-1.7-0.2-2.7c-0.2-1.3-0.5-2.2-0.1-2.5c0.2-0.2,0.5-0.2,0.6-0.1c0.2,0.1,0.1,0.4,0.1,0.8c0,0.8,0.2,1.4,0.4,2.1
			c0.1,0.3,0.1,0.4,0.3,0.4c0.3,0.1,0.6-0.3,1.3-0.6c0.3-0.2,1.2-0.6,1.5-0.4c0.3,0.2,0.1,0.8,0.4,0.9c0.2,0.1,0.5-0.2,0.6,0
			c0.2,0.1-0.1,0.4,0.1,0.7c0.2,0.3,0.9,0.1,1.1,0.4c0.2,0.3-0.2,0.8-0.3,1c-0.4,0.5-0.7,0.5-0.9,1c-0.2,0.4-0.1,0.8-0.1,1
			c0.1,1.2-0.6,2.3-1,3c-1,2.1,0.2,3.9-0.3,8.2c-0.2,2.3-0.6,1.8-1,4.8c-0.5,3.4,0,3.7-0.4,7.2c-0.4,3.4-1.2,6.4-1.3,6.8
			c0,0.1-0.6,2.2-1.2,4.8c-0.4,1.8-0.6,2.8,0,3.9c0.2,0.5,0.5,0.7,0.9,1.6c0.4,1.1,0.3,1.4,0.6,1.9c0.5,0.7,1,0.5,2.4,1.2
			c1.7,0.8,1.7,1.5,2.8,1.6c0.8,0.1,1.2-0.2,2.4-0.6c1.2-0.4,3.3-1.1,4.7-0.5c2.2,0.9,1.9,4.3,3.5,4.5c0.1,0,0.2,0,2.3-1
			c1.6-0.7,1.7-0.8,1.9-0.8c1.5-0.2,2.4,0.8,2.9,0.5c0.7-0.5-0.5-3.4-1-4.8c-1.3-3.2-2-6.6-3.2-9.9c0,0-0.3-0.7-3.8-10.2
			c-3.1-8.2-4.6-12.4-4.9-14.1c-1.5-7.2-0.7-11.2-3.1-14.5c-0.7-0.9-1.9-2.3-2.2-4.4c-0.1-1.2,0.2-2.1-0.4-3.5
			c-0.8-2-0.8-2.1-0.8-2.1c-0.3-0.5-0.5-0.9-0.4-1.1c0.2-0.3,0.9,0.2,1.4-0.1c0.5-0.3,0.3-0.9,0.7-1.1c0.4-0.2,0.7,0.2,1.2,0
			c0.5-0.2,0.4-1,0.8-1.2c0.7-0.3,1.9,1.6,2.7,1.4c0.6-0.2,0.6-1.6,0.6-3.1c0-1.4,0-2.1-0.1-2.8c-0.1-0.4-0.3-0.8-0.1-1.4
			c0.1-0.4,0.3-1,0.6-1C71.1,190.1,71.4,191.1,71.5,191.4z"/>
		<rect x="8.5" y="273.5" class="st4" width="243.5" height="21.5"/>
	</g>
	
		<rect x="608.8" y="35" transform="matrix(-8.463925e-04 -1 1 -8.463925e-04 261.5841 963.8157)" class="st5" width="6.9" height="632.4"/>
	
		<rect x="609.7" y="-179.9" transform="matrix(-8.498643e-04 -1 1 -8.498643e-04 447.8331 779.1902)" class="st6" width="6.9" height="691.6"/>
	<polygon class="st5" points="928.1,354.7 920.1,354 942.7,168.4 950.7,169.1 	"/>
	<path d="M803.4,471.5c-0.5-0.2-0.6-0.2-0.6-0.2c-0.2-0.1-0.3-0.2-0.4-0.2c0,0-0.1,0-0.1,0c-0.7,0-3.7,7.2-3.7,7.2
		c-0.6,1.6-1.7,3.8-3.5,6.4c-2.3,4.1-8.5,16-7.6,28.1c0.3,4.2,1.4,7.2,1.8,8.2c1.7,4.6,4.2,5.6,8.8,11.7c4.7,6.3,4.3,8,5.9,8.2
		c5.5,0.7,5.1-19.9,20.5-32.2c0.8-0.6,14.9-11.9,18.4-17.7c0.1-0.2,0.8-1.4,1.9-3c1.5-2.1,2.7-3.2,4.8-6.3c6-8.9,9.6-20.7,7.2-22.3
		c-3.4-2.3-22.1,15-26.4,12.8c-0.3-0.1-2.5-1.4-5.2-1.6c-2.4-0.2-2.7,0.3-9,0.7c-0.7,0.1-0.8,0.1-1.6,0.1c-0.7,0-2,0.1-2.9,0.2
		C811.6,471.7,805.3,472.1,803.4,471.5z"/>
	<g id="footy" class="st7">
		<ellipse id="football" class="st8" cx="605.5" cy="589.8" rx="33.7" ry="29"/>
		<polygon class="st9" points="620.4,584.7 611.4,586.1 605.5,580.1 608.6,572.6 617.6,571.3 623.6,577.3 		"/>
		<polygon class="st9" points="617,611.6 607.9,613 602,606.9 605.1,599.5 614.2,598.1 620.1,604.2 		"/>
		<polygon class="st9" points="590.4,594.9 581.3,596.3 575.4,590.2 578.5,582.8 587.6,581.4 593.5,587.4 		"/>
		<path class="st9" d="M636.5,600.7c-2.5-1.8-4.9-3.5-7.4-5.3c0-3.1-0.1-6.1-0.1-9.2l9-1.4c0.6,1.8,1.2,4.5,0.9,7.8
			C638.6,596.2,637.4,599,636.5,600.7z"/>
		<path class="st9" d="M597.7,566.6l-7.1,5l-8.6-2.8c1.3-1.4,3.9-3.8,8.3-5.4c3-1.1,5.8-1.4,7.6-1.5
			C597.8,563.5,597.7,565,597.7,566.6z"/>
		<path class="st9" d="M590,615.5c-2.1-0.8-5.1-2.3-8-4.9c-2.2-1.9-3.6-3.8-4.6-5.2c2.6-0.5,5.1-0.9,7.7-1.4l5.9,6
			C590.7,611.8,590.4,613.6,590,615.5z"/>
	</g>
	<g class="st7">
		<path class="st10" d="M642.3,290.3c1.8,7.1-32.2,25.1-67.8,31.7c-38,7-78.4,1-79.1-6.5c-0.7-8.5,49.8-19.2,73-23.1
			C589.9,288.6,640.2,282.1,642.3,290.3z"/>
		
			<image style="display:inline;overflow:visible;" width="1879" height="585" xlink:href="2D46B92D8D07778B.png"  transform="matrix(8.644620e-02 0 0 8.644620e-02 483.9822 280.4763)">
		</image>
		
			<image style="display:inline;overflow:visible;" width="1024" height="769" xlink:href="footySupporters.png"  transform="matrix(0.24 0 0 0.24 484.8582 90.7292)">
		</image>
	</g>
	
		<image style="display:none;overflow:visible;" width="1024" height="769" id="cheering_4_" xlink:href="footySupporters.png"  transform="matrix(0.2434 0 0 0.24 1030.7118 95.0862)">
	</image>
	
		<image style="display:none;overflow:visible;" width="1024" height="769" id="cheering_3_" xlink:href="footySupporters.png"  transform="matrix(0.24 0 0 0.24 787.0414 95.0862)">
	</image>
	
		<image style="display:none;overflow:visible;" width="1024" height="769" id="cheering_1_" xlink:href="footySupporters.png"  transform="matrix(0.2305 0 0 0.2391 0 91.5272)">
	</image>
	
		<image style="display:none;overflow:visible;" width="1024" height="769" id="cheering" xlink:href="footySupporters.png"  transform="matrix(0.2525 0 0 0.24 230.1403 90.3284)">
	</image>
	<g>
		<g>
			<path class="st4" d="M1094.2,187.7c0.4,1.2,0.3,2.2,0.3,2.3c-0.2,1.7,0.4,1.9,0.7,5.1c0.1,1.6,0.3,3.9-0.3,6.7
				c-0.3,1.5-0.6,1.7-0.6,2.7c-0.1,1.7,0.6,2.6,1.4,4.9c1.4,3.6,0.8,3.6,1.9,5.7c1.3,2.5,2,2.2,3,4.5c0.3,0.8,0.3,0.9,1.4,5.1
				c0.7,2.5,1,3.8,1.3,4.4c1,2.5,1.7,2.3,3.2,5c1.7,3,1.6,4.6,3.5,7.3c0.9,1.3,1.6,1.8,2.3,2c0.8,0.3,1.2,0,2.2,0.5
				c0.7,0.3,0.8,0.6,1.6,0.9c0.5,0.2,1.2,0.4,1.6,0.2c1.3-0.6,1-5.4-1-6.5c-0.6-0.3-1,0-1.6-0.5c-1.1-0.9-1.2-3.1-0.3-3.9
				c0.4-0.3,0.8-0.2,1-0.5c0.5-0.7-0.6-1.8-1-3.2c-0.6-2.3,1-4.6,1.5-5.2c2.1-2.7,5.4-2.8,5.9-2.8c0.7,0,2.5,0,4.2,1.3
				c1.4,1.1,2,2.5,2.4,3.6c0.3,0.7,0.5,1.3,0.6,2.2c0.2,2.1-0.9,3.5-0.4,3.9c0.4,0.4,1.3-0.6,2-0.3c1,0.5,1,3.7-0.4,4.5
				c-0.5,0.3-0.8,0-1.4,0.3c-1.4,0.7-2.2,3.9-0.7,5.9c0.6,0.8,1.7,1.5,2.9,1.4c1-0.1,1.2-0.8,3-2.2c1.8-1.4,2.4-1.2,3.1-2.1
				c1-1.2,0.7-2.5,0.9-4.2c0.4-3.4,2.1-3.6,4.8-9.4c0.2-0.3,0.9-2.2,2.3-5.8c1.7-4.5,2.6-6.7,3-7.9c1.9-5.3,2.8-7.9,3-10.3
				c0.3-2.8-0.1-4.3,0.5-8.4c0.2-1.5,0.3-1.6,0.6-3.9c0.1-1.1,0.4-2.1,0.8-4.2c0.3-1.3,0.4-2,0.9-2.1c0.4-0.1,0.9,0.2,1.1,0.6
				c0.2,0.4-0.2,0.9-0.2,1.1c-1.1,1.8-0.9,6.3,0.1,6.6c0.6,0.2,1-1.1,2-1.1c1.5,0,3,2.8,3.4,5c0.1,0.7,0.4,2.8-0.7,4.7
				c-0.8,1.4-1.6,1.5-2.6,2.7c-1.5,1.8-1.4,4-1.5,5.8c-0.4,7.2-3.5,14-5,17.3c-0.6,1.3-1.1,2.3-1.7,4.2c-1,3.1-0.8,4.2-1.5,7.5
				c-1.1,5.1-1.6,7.6-3.5,10.2c-1,1.4-2.4,2.9-2.2,5c0,0.4,0.1,1.3,0.9,1.9c0.9,0.7,1.8,0.1,3.1,0.2c3.2,0.3,4.5,4.6,5.9,4.1
				c0.7-0.2,0.3-1.2,1.2-2.8c1.3-2.3,3.1-2,4-3.6c1-1.8-0.8-3-1-7.1c-0.1-1.6-0.3-4.7,1.7-7.3c1.3-1.6,4-3.5,6-2.8
				c3.1,1.1,3.2,7.2,4.3,7.1c0.5,0,0.5-1.1,1.5-4.2c1.2-3.3,1.7-3.5,1.8-5.2c0.1-1.7-0.5-2.2,0-3.3c0.4-0.8,1.2-2,1.7-2.5
				c0.4-0.5,0.4-0.4,0.5-0.6c0.9-1.4,0.4-2.7,1-3c0.3-0.1,0.7,0,0.8,0.2c0.2,0.3-0.2,0.7-0.6,1.6c-0.1,0.2-0.5,1.4-0.2,1.6
				c0.2,0.1,0.5-0.1,0.6-0.2c0.6-0.4,0.7-0.9,1.1-1.7c0.5-1.1,0.9-1.8,1.4-1.9c0.4,0,0.5,0.4,0.9,0.3c0.4-0.1,0.4-0.7,0.9-0.8
				c0.3-0.1,0.7,0.1,0.8,0.4c0.1,0.2-0.2,0.4-0.4,0.7c-0.5,0.6-0.3,0.7-0.9,1.9c-0.6,1.2-1,1.5-0.9,1.6c0.2,0.2,1-0.1,1.5-0.8
				c0.2-0.2,0.1-0.3,0.3-0.7c0.2-0.4,0.8-1.6,1.3-1.5c0.2,0,0.4,0.3,0.4,0.5c0,0.3-0.2,0.4-0.5,0.7c-0.4,0.4-0.3,0.7-0.6,1.2
				c-0.3,0.6-0.4,0.5-1.6,2.1c-0.7,0.9-0.9,1.2-0.8,1.7c0,0.1,0.1,0.5,0.3,0.6c0.5,0.2,1-0.5,2.2-0.7c0.1,0,1.1-0.2,1.3,0.2
				c0.1,0.2-0.2,0.6-0.2,0.6c-0.3,0.4-0.7,0.3-1.2,0.5c-0.8,0.3-0.7,0.6-1.6,1.1c-0.5,0.3-0.7,0.2-1.6,0.5c-1.2,0.3-1.8,0.5-2.2,0.9
				c-0.6,0.5-0.6,1-1.1,3.1c-0.6,2.3-0.7,2-0.9,2.9c-0.4,2,0.2,2.3,0.1,4.5c-0.1,3.5-1.6,5.4-0.6,6.3c0.3,0.3,0.6,0.3,1,0.3
				c1.9,0.3,3.3,2.1,5.5,5.5c3.1,4.8,4.4,7.2,5.1,7c0.3-0.1,0.4-0.5,0.5-0.8c0.1-0.7-0.6-1.3-1-1.7c-1.2-1.3-1.1-3.2-1.1-5.5
				c0.1-1.7,0.1-2.7,0.8-3.8c1.1-1.8,3-2.4,3.5-2.5c0.6-0.2,1.9-0.6,3.4,0c1.4,0.5,2.8,1.9,3.1,3.4c0.2,1.1-0.1,2.8,0.2,3.8
				c0,0,0.3,0.9,0.3,0.9c0.4-0.2,0.6-0.1,0.8-0.1c0.6,0.4,0,2.8-1.1,3.1c-0.3,0.1-0.5-0.1-0.8,0.1c-0.5,0.2-0.6,0.9-0.7,1.7
				c-0.3,2.6-0.4,3.8,0.1,4c0.3,0.1,0.6-0.1,0.9-0.3c0.8-0.6,1-1.5,1.2-2c0.2-0.6,1.1-1.7,2.8-3.7c1.8-2.2,1.8-1.9,2.4-2.8
				c1.1-1.7,1.5-3.3,1.7-4.1c0.5-2.3,0.8-3.6,0.1-4.6c-1.2-1.7-4.3-0.9-4.8-2.2c-0.3-0.9,1-1.6,0.7-2.7c-0.3-1-1.9-1.3-3.2-1.7
				c-3.4-1.1-6.8-3.8-8-6.8c-0.5-1.2-0.5-2.9-0.5-6.2c0-0.7,0-0.7,0.2-5.4c0.2-4.9,0.2-5.3-0.1-6c-0.6-1.1-1.5-1.9-1.6-3.6
				c0-0.5,0.1-0.4,0.2-1.3c0.2-2.5-0.5-3.6,0.1-4.2c0.5-0.4,1.2,0,1.6-0.6c0.3-0.5-0.1-1,0.2-1.3c0.3-0.3,1.1,0.2,1.3,0
				c0.2-0.2,0-0.5,0-1.2c0-0.3,0-1,0.3-1.1c0.2-0.1,0.5,0.2,0.6,0.4c0.1,0.3,0.1,0.6,0,0.9c-0.1,0.6,0,0.4,0,1.7
				c-0.1,1.1-0.2,1.3,0,1.6c0.2,0.3,0.7,0.4,0.9,0.2c0.3-0.2,0.2-0.7,0.1-1.5c0-1-0.1-2.6,0.6-2.9c0.3-0.1,0.7-0.1,0.8,0.1
				c0.1,0.1,0,0.3,0,0.5c-0.1,0.4,0,0.6,0,1.2c0,0.3-0.1,1-0.3,2.2c-0.2,1.3-0.2,1.5-0.2,1.8c0,0.2,0.2,1.5,0.7,1.6
				c0.1,0,0.2,0,1-0.6c0.6-0.5,0.7-0.7,1.2-1c0.5-0.4,0.7-0.5,1-0.5c0.3,0,0.7,0.1,0.8,0.3c0,0.2-0.3,0.3-0.7,0.7
				c-0.3,0.3-0.4,0.5-0.9,1.1c-0.6,0.8-0.9,1.2-1.3,1.6c-0.8,0.7-1.2,0.6-1.8,1.1c-0.7,0.6-0.8,1.6-0.9,2.6
				c-0.2,3.1-0.5,6.5,1.4,10.1c0.8,1.5,1.6,2.4,1.7,4c0,0.8-0.1,1.5,0.4,2c0.5,0.5,1.1,0.3,2.1,0.5c2.5,0.3,3.7,2.1,4.2,1.7
				c0.3-0.3,0.1-1.1-0.4-1.7c-0.5-0.7-1-0.5-2.2-1.2c-1.2-0.7-1.7-1.6-2.2-2.4c-0.2-0.4-0.4-0.7-0.2-0.8c0.2-0.2,0.8,0,1.2,0.1
				c0.9,0.3,1,0.5,1.3,0.5c0.5-0.1,0.8-1.1,0.8-1.8c0.1-1.3-0.7-2.5-0.9-2.8c-0.4-0.5-0.8-0.9-0.8-1.6c0-0.3,0-0.7,0.2-0.7
				c0.2-0.1,0.4,0.2,0.7,0.5c1,1.3,1.4,2.4,1.5,2.4c0.1,0-0.1-0.5,0-1.3c0.1-0.6,0.2-0.7,0.1-1.1c-0.1-0.4-0.3-0.4-0.5-1
				c-0.1-0.2-0.4-0.8-0.2-1c0.1-0.1,0.5,0,0.8,0.2c0.2,0.2,0.2,0.3,0.5,1.1c0.3,0.8,0.3,0.8,0.3,0.8c0.1,0,0.3-1.2,0-2.1
				c0-0.1-0.1-0.4,0-0.5c0.1-0.1,0.3-0.1,0.5-0.1c0.3,0.1,0.4,0.5,0.5,1c0.3,1.3,0.5,1.9,0.5,1.9c0.1,0-0.4-1.6,0.1-1.8
				c0.2-0.1,0.6,0.1,0.8,0.4c0.3,0.4,0,0.9-0.1,1.9c-0.1,0.5,0,1,0,1.4c0.1,1.8,0.8,2.2,0.9,4.1c0.1,0.8-0.1,0.8,0.1,1.3
				c0.3,1,0.9,1.2,1.1,2.2c0,0.5-0.1,0.4-0.1,1.1c0,0.5,0,1.2,0.4,1.6c0.4,0.5,1.2,0.2,2.3,0.3c2.2,0.1,3,1.4,6,1.8
				c0.3,0,0.7,0.1,1-0.2c0.6-0.5,0.2-2-0.3-3c-0.9-1.8-1.9-1.8-2.2-3.2c-0.1-0.8,0.1-1.6-0.3-1.8c-0.3-0.1-0.5,0.2-0.9,0.2
				c-1.2-0.1-2.1-3.6-1.3-4.2c0.4-0.3,1,0.2,1.2-0.1c0.4-0.4-0.9-1.6-1.3-3.1c-0.5-2.1,0.8-5,3.2-6.5c0.2-0.1,3-1.7,5.9-0.5
				c0.3,0.1,2.3,1,3.2,2.9c1.1,2.5-0.2,5.3,1,5.9c0.5,0.3,1-0.1,1.3,0.2c0.5,0.6-0.9,1.7-1.4,3.9c-0.5,2-0.1,3.7,0.2,4.5
				c0.2,1,0.4,1.7,1.1,2.4c1,1.2,2.5,1.3,3.2,1.4c2.2,0.2,3.6-0.6,5.9-1.4c5.5-2,8.1-1.1,8.6-2.7c0.4-1.1-1-1.8-2.8-4.8
				c-1.9-3.2-2.6-6.2-2.8-7.5c0,0-0.7-3.3-0.7-9c0-1.1,0-1.9,0-1.9c0-1,0.1-1.4,0.1-1.6c0-0.6,0.1-0.7,0-1c-0.1-0.7-0.5-1.1-0.6-1.4
				c-0.1-0.2-1.5-2.1-1.3-3.6c0.2-1.4,1.9-2.6,2.6-2.3c0.4,0.2,0.5,0.8,0.7,0.8c0.2,0,0.2-0.5,0.2-1c0-0.3-0.1-0.7-0.8-2
				c-0.4-0.7-0.5-0.9-0.4-1c0.1-0.2,0.5-0.1,0.8,0.1c0.3,0.2,0.5,0.6,0.5,0.8c0.5,1.6,0.8,2.5,1.3,2.8c0.4,0.2,0.7,0.1,0.8,0.4
				c0.2,0.4-0.2,0.8-0.1,1.4c0.1,0.4,0.2,0.4,0.5,1c0.3,0.6,0.5,1.1,0.4,1.6c-0.1,0.7-0.7,0.8-1,1.7c0,0.2-0.1,0.4-0.1,0.6
				c-0.1,2.6,1,8.8,0.8,10.9c0,0.1-0.1,0.7,0.1,0.7c0.1,0,0.4-0.4,0.5-0.6c0.5-0.9,1.3-1.2,2.7-2.2c1-0.7,2-1.4,2.9-2.5
				c1-1.2,0.8-1.4,1.8-2.3c0.7-0.7,1.8-1.8,3.4-2c1.5-0.1,2.6,0.6,3.7,1.3c0.6,0.4,2.3,1.6,3.4,3.9c1,2.2,0.3,2.7,1.5,5.2
				c0.8,1.7,1.8,2.8,2.3,3.4c1,1.2,1.6,1.8,2.6,2.3c1.9,0.9,3.9,0.6,4.7,0.1c0.2-0.1,0.3-0.3,0.4-0.4c0.2-0.6-0.4-1.3-0.9-1.9
				c-1.4-1.8-0.8-1.9-2.2-3.6c-0.3-0.4-0.1,0-2.3-2.4c-1-1-1.1-1.2-1.5-1.5c-0.7-0.5-0.9-0.6-1.2-1.1c-0.5-0.7-0.4-1.7-0.2-1.8
				c0.1-0.1,0.4,0.2,0.4,0.2c0.3,0.3,0.2,0.6,0.5,0.9c0.2,0.2,0.5,0.5,0.8,0.4c0.4-0.1,0.5-1.1,0.2-1.9c-0.1-0.2-0.4-1.3-1.2-1.6
				c-0.1-0.1-0.3-0.1-0.4-0.2c-0.2-0.3,0-0.9,0.3-1.1c0.1-0.1,0.4,0,0.9,0.2c0.5,0.2,0.6,0.3,0.8,0.3c0.3,0,0.4-0.2,0.7-0.3
				c0.7-0.2,1.7,0.5,1.9,1.3c0,0.2,0,0.4,0,0.4c-0.1,0.9,0,1.8-0.1,2.6c0,1.6,3,3.4,6.3,6.3c3.8,3.5,3.7,4.7,3.6,5.1
				c-0.1,0.5-0.4,0.6-2.1,2.2c-2.8,2.5-2.9,3-4,3.4c-1.6,0.6-1.9-0.3-3.5,0.3c-2,0.8-3.3,3-3.7,4.7c-0.3,1.2,0.1,1.2-0.2,3.1
				c-0.2,1.7-0.6,2.4-1,3.9c-0.3,1.1-1.5,5.6-0.2,6.3c0.5,0.3,1-0.2,3.9-1.7c3.6-1.9,4.5-2,5.1-2.1c0.7-0.1,2.9-0.3,4.2,1
				c0.6,0.5,1.1,1.4,1.2,4.8c0.1,2.5,0.1,3.7-0.2,5.8c-1.7,9.3,4.2,27.7-0.5,30c-0.6,0.3-1.2,0.2-2.4,0c-5.4-0.8-10.9-0.1-16.3-0.4
				c-9.5-0.4-30.6-0.3-37.4-0.3c-52,0.1-65.5-2.7-106.8-1.3c-38.8,1.3-77.4,5.4-79.1-2.1c-0.1-0.4,0-0.3,0.5-3.3
				c0.2-1.6,1.3-8.8,1.3-16.9c0-5.6-0.5-4.7-0.3-8.8c0.3-5.5,0.4-8.3,1.4-11.6c0.9-3.2,2.1-5.3,1-7c-0.7-1-1.9-1.4-2.4-3.1
				c-0.4-1.1,0-1.4-0.5-2.2c-0.7-1.1-1.6-1-2.5-2.3c-0.4-0.5-0.6-1-0.7-1.4c-0.5-1.4-0.8-3.6,0-4.1c0.8-0.5,2.9,1.2,4,2.6
				c0.6,0.8,0.7,1.2,1.2,1.3c1.1,0.1,2.1-2.8,2.5-3.9c0.7-2,1.3-3.7,0.7-5.1c-0.1-0.2-0.3-0.6-0.2-1.1c0.2-0.6,1-0.7,1.5-1.1
				c1.7-1.2-0.8-5.2,1.1-7.8c0.1-0.2,0.8-0.8,2-1.9c1.1-1,1.7-1.6,2-1.8c1.6-0.9,3.3-0.6,4.3-0.4c0.9,0.2,2.8,0.5,4.5,2.2
				c0.4,0.4,2.3,2.4,2,4.9c-0.2,2-1.7,2.1-2.8,5.1c-0.6,1.5-1.1,3.7-0.4,4.1c0.5,0.3,1.7-0.6,2.9-1.6c0.8-0.6,1.2-1,1.6-1.5
				c0.8-1.2,0.4-2,1.2-3.1c0.3-0.4,0.4-0.3,1.7-1.3c2.1-1.5,3.1-2.3,3.1-3.1c0-0.8-0.7-1.1-0.6-1.9c0.1-0.8,0.9-1.6,1.7-1.6
				c0.5,0,0.6,0.4,1.1,0.5c1.1,0.1,2.1-1.8,2.3-2.2c0.4-0.8,1.3-2.4,0.9-3.8c-0.1-0.2-0.2-0.5,0-0.7c0.2-0.3,0.9-0.2,1.2,0.2
				c0.1,0.2,0.2,0.4-0.1,1.8c-0.4,1.7-0.6,2.5-0.7,2.8c-0.1,0.1-0.3,0.5-0.1,0.6c0.2,0.2,0.8-0.3,1.2-0.1c0.3,0.2,0.1,0.6,0.4,0.8
				c0.4,0.2,0.8-0.2,1.1,0c0.3,0.2-0.1,0.7,0.2,1.2c0.3,0.4,0.7,0.3,0.9,0.6c0.4,0.7-0.7,2.4-1.9,2.5c-0.5,0-0.9-0.2-1.4,0
				c-0.3,0.1-0.3,0.3-0.5,0.5c-0.5,0.4-1.2,0.3-1.6,0.4c-1,0.2-1.5,1.6-1.9,2.6c-1.4,3.2-4,5.4-4.5,5.8c-1.3,1.1-2.2,1.5-3,2.9
				c-0.4,0.8-0.4,1.1-0.8,1.9c-0.8,1.5-2,2.3-2.5,2.7c-3.2,2.4-4.6,7.6-4.9,10.6c-0.2,2.1,0.1,3.6,0.2,4c0.4,1.8,0.9,2.6,1.6,4
				c2.2,4.8,1.8,8.8,2.7,8.8c0.3,0,0.5-0.3,0.9-1c0.9-1.4,0.7-2.1,1.3-3.5c0.6-1.3,1.3-2.1,2.1-2.9c0.8-0.8,1.2-1.3,2-1.5
				c0.8-0.2,1.4,0,1.5-0.2c0.1-0.2-0.4-0.6-0.7-0.9c-1.1-1.1-1.1-2.7-1.2-3.2c-0.1-1.6,0.8-1.8,1.5-4.9c0.3-1.1,0.1-0.9,0.3-1.8
				c0.3-1,0.8-3.3,2.8-5.1c0.5-0.5,1.8-1.7,3.9-2c0.5-0.1,2.7-0.4,4.8,0.8c0,0,3.5,2.1,4,7c0,0.4,0.1,0.6,0.2,1
				c0.2,1,0.4,1.3,0.5,1.5c0.2,0.3,0.4,0.6,0.6,0.6c0.7,0.1,1.5-1.3,1.8-2.6c0.1-0.4,0.2-0.8,0.2-2.5c0-2.3-0.1-2.6,0-3.6
				c0.1-1.2,0.3-1.4,1-3.8c0.6-2,0.8-3.6,1.1-5.1c0.5-2.6,0.6-4.1,0.7-4.7c0.1-1,0.1-1.6,0.1-2.4c0-1.3-0.2-1.6-0.4-3.7
				c-0.2-2,0-1.7-0.2-2.7c-0.2-1.3-0.5-2.2-0.1-2.5c0.2-0.2,0.5-0.2,0.6-0.1c0.2,0.1,0.1,0.4,0.1,0.8c0,0.8,0.2,1.4,0.4,2.1
				c0.1,0.3,0.1,0.4,0.3,0.4c0.3,0.1,0.6-0.3,1.3-0.6c0.3-0.2,1.2-0.6,1.5-0.4c0.3,0.2,0.1,0.8,0.4,0.9c0.2,0.1,0.5-0.2,0.6,0
				c0.2,0.1-0.1,0.4,0.1,0.7c0.2,0.3,0.9,0.1,1.1,0.4c0.2,0.3-0.2,0.8-0.3,1c-0.4,0.5-0.7,0.5-0.9,1c-0.2,0.4-0.1,0.8-0.1,1
				c0.1,1.2-0.6,2.3-1,3c-1,2.1,0.2,3.9-0.3,8.2c-0.2,2.3-0.6,1.8-1,4.8c-0.5,3.4,0,3.7-0.4,7.2c-0.4,3.4-1.2,6.4-1.3,6.8
				c0,0.1-0.6,2.2-1.2,4.8c-0.4,1.8-0.6,2.8,0,3.9c0.2,0.5,0.5,0.7,0.9,1.6c0.4,1.1,0.3,1.4,0.6,1.9c0.5,0.7,1,0.5,2.4,1.2
				c1.7,0.8,1.7,1.5,2.8,1.6c0.8,0.1,1.2-0.2,2.4-0.6c1.2-0.4,3.3-1.1,4.7-0.5c2.2,0.9,1.9,4.3,3.5,4.5c0.1,0,0.2,0,2.3-1
				c1.6-0.7,1.7-0.8,1.9-0.8c1.5-0.2,2.4,0.8,2.9,0.5c0.7-0.5-0.5-3.4-1-4.8c-1.3-3.2-2-6.6-3.2-9.9c0,0-0.3-0.7-3.8-10.2
				c-3.1-8.2-4.6-12.4-4.9-14.1c-1.5-7.2-0.7-11.2-3.1-14.5c-0.7-0.9-1.9-2.3-2.2-4.4c-0.1-1.2,0.2-2.1-0.4-3.5
				c-0.8-2-0.8-2.1-0.8-2.1c-0.3-0.5-0.5-0.9-0.4-1.1c0.2-0.3,0.9,0.2,1.4-0.1c0.5-0.3,0.3-0.9,0.7-1.1c0.4-0.2,0.7,0.2,1.2,0
				c0.5-0.2,0.4-1,0.8-1.2c0.7-0.3,1.9,1.6,2.7,1.4c0.6-0.2,0.6-1.6,0.6-3.1c0-1.4,0-2.1-0.1-2.8c-0.1-0.4-0.3-0.8-0.1-1.4
				c0.1-0.4,0.3-1,0.6-1C1093.8,186.5,1094.1,187.4,1094.2,187.7z"/>
			<rect x="1031.3" y="269.9" class="st4" width="243.5" height="21.5"/>
		</g>
		<g>
			<path class="st4" d="M860.5,187.7c0.4,1.2,0.3,2.2,0.3,2.3c-0.2,1.7,0.4,1.9,0.7,5.1c0.1,1.6,0.3,3.9-0.3,6.7
				c-0.3,1.5-0.6,1.7-0.6,2.7c-0.1,1.7,0.6,2.6,1.4,4.9c1.4,3.6,0.8,3.6,1.9,5.7c1.3,2.5,2,2.2,3,4.5c0.3,0.8,0.3,0.9,1.4,5.1
				c0.7,2.5,1,3.8,1.3,4.4c1,2.5,1.7,2.3,3.2,5c1.7,3,1.6,4.6,3.5,7.3c0.9,1.3,1.6,1.8,2.3,2c0.8,0.3,1.2,0,2.2,0.5
				c0.7,0.3,0.8,0.6,1.6,0.9c0.5,0.2,1.2,0.4,1.6,0.2c1.3-0.6,1-5.4-1-6.5c-0.6-0.3-1,0-1.6-0.5c-1.1-0.9-1.2-3.1-0.3-3.9
				c0.4-0.3,0.8-0.2,1-0.5c0.5-0.7-0.6-1.8-1-3.2c-0.6-2.3,1-4.6,1.5-5.2c2.1-2.7,5.4-2.8,5.9-2.8c0.7,0,2.5,0,4.2,1.3
				c1.4,1.1,2,2.5,2.4,3.6c0.3,0.7,0.5,1.3,0.6,2.2c0.2,2.1-0.9,3.5-0.4,3.9c0.4,0.4,1.3-0.6,2-0.3c1,0.5,1,3.7-0.4,4.5
				c-0.5,0.3-0.8,0-1.4,0.3c-1.4,0.7-2.2,3.9-0.7,5.9c0.6,0.8,1.7,1.5,2.9,1.4c1-0.1,1.2-0.8,3-2.2c1.8-1.4,2.4-1.2,3.1-2.1
				c1-1.2,0.7-2.5,0.9-4.2c0.4-3.4,2.1-3.6,4.8-9.4c0.2-0.3,0.9-2.2,2.3-5.8c1.7-4.5,2.6-6.7,3-7.9c1.9-5.3,2.8-7.9,3-10.3
				c0.3-2.8-0.1-4.3,0.5-8.4c0.2-1.5,0.3-1.6,0.6-3.9c0.1-1.1,0.4-2.1,0.8-4.2c0.3-1.3,0.4-2,0.9-2.1c0.4-0.1,0.9,0.2,1.1,0.6
				c0.2,0.4-0.2,0.9-0.2,1.1c-1.1,1.8-0.9,6.3,0.1,6.6c0.6,0.2,1-1.1,2-1.1c1.5,0,3,2.8,3.4,5c0.1,0.7,0.4,2.8-0.7,4.7
				c-0.8,1.4-1.6,1.5-2.6,2.7c-1.5,1.8-1.4,4-1.5,5.8c-0.4,7.2-3.5,14-5,17.3c-0.6,1.3-1.1,2.3-1.7,4.2c-1,3.1-0.8,4.2-1.5,7.5
				c-1.1,5.1-1.6,7.6-3.5,10.2c-1,1.4-2.4,2.9-2.2,5c0,0.4,0.1,1.3,0.9,1.9c0.9,0.7,1.8,0.1,3.1,0.2c3.2,0.3,4.5,4.6,5.9,4.1
				c0.7-0.2,0.3-1.2,1.2-2.8c1.3-2.3,3.1-2,4-3.6c1-1.8-0.8-3-1-7.1c-0.1-1.6-0.3-4.7,1.7-7.3c1.3-1.6,4-3.5,6-2.8
				c3.1,1.1,3.2,7.2,4.3,7.1c0.5,0,0.5-1.1,1.5-4.2c1.2-3.3,1.7-3.5,1.8-5.2c0.1-1.7-0.5-2.2,0-3.3c0.4-0.8,1.2-2,1.7-2.5
				c0.4-0.5,0.4-0.4,0.5-0.6c0.9-1.4,0.4-2.7,1-3c0.3-0.1,0.7,0,0.8,0.2c0.2,0.3-0.2,0.7-0.6,1.6c-0.1,0.2-0.5,1.4-0.2,1.6
				c0.2,0.1,0.5-0.1,0.6-0.2c0.6-0.4,0.7-0.9,1.1-1.7c0.5-1.1,0.9-1.8,1.4-1.9c0.4,0,0.5,0.4,0.9,0.3c0.4-0.1,0.4-0.7,0.9-0.8
				c0.3-0.1,0.7,0.1,0.8,0.4c0.1,0.2-0.2,0.4-0.4,0.7c-0.5,0.6-0.3,0.7-0.9,1.9c-0.6,1.2-1,1.5-0.9,1.6c0.2,0.2,1-0.1,1.5-0.8
				c0.2-0.2,0.1-0.3,0.3-0.7c0.2-0.4,0.8-1.6,1.3-1.5c0.2,0,0.4,0.3,0.4,0.5c0,0.3-0.2,0.4-0.5,0.7c-0.4,0.4-0.3,0.7-0.6,1.2
				c-0.3,0.6-0.4,0.5-1.6,2.1c-0.7,0.9-0.9,1.2-0.8,1.7c0,0.1,0.1,0.5,0.3,0.6c0.5,0.2,1-0.5,2.2-0.7c0.1,0,1.1-0.2,1.3,0.2
				c0.1,0.2-0.2,0.6-0.2,0.6c-0.3,0.4-0.7,0.3-1.2,0.5c-0.8,0.3-0.7,0.6-1.6,1.1c-0.5,0.3-0.7,0.2-1.6,0.5c-1.2,0.3-1.8,0.5-2.2,0.9
				c-0.6,0.5-0.6,1-1.1,3.1c-0.6,2.3-0.7,2-0.9,2.9c-0.4,2,0.2,2.3,0.1,4.5c-0.1,3.5-1.6,5.4-0.6,6.3c0.3,0.3,0.6,0.3,1,0.3
				c1.9,0.3,3.3,2.1,5.5,5.5c3.1,4.8,4.4,7.2,5.1,7c0.3-0.1,0.4-0.5,0.5-0.8c0.1-0.7-0.6-1.3-1-1.7c-1.2-1.3-1.1-3.2-1.1-5.5
				c0.1-1.7,0.1-2.7,0.8-3.8c1.1-1.8,3-2.4,3.5-2.5c0.6-0.2,1.9-0.6,3.4,0c1.4,0.5,2.8,1.9,3.1,3.4c0.2,1.1-0.1,2.8,0.2,3.8
				c0,0,0.3,0.9,0.3,0.9c0.4-0.2,0.6-0.1,0.8-0.1c0.6,0.4,0,2.8-1.1,3.1c-0.3,0.1-0.5-0.1-0.8,0.1c-0.5,0.2-0.6,0.9-0.7,1.7
				c-0.3,2.6-0.4,3.8,0.1,4c0.3,0.1,0.6-0.1,0.9-0.3c0.8-0.6,1-1.5,1.2-2c0.2-0.6,1.1-1.7,2.8-3.7c1.8-2.2,1.8-1.9,2.4-2.8
				c1.1-1.7,1.5-3.3,1.7-4.1c0.5-2.3,0.8-3.6,0.1-4.6c-1.2-1.7-4.3-0.9-4.8-2.2c-0.3-0.9,1-1.6,0.7-2.7c-0.3-1-1.9-1.3-3.2-1.7
				c-3.4-1.1-6.8-3.8-8-6.8c-0.5-1.2-0.5-2.9-0.5-6.2c0-0.7,0-0.7,0.2-5.4c0.2-4.9,0.2-5.3-0.1-6c-0.6-1.1-1.5-1.9-1.6-3.6
				c0-0.5,0.1-0.4,0.2-1.3c0.2-2.5-0.5-3.6,0.1-4.2c0.5-0.4,1.2,0,1.6-0.6c0.3-0.5-0.1-1,0.2-1.3c0.3-0.3,1.1,0.2,1.3,0
				c0.2-0.2,0-0.5,0-1.2c0-0.3,0-1,0.3-1.1c0.2-0.1,0.5,0.2,0.6,0.4c0.1,0.3,0.1,0.6,0,0.9c-0.1,0.6,0,0.4,0,1.7
				c-0.1,1.1-0.2,1.3,0,1.6c0.2,0.3,0.7,0.4,0.9,0.2c0.3-0.2,0.2-0.7,0.1-1.5c0-1-0.1-2.6,0.6-2.9c0.3-0.1,0.7-0.1,0.8,0.1
				c0.1,0.1,0,0.3,0,0.5c-0.1,0.4,0,0.6,0,1.2c0,0.3-0.1,1-0.3,2.2c-0.2,1.3-0.2,1.5-0.2,1.8c0,0.2,0.2,1.5,0.7,1.6
				c0.1,0,0.2,0,1-0.6c0.6-0.5,0.7-0.7,1.2-1c0.5-0.4,0.7-0.5,1-0.5c0.3,0,0.7,0.1,0.8,0.3c0,0.2-0.3,0.3-0.7,0.7
				c-0.3,0.3-0.4,0.5-0.9,1.1c-0.6,0.8-0.9,1.2-1.3,1.6c-0.8,0.7-1.2,0.6-1.8,1.1c-0.7,0.6-0.8,1.6-0.9,2.6
				c-0.2,3.1-0.5,6.5,1.4,10.1c0.8,1.5,1.6,2.4,1.7,4c0,0.8-0.1,1.5,0.4,2c0.5,0.5,1.1,0.3,2.1,0.5c2.5,0.3,3.7,2.1,4.2,1.7
				c0.3-0.3,0.1-1.1-0.4-1.7c-0.5-0.7-1-0.5-2.2-1.2c-1.2-0.7-1.7-1.6-2.2-2.4c-0.2-0.4-0.4-0.7-0.2-0.8c0.2-0.2,0.8,0,1.2,0.1
				c0.9,0.3,1,0.5,1.3,0.5c0.5-0.1,0.8-1.1,0.8-1.8c0.1-1.3-0.7-2.5-0.9-2.8c-0.4-0.5-0.8-0.9-0.8-1.6c0-0.3,0-0.7,0.2-0.7
				c0.2-0.1,0.4,0.2,0.7,0.5c1,1.3,1.4,2.4,1.5,2.4c0.1,0-0.1-0.5,0-1.3c0.1-0.6,0.2-0.7,0.1-1.1c-0.1-0.4-0.3-0.4-0.5-1
				c-0.1-0.2-0.4-0.8-0.2-1c0.1-0.1,0.5,0,0.8,0.2c0.2,0.2,0.2,0.3,0.5,1.1c0.3,0.8,0.3,0.8,0.3,0.8c0.1,0,0.3-1.2,0-2.1
				c0-0.1-0.1-0.4,0-0.5c0.1-0.1,0.3-0.1,0.5-0.1c0.3,0.1,0.4,0.5,0.5,1c0.3,1.3,0.5,1.9,0.5,1.9c0.1,0-0.4-1.6,0.1-1.8
				c0.2-0.1,0.6,0.1,0.8,0.4c0.3,0.4,0,0.9-0.1,1.9c-0.1,0.5,0,1,0,1.4c0.1,1.8,0.8,2.2,0.9,4.1c0.1,0.8-0.1,0.8,0.1,1.3
				c0.3,1,0.9,1.2,1.1,2.2c0,0.5-0.1,0.4-0.1,1.1c0,0.5,0,1.2,0.4,1.6c0.4,0.5,1.2,0.2,2.3,0.3c2.2,0.1,3,1.4,6,1.8
				c0.3,0,0.7,0.1,1-0.2c0.6-0.5,0.2-2-0.3-3c-0.9-1.8-1.9-1.8-2.2-3.2c-0.1-0.8,0.1-1.6-0.3-1.8c-0.3-0.1-0.5,0.2-0.9,0.2
				c-1.2-0.1-2.1-3.6-1.3-4.2c0.4-0.3,1,0.2,1.2-0.1c0.4-0.4-0.9-1.6-1.3-3.1c-0.5-2.1,0.8-5,3.2-6.5c0.2-0.1,3-1.7,5.9-0.5
				c0.3,0.1,2.3,1,3.2,2.9c1.1,2.5-0.2,5.3,1,5.9c0.5,0.3,1-0.1,1.3,0.2c0.5,0.6-0.9,1.7-1.4,3.9c-0.5,2-0.1,3.7,0.2,4.5
				c0.2,1,0.4,1.7,1.1,2.4c1,1.2,2.5,1.3,3.2,1.4c2.2,0.2,3.6-0.6,5.9-1.4c5.5-2,8.1-1.1,8.6-2.7c0.4-1.1-1-1.8-2.8-4.8
				c-1.9-3.2-2.6-6.2-2.8-7.5c0,0-0.7-3.3-0.7-9c0-1.1,0-1.9,0-1.9c0-1,0.1-1.4,0.1-1.6c0-0.6,0.1-0.7,0-1c-0.1-0.7-0.5-1.1-0.6-1.4
				c-0.1-0.2-1.5-2.1-1.3-3.6c0.2-1.4,1.9-2.6,2.6-2.3c0.4,0.2,0.5,0.8,0.7,0.8c0.2,0,0.2-0.5,0.2-1c0-0.3-0.1-0.7-0.8-2
				c-0.4-0.7-0.5-0.9-0.4-1c0.1-0.2,0.5-0.1,0.8,0.1c0.3,0.2,0.5,0.6,0.5,0.8c0.5,1.6,0.8,2.5,1.3,2.8c0.4,0.2,0.7,0.1,0.8,0.4
				c0.2,0.4-0.2,0.8-0.1,1.4c0.1,0.4,0.2,0.4,0.5,1c0.3,0.6,0.5,1.1,0.4,1.6c-0.1,0.7-0.7,0.8-1,1.7c0,0.2-0.1,0.4-0.1,0.6
				c-0.1,2.6,1,8.8,0.8,10.9c0,0.1-0.1,0.7,0.1,0.7c0.1,0,0.4-0.4,0.5-0.6c0.5-0.9,1.3-1.2,2.7-2.2c1-0.7,2-1.4,2.9-2.5
				c1-1.2,0.8-1.4,1.8-2.3c0.7-0.7,1.8-1.8,3.4-2c1.5-0.1,2.6,0.6,3.7,1.3c0.6,0.4,2.3,1.6,3.4,3.9c1,2.2,0.3,2.7,1.5,5.2
				c0.8,1.7,1.8,2.8,2.3,3.4c1,1.2,1.6,1.8,2.6,2.3c1.9,0.9,3.9,0.6,4.7,0.1c0.2-0.1,0.3-0.3,0.4-0.4c0.2-0.6-0.4-1.3-0.9-1.9
				c-1.4-1.8-0.8-1.9-2.2-3.6c-0.3-0.4-0.1,0-2.3-2.4c-1-1-1.1-1.2-1.5-1.5c-0.7-0.5-0.9-0.6-1.2-1.1c-0.5-0.7-0.4-1.7-0.2-1.8
				c0.1-0.1,0.4,0.2,0.4,0.2c0.3,0.3,0.2,0.6,0.5,0.9c0.2,0.2,0.5,0.5,0.8,0.4c0.4-0.1,0.5-1.1,0.2-1.9c-0.1-0.2-0.4-1.3-1.2-1.6
				c-0.1-0.1-0.3-0.1-0.4-0.2c-0.2-0.3,0-0.9,0.3-1.1c0.1-0.1,0.4,0,0.9,0.2c0.5,0.2,0.6,0.3,0.8,0.3c0.3,0,0.4-0.2,0.7-0.3
				c0.7-0.2,1.7,0.5,1.9,1.3c0,0.2,0,0.4,0,0.4c-0.1,0.9,0,1.8-0.1,2.6c0,1.6,3,3.4,6.3,6.3c3.8,3.5,3.7,4.7,3.6,5.1
				c-0.1,0.5-0.4,0.6-2.1,2.2c-2.8,2.5-2.9,3-4,3.4c-1.6,0.6-1.9-0.3-3.5,0.3c-2,0.8-3.3,3-3.7,4.7c-0.3,1.2,0.1,1.2-0.2,3.1
				c-0.2,1.7-0.6,2.4-1,3.9c-0.3,1.1-1.5,5.6-0.2,6.3c0.5,0.3,1-0.2,3.9-1.7c3.6-1.9,4.5-2,5.1-2.1c0.7-0.1,2.9-0.3,4.2,1
				c0.6,0.5,1.1,1.4,1.2,4.8c0.1,2.5,0.1,3.7-0.2,5.8c-1.7,9.3,4.2,27.7-0.5,30c-0.6,0.3-1.2,0.2-2.4,0c-5.4-0.8-10.9-0.1-16.3-0.4
				c-9.5-0.4-30.6-0.3-37.4-0.3c-52,0.1-65.5-2.7-106.8-1.3c-38.8,1.3-77.4,5.4-79.1-2.1c-0.1-0.4,0-0.3,0.5-3.3
				c0.2-1.6,1.3-8.8,1.3-16.9c0-5.6-0.5-4.7-0.3-8.8c0.3-5.5,0.4-8.3,1.4-11.6c0.9-3.2,2.1-5.3,1-7c-0.7-1-1.9-1.4-2.4-3.1
				c-0.4-1.1,0-1.4-0.5-2.2c-0.7-1.1-1.6-1-2.5-2.3c-0.4-0.5-0.6-1-0.7-1.4c-0.5-1.4-0.8-3.6,0-4.1c0.8-0.5,2.9,1.2,4,2.6
				c0.6,0.8,0.7,1.2,1.2,1.3c1.1,0.1,2.1-2.8,2.5-3.9c0.7-2,1.3-3.7,0.7-5.1c-0.1-0.2-0.3-0.6-0.2-1.1c0.2-0.6,1-0.7,1.5-1.1
				c1.7-1.2-0.8-5.2,1.1-7.8c0.1-0.2,0.8-0.8,2-1.9c1.1-1,1.7-1.6,2-1.8c1.6-0.9,3.3-0.6,4.3-0.4c0.9,0.2,2.8,0.5,4.5,2.2
				c0.4,0.4,2.3,2.4,2,4.9c-0.2,2-1.7,2.1-2.8,5.1c-0.6,1.5-1.1,3.7-0.4,4.1c0.5,0.3,1.7-0.6,2.9-1.6c0.8-0.6,1.2-1,1.6-1.5
				c0.8-1.2,0.4-2,1.2-3.1c0.3-0.4,0.4-0.3,1.7-1.3c2.1-1.5,3.1-2.3,3.1-3.1c0-0.8-0.7-1.1-0.6-1.9c0.1-0.8,0.9-1.6,1.7-1.6
				c0.5,0,0.6,0.4,1.1,0.5c1.1,0.1,2.1-1.8,2.3-2.2c0.4-0.8,1.3-2.4,0.9-3.8c-0.1-0.2-0.2-0.5,0-0.7c0.2-0.3,0.9-0.2,1.2,0.2
				c0.1,0.2,0.2,0.4-0.1,1.8c-0.4,1.7-0.6,2.5-0.7,2.8c-0.1,0.1-0.3,0.5-0.1,0.6c0.2,0.2,0.8-0.3,1.2-0.1c0.3,0.2,0.1,0.6,0.4,0.8
				c0.4,0.2,0.8-0.2,1.1,0c0.3,0.2-0.1,0.7,0.2,1.2c0.3,0.4,0.7,0.3,0.9,0.6c0.4,0.7-0.7,2.4-1.9,2.5c-0.5,0-0.9-0.2-1.4,0
				c-0.3,0.1-0.3,0.3-0.5,0.5c-0.5,0.4-1.2,0.3-1.6,0.4c-1,0.2-1.5,1.6-1.9,2.6c-1.4,3.2-4,5.4-4.5,5.8c-1.3,1.1-2.2,1.5-3,2.9
				c-0.4,0.8-0.4,1.1-0.8,1.9c-0.8,1.5-2,2.3-2.5,2.7c-3.2,2.4-4.6,7.6-4.9,10.6c-0.2,2.1,0.1,3.6,0.2,4c0.4,1.8,0.9,2.6,1.6,4
				c2.2,4.8,1.8,8.8,2.7,8.8c0.3,0,0.5-0.3,0.9-1c0.9-1.4,0.7-2.1,1.3-3.5c0.6-1.3,1.3-2.1,2.1-2.9c0.8-0.8,1.2-1.3,2-1.5
				c0.8-0.2,1.4,0,1.5-0.2c0.1-0.2-0.4-0.6-0.7-0.9c-1.1-1.1-1.1-2.7-1.2-3.2c-0.1-1.6,0.8-1.8,1.5-4.9c0.3-1.1,0.1-0.9,0.3-1.8
				c0.3-1,0.8-3.3,2.8-5.1c0.5-0.5,1.8-1.7,3.9-2c0.5-0.1,2.7-0.4,4.8,0.8c0,0,3.5,2.1,4,7c0,0.4,0.1,0.6,0.2,1
				c0.2,1,0.4,1.3,0.5,1.5c0.2,0.3,0.4,0.6,0.6,0.6c0.7,0.1,1.5-1.3,1.8-2.6c0.1-0.4,0.2-0.8,0.2-2.5c0-2.3-0.1-2.6,0-3.6
				c0.1-1.2,0.3-1.4,1-3.8c0.6-2,0.8-3.6,1.1-5.1c0.5-2.6,0.6-4.1,0.7-4.7c0.1-1,0.1-1.6,0.1-2.4c0-1.3-0.2-1.6-0.4-3.7
				c-0.2-2,0-1.7-0.2-2.7c-0.2-1.3-0.5-2.2-0.1-2.5c0.2-0.2,0.5-0.2,0.6-0.1c0.2,0.1,0.1,0.4,0.1,0.8c0,0.8,0.2,1.4,0.4,2.1
				c0.1,0.3,0.1,0.4,0.3,0.4c0.3,0.1,0.6-0.3,1.3-0.6c0.3-0.2,1.2-0.6,1.5-0.4c0.3,0.2,0.1,0.8,0.4,0.9c0.2,0.1,0.5-0.2,0.6,0
				c0.2,0.1-0.1,0.4,0.1,0.7c0.2,0.3,0.9,0.1,1.1,0.4c0.2,0.3-0.2,0.8-0.3,1c-0.4,0.5-0.7,0.5-0.9,1c-0.2,0.4-0.1,0.8-0.1,1
				c0.1,1.2-0.6,2.3-1,3c-1,2.1,0.2,3.9-0.3,8.2c-0.2,2.3-0.6,1.8-1,4.8c-0.5,3.4,0,3.7-0.4,7.2c-0.4,3.4-1.2,6.4-1.3,6.8
				c0,0.1-0.6,2.2-1.2,4.8c-0.4,1.8-0.6,2.8,0,3.9c0.2,0.5,0.5,0.7,0.9,1.6c0.4,1.1,0.3,1.4,0.6,1.9c0.5,0.7,1,0.5,2.4,1.2
				c1.7,0.8,1.7,1.5,2.8,1.6c0.8,0.1,1.2-0.2,2.4-0.6c1.2-0.4,3.3-1.1,4.7-0.5c2.2,0.9,1.9,4.3,3.5,4.5c0.1,0,0.2,0,2.3-1
				c1.6-0.7,1.7-0.8,1.9-0.8c1.5-0.2,2.4,0.8,2.9,0.5c0.7-0.5-0.5-3.4-1-4.8c-1.3-3.2-2-6.6-3.2-9.9c0,0-0.3-0.7-3.8-10.2
				c-3.1-8.2-4.6-12.4-4.9-14.1c-1.5-7.2-0.7-11.2-3.1-14.5c-0.7-0.9-1.9-2.3-2.2-4.4c-0.1-1.2,0.2-2.1-0.4-3.5
				c-0.8-2-0.8-2.1-0.8-2.1c-0.3-0.5-0.5-0.9-0.4-1.1c0.2-0.3,0.9,0.2,1.4-0.1c0.5-0.3,0.3-0.9,0.7-1.1c0.4-0.2,0.7,0.2,1.2,0
				c0.5-0.2,0.4-1,0.8-1.2c0.7-0.3,1.9,1.6,2.7,1.4c0.6-0.2,0.6-1.6,0.6-3.1c0-1.4,0-2.1-0.1-2.8c-0.1-0.4-0.3-0.8-0.1-1.4
				c0.1-0.4,0.3-1,0.6-1C860.1,186.5,860.4,187.4,860.5,187.7z"/>
			<rect x="797.5" y="269.9" class="st4" width="243.5" height="21.5"/>
		</g>
		<g>
			<path class="st4" d="M537.7,187.7c0.4,1.2,0.3,2.2,0.3,2.3c-0.2,1.7,0.4,1.9,0.7,5.1c0.1,1.6,0.3,3.9-0.3,6.7
				c-0.3,1.5-0.6,1.7-0.6,2.7c-0.1,1.7,0.6,2.6,1.4,4.9c1.4,3.6,0.8,3.6,1.9,5.7c1.3,2.5,2,2.2,3,4.5c0.3,0.8,0.3,0.9,1.4,5.1
				c0.7,2.5,1,3.8,1.3,4.4c1,2.5,1.7,2.3,3.2,5c1.7,3,1.6,4.6,3.5,7.3c0.9,1.3,1.6,1.8,2.3,2c0.8,0.3,1.2,0,2.2,0.5
				c0.7,0.3,0.8,0.6,1.6,0.9c0.5,0.2,1.2,0.4,1.6,0.2c1.3-0.6,1-5.4-1-6.5c-0.6-0.3-1,0-1.6-0.5c-1.1-0.9-1.2-3.1-0.3-3.9
				c0.4-0.3,0.8-0.2,1-0.5c0.5-0.7-0.6-1.8-1-3.2c-0.6-2.3,1-4.6,1.5-5.2c2.1-2.7,5.4-2.8,5.9-2.8c0.7,0,2.5,0,4.2,1.3
				c1.4,1.1,2,2.5,2.4,3.6c0.3,0.7,0.5,1.3,0.6,2.2c0.2,2.1-0.9,3.5-0.4,3.9c0.4,0.4,1.3-0.6,2-0.3c1,0.5,1,3.7-0.4,4.5
				c-0.5,0.3-0.8,0-1.4,0.3c-1.4,0.7-2.2,3.9-0.7,5.9c0.6,0.8,1.7,1.5,2.9,1.4c1-0.1,1.2-0.8,3-2.2c1.8-1.4,2.4-1.2,3.1-2.1
				c1-1.2,0.7-2.5,0.9-4.2c0.4-3.4,2.1-3.6,4.8-9.4c0.2-0.3,0.9-2.2,2.3-5.8c1.7-4.5,2.6-6.7,3-7.9c1.9-5.3,2.8-7.9,3-10.3
				c0.3-2.8-0.1-4.3,0.5-8.4c0.2-1.5,0.3-1.6,0.6-3.9c0.1-1.1,0.4-2.1,0.8-4.2c0.3-1.3,0.4-2,0.9-2.1c0.4-0.1,0.9,0.2,1.1,0.6
				c0.2,0.4-0.2,0.9-0.2,1.1c-1.1,1.8-0.9,6.3,0.1,6.6c0.6,0.2,1-1.1,2-1.1c1.5,0,3,2.8,3.4,5c0.1,0.7,0.4,2.8-0.7,4.7
				c-0.8,1.4-1.6,1.5-2.6,2.7c-1.5,1.8-1.4,4-1.5,5.8c-0.4,7.2-3.5,14-5,17.3c-0.6,1.3-1.1,2.3-1.7,4.2c-1,3.1-0.8,4.2-1.5,7.5
				c-1.1,5.1-1.6,7.6-3.5,10.2c-1,1.4-2.4,2.9-2.2,5c0,0.4,0.1,1.3,0.9,1.9c0.9,0.7,1.8,0.1,3.1,0.2c3.2,0.3,4.5,4.6,5.9,4.1
				c0.7-0.2,0.3-1.2,1.2-2.8c1.3-2.3,3.1-2,4-3.6c1-1.8-0.8-3-1-7.1c-0.1-1.6-0.3-4.7,1.7-7.3c1.3-1.6,4-3.5,6-2.8
				c3.1,1.1,3.2,7.2,4.3,7.1c0.5,0,0.5-1.1,1.5-4.2c1.2-3.3,1.7-3.5,1.8-5.2c0.1-1.7-0.5-2.2,0-3.3c0.4-0.8,1.2-2,1.7-2.5
				c0.4-0.5,0.4-0.4,0.5-0.6c0.9-1.4,0.4-2.7,1-3c0.3-0.1,0.7,0,0.8,0.2c0.2,0.3-0.2,0.7-0.6,1.6c-0.1,0.2-0.5,1.4-0.2,1.6
				c0.2,0.1,0.5-0.1,0.6-0.2c0.6-0.4,0.7-0.9,1.1-1.7c0.5-1.1,0.9-1.8,1.4-1.9c0.4,0,0.5,0.4,0.9,0.3c0.4-0.1,0.4-0.7,0.9-0.8
				c0.3-0.1,0.7,0.1,0.8,0.4c0.1,0.2-0.2,0.4-0.4,0.7c-0.5,0.6-0.3,0.7-0.9,1.9c-0.6,1.2-1,1.5-0.9,1.6c0.2,0.2,1-0.1,1.5-0.8
				c0.2-0.2,0.1-0.3,0.3-0.7c0.2-0.4,0.8-1.6,1.3-1.5c0.2,0,0.4,0.3,0.4,0.5c0,0.3-0.2,0.4-0.5,0.7c-0.4,0.4-0.3,0.7-0.6,1.2
				c-0.3,0.6-0.4,0.5-1.6,2.1c-0.7,0.9-0.9,1.2-0.8,1.7c0,0.1,0.1,0.5,0.3,0.6c0.5,0.2,1-0.5,2.2-0.7c0.1,0,1.1-0.2,1.3,0.2
				c0.1,0.2-0.2,0.6-0.2,0.6c-0.3,0.4-0.7,0.3-1.2,0.5c-0.8,0.3-0.7,0.6-1.6,1.1c-0.5,0.3-0.7,0.2-1.6,0.5c-1.2,0.3-1.8,0.5-2.2,0.9
				c-0.6,0.5-0.6,1-1.1,3.1c-0.6,2.3-0.7,2-0.9,2.9c-0.4,2,0.2,2.3,0.1,4.5c-0.1,3.5-1.6,5.4-0.6,6.3c0.3,0.3,0.6,0.3,1,0.3
				c1.9,0.3,3.3,2.1,5.5,5.5c3.1,4.8,4.4,7.2,5.1,7c0.3-0.1,0.4-0.5,0.5-0.8c0.1-0.7-0.6-1.3-1-1.7c-1.2-1.3-1.1-3.2-1.1-5.5
				c0.1-1.7,0.1-2.7,0.8-3.8c1.1-1.8,3-2.4,3.5-2.5c0.6-0.2,1.9-0.6,3.4,0c1.4,0.5,2.8,1.9,3.1,3.4c0.2,1.1-0.1,2.8,0.2,3.8
				c0,0,0.3,0.9,0.3,0.9c0.4-0.2,0.6-0.1,0.8-0.1c0.6,0.4,0,2.8-1.1,3.1c-0.3,0.1-0.5-0.1-0.8,0.1c-0.5,0.2-0.6,0.9-0.7,1.7
				c-0.3,2.6-0.4,3.8,0.1,4c0.3,0.1,0.6-0.1,0.9-0.3c0.8-0.6,1-1.5,1.2-2c0.2-0.6,1.1-1.7,2.8-3.7c1.8-2.2,1.8-1.9,2.4-2.8
				c1.1-1.7,1.5-3.3,1.7-4.1c0.5-2.3,0.8-3.6,0.1-4.6c-1.2-1.7-4.3-0.9-4.8-2.2c-0.3-0.9,1-1.6,0.7-2.7c-0.3-1-1.9-1.3-3.2-1.7
				c-3.4-1.1-6.8-3.8-8-6.8c-0.5-1.2-0.5-2.9-0.5-6.2c0-0.7,0-0.7,0.2-5.4c0.2-4.9,0.2-5.3-0.1-6c-0.6-1.1-1.5-1.9-1.6-3.6
				c0-0.5,0.1-0.4,0.2-1.3c0.2-2.5-0.5-3.6,0.1-4.2c0.5-0.4,1.2,0,1.6-0.6c0.3-0.5-0.1-1,0.2-1.3c0.3-0.3,1.1,0.2,1.3,0
				c0.2-0.2,0-0.5,0-1.2c0-0.3,0-1,0.3-1.1c0.2-0.1,0.5,0.2,0.6,0.4c0.1,0.3,0.1,0.6,0,0.9c-0.1,0.6,0,0.4,0,1.7
				c-0.1,1.1-0.2,1.3,0,1.6c0.2,0.3,0.7,0.4,0.9,0.2c0.3-0.2,0.2-0.7,0.1-1.5c0-1-0.1-2.6,0.6-2.9c0.3-0.1,0.7-0.1,0.8,0.1
				c0.1,0.1,0,0.3,0,0.5c-0.1,0.4,0,0.6,0,1.2c0,0.3-0.1,1-0.3,2.2c-0.2,1.3-0.2,1.5-0.2,1.8c0,0.2,0.2,1.5,0.7,1.6
				c0.1,0,0.2,0,1-0.6c0.6-0.5,0.7-0.7,1.2-1c0.5-0.4,0.7-0.5,1-0.5c0.3,0,0.7,0.1,0.8,0.3c0,0.2-0.3,0.3-0.7,0.7
				c-0.3,0.3-0.4,0.5-0.9,1.1c-0.6,0.8-0.9,1.2-1.3,1.6c-0.8,0.7-1.2,0.6-1.8,1.1c-0.7,0.6-0.8,1.6-0.9,2.6
				c-0.2,3.1-0.5,6.5,1.4,10.1c0.8,1.5,1.6,2.4,1.7,4c0,0.8-0.1,1.5,0.4,2c0.5,0.5,1.1,0.3,2.1,0.5c2.5,0.3,3.7,2.1,4.2,1.7
				c0.3-0.3,0.1-1.1-0.4-1.7c-0.5-0.7-1-0.5-2.2-1.2c-1.2-0.7-1.7-1.6-2.2-2.4c-0.2-0.4-0.4-0.7-0.2-0.8c0.2-0.2,0.8,0,1.2,0.1
				c0.9,0.3,1,0.5,1.3,0.5c0.5-0.1,0.8-1.1,0.8-1.8c0.1-1.3-0.7-2.5-0.9-2.8c-0.4-0.5-0.8-0.9-0.8-1.6c0-0.3,0-0.7,0.2-0.7
				c0.2-0.1,0.4,0.2,0.7,0.5c1,1.3,1.4,2.4,1.5,2.4c0.1,0-0.1-0.5,0-1.3c0.1-0.6,0.2-0.7,0.1-1.1c-0.1-0.4-0.3-0.4-0.5-1
				c-0.1-0.2-0.4-0.8-0.2-1c0.1-0.1,0.5,0,0.8,0.2c0.2,0.2,0.2,0.3,0.5,1.1c0.3,0.8,0.3,0.8,0.3,0.8c0.1,0,0.3-1.2,0-2.1
				c0-0.1-0.1-0.4,0-0.5c0.1-0.1,0.3-0.1,0.5-0.1c0.3,0.1,0.4,0.5,0.5,1c0.3,1.3,0.5,1.9,0.5,1.9c0.1,0-0.4-1.6,0.1-1.8
				c0.2-0.1,0.6,0.1,0.8,0.4c0.3,0.4,0,0.9-0.1,1.9c-0.1,0.5,0,1,0,1.4c0.1,1.8,0.8,2.2,0.9,4.1c0.1,0.8-0.1,0.8,0.1,1.3
				c0.3,1,0.9,1.2,1.1,2.2c0,0.5-0.1,0.4-0.1,1.1c0,0.5,0,1.2,0.4,1.6c0.4,0.5,1.2,0.2,2.3,0.3c2.2,0.1,3,1.4,6,1.8
				c0.3,0,0.7,0.1,1-0.2c0.6-0.5,0.2-2-0.3-3c-0.9-1.8-1.9-1.8-2.2-3.2c-0.1-0.8,0.1-1.6-0.3-1.8c-0.3-0.1-0.5,0.2-0.9,0.2
				c-1.2-0.1-2.1-3.6-1.3-4.2c0.4-0.3,1,0.2,1.2-0.1c0.4-0.4-0.9-1.6-1.3-3.1c-0.5-2.1,0.8-5,3.2-6.5c0.2-0.1,3-1.7,5.9-0.5
				c0.3,0.1,2.3,1,3.2,2.9c1.1,2.5-0.2,5.3,1,5.9c0.5,0.3,1-0.1,1.3,0.2c0.5,0.6-0.9,1.7-1.4,3.9c-0.5,2-0.1,3.7,0.2,4.5
				c0.2,1,0.4,1.7,1.1,2.4c1,1.2,2.5,1.3,3.2,1.4c2.2,0.2,3.6-0.6,5.9-1.4c5.5-2,8.1-1.1,8.6-2.7c0.4-1.1-1-1.8-2.8-4.8
				c-1.9-3.2-2.6-6.2-2.8-7.5c0,0-0.7-3.3-0.7-9c0-1.1,0-1.9,0-1.9c0-1,0.1-1.4,0.1-1.6c0-0.6,0.1-0.7,0-1c-0.1-0.7-0.5-1.1-0.6-1.4
				c-0.1-0.2-1.5-2.1-1.3-3.6c0.2-1.4,1.9-2.6,2.6-2.3c0.4,0.2,0.5,0.8,0.7,0.8c0.2,0,0.2-0.5,0.2-1c0-0.3-0.1-0.7-0.8-2
				c-0.4-0.7-0.5-0.9-0.4-1c0.1-0.2,0.5-0.1,0.8,0.1c0.3,0.2,0.5,0.6,0.5,0.8c0.5,1.6,0.8,2.5,1.3,2.8c0.4,0.2,0.7,0.1,0.8,0.4
				c0.2,0.4-0.2,0.8-0.1,1.4c0.1,0.4,0.2,0.4,0.5,1c0.3,0.6,0.5,1.1,0.4,1.6c-0.1,0.7-0.7,0.8-1,1.7c0,0.2-0.1,0.4-0.1,0.6
				c-0.1,2.6,1,8.8,0.8,10.9c0,0.1-0.1,0.7,0.1,0.7c0.1,0,0.4-0.4,0.5-0.6c0.5-0.9,1.3-1.2,2.7-2.2c1-0.7,2-1.4,2.9-2.5
				c1-1.2,0.8-1.4,1.8-2.3c0.7-0.7,1.8-1.8,3.4-2c1.5-0.1,2.6,0.6,3.7,1.3c0.6,0.4,2.3,1.6,3.4,3.9c1,2.2,0.3,2.7,1.5,5.2
				c0.8,1.7,1.8,2.8,2.3,3.4c1,1.2,1.6,1.8,2.6,2.3c1.9,0.9,3.9,0.6,4.7,0.1c0.2-0.1,0.3-0.3,0.4-0.4c0.2-0.6-0.4-1.3-0.9-1.9
				c-1.4-1.8-0.8-1.9-2.2-3.6c-0.3-0.4-0.1,0-2.3-2.4c-1-1-1.1-1.2-1.5-1.5c-0.7-0.5-0.9-0.6-1.2-1.1c-0.5-0.7-0.4-1.7-0.2-1.8
				c0.1-0.1,0.4,0.2,0.4,0.2c0.3,0.3,0.2,0.6,0.5,0.9c0.2,0.2,0.5,0.5,0.8,0.4c0.4-0.1,0.5-1.1,0.2-1.9c-0.1-0.2-0.4-1.3-1.2-1.6
				c-0.1-0.1-0.3-0.1-0.4-0.2c-0.2-0.3,0-0.9,0.3-1.1c0.1-0.1,0.4,0,0.9,0.2c0.5,0.2,0.6,0.3,0.8,0.3c0.3,0,0.4-0.2,0.7-0.3
				c0.7-0.2,1.7,0.5,1.9,1.3c0,0.2,0,0.4,0,0.4c-0.1,0.9,0,1.8-0.1,2.6c0,1.6,3,3.4,6.3,6.3c3.8,3.5,3.7,4.7,3.6,5.1
				c-0.1,0.5-0.4,0.6-2.1,2.2c-2.8,2.5-2.9,3-4,3.4c-1.6,0.6-1.9-0.3-3.5,0.3c-2,0.8-3.3,3-3.7,4.7c-0.3,1.2,0.1,1.2-0.2,3.1
				c-0.2,1.7-0.6,2.4-1,3.9c-0.3,1.1-1.5,5.6-0.2,6.3c0.5,0.3,1-0.2,3.9-1.7c3.6-1.9,4.5-2,5.1-2.1c0.7-0.1,2.9-0.3,4.2,1
				c0.6,0.5,1.1,1.4,1.2,4.8c0.1,2.5,0.1,3.7-0.2,5.8c-1.7,9.3,4.2,27.7-0.5,30c-0.6,0.3-1.2,0.2-2.4,0c-5.4-0.8-10.9-0.1-16.3-0.4
				c-9.5-0.4-30.6-0.3-37.4-0.3c-52,0.1-65.5-2.7-106.8-1.3c-38.8,1.3-77.4,5.4-79.1-2.1c-0.1-0.4,0-0.3,0.5-3.3
				c0.2-1.6,1.3-8.8,1.3-16.9c0-5.6-0.5-4.7-0.3-8.8c0.3-5.5,0.4-8.3,1.4-11.6c0.9-3.2,2.1-5.3,1-7c-0.7-1-1.9-1.4-2.4-3.1
				c-0.4-1.1,0-1.4-0.5-2.2c-0.7-1.1-1.6-1-2.5-2.3c-0.4-0.5-0.6-1-0.7-1.4c-0.5-1.4-0.8-3.6,0-4.1c0.8-0.5,2.9,1.2,4,2.6
				c0.6,0.8,0.7,1.2,1.2,1.3c1.1,0.1,2.1-2.8,2.5-3.9c0.7-2,1.3-3.7,0.7-5.1c-0.1-0.2-0.3-0.6-0.2-1.1c0.2-0.6,1-0.7,1.5-1.1
				c1.7-1.2-0.8-5.2,1.1-7.8c0.1-0.2,0.8-0.8,2-1.9c1.1-1,1.7-1.6,2-1.8c1.6-0.9,3.3-0.6,4.3-0.4c0.9,0.2,2.8,0.5,4.5,2.2
				c0.4,0.4,2.3,2.4,2,4.9c-0.2,2-1.7,2.1-2.8,5.1c-0.6,1.5-1.1,3.7-0.4,4.1c0.5,0.3,1.7-0.6,2.9-1.6c0.8-0.6,1.2-1,1.6-1.5
				c0.8-1.2,0.4-2,1.2-3.1c0.3-0.4,0.4-0.3,1.7-1.3c2.1-1.5,3.1-2.3,3.1-3.1c0-0.8-0.7-1.1-0.6-1.9c0.1-0.8,0.9-1.6,1.7-1.6
				c0.5,0,0.6,0.4,1.1,0.5c1.1,0.1,2.1-1.8,2.3-2.2c0.4-0.8,1.3-2.4,0.9-3.8c-0.1-0.2-0.2-0.5,0-0.7c0.2-0.3,0.9-0.2,1.2,0.2
				c0.1,0.2,0.2,0.4-0.1,1.8c-0.4,1.7-0.6,2.5-0.7,2.8c-0.1,0.1-0.3,0.5-0.1,0.6c0.2,0.2,0.8-0.3,1.2-0.1c0.3,0.2,0.1,0.6,0.4,0.8
				c0.4,0.2,0.8-0.2,1.1,0c0.3,0.2-0.1,0.7,0.2,1.2c0.3,0.4,0.7,0.3,0.9,0.6c0.4,0.7-0.7,2.4-1.9,2.5c-0.5,0-0.9-0.2-1.4,0
				c-0.3,0.1-0.3,0.3-0.5,0.5c-0.5,0.4-1.2,0.3-1.6,0.4c-1,0.2-1.5,1.6-1.9,2.6c-1.4,3.2-4,5.4-4.5,5.8c-1.3,1.1-2.2,1.5-3,2.9
				c-0.4,0.8-0.4,1.1-0.8,1.9c-0.8,1.5-2,2.3-2.5,2.7c-3.2,2.4-4.6,7.6-4.9,10.6c-0.2,2.1,0.1,3.6,0.2,4c0.4,1.8,0.9,2.6,1.6,4
				c2.2,4.8,1.8,8.8,2.7,8.8c0.3,0,0.5-0.3,0.9-1c0.9-1.4,0.7-2.1,1.3-3.5c0.6-1.3,1.3-2.1,2.1-2.9c0.8-0.8,1.2-1.3,2-1.5
				c0.8-0.2,1.4,0,1.5-0.2c0.1-0.2-0.4-0.6-0.7-0.9c-1.1-1.1-1.1-2.7-1.2-3.2c-0.1-1.6,0.8-1.8,1.5-4.9c0.3-1.1,0.1-0.9,0.3-1.8
				c0.3-1,0.8-3.3,2.8-5.1c0.5-0.5,1.8-1.7,3.9-2c0.5-0.1,2.7-0.4,4.8,0.8c0,0,3.5,2.1,4,7c0,0.4,0.1,0.6,0.2,1
				c0.2,1,0.4,1.3,0.5,1.5c0.2,0.3,0.4,0.6,0.6,0.6c0.7,0.1,1.5-1.3,1.8-2.6c0.1-0.4,0.2-0.8,0.2-2.5c0-2.3-0.1-2.6,0-3.6
				c0.1-1.2,0.3-1.4,1-3.8c0.6-2,0.8-3.6,1.1-5.1c0.5-2.6,0.6-4.1,0.7-4.7c0.1-1,0.1-1.6,0.1-2.4c0-1.3-0.2-1.6-0.4-3.7
				c-0.2-2,0-1.7-0.2-2.7c-0.2-1.3-0.5-2.2-0.1-2.5c0.2-0.2,0.5-0.2,0.6-0.1c0.2,0.1,0.1,0.4,0.1,0.8c0,0.8,0.2,1.4,0.4,2.1
				c0.1,0.3,0.1,0.4,0.3,0.4c0.3,0.1,0.6-0.3,1.3-0.6c0.3-0.2,1.2-0.6,1.5-0.4c0.3,0.2,0.1,0.8,0.4,0.9c0.2,0.1,0.5-0.2,0.6,0
				c0.2,0.1-0.1,0.4,0.1,0.7c0.2,0.3,0.9,0.1,1.1,0.4c0.2,0.3-0.2,0.8-0.3,1c-0.4,0.5-0.7,0.5-0.9,1c-0.2,0.4-0.1,0.8-0.1,1
				c0.1,1.2-0.6,2.3-1,3c-1,2.1,0.2,3.9-0.3,8.2c-0.2,2.3-0.6,1.8-1,4.8c-0.5,3.4,0,3.7-0.4,7.2c-0.4,3.4-1.2,6.4-1.3,6.8
				c0,0.1-0.6,2.2-1.2,4.8c-0.4,1.8-0.6,2.8,0,3.9c0.2,0.5,0.5,0.7,0.9,1.6c0.4,1.1,0.3,1.4,0.6,1.9c0.5,0.7,1,0.5,2.4,1.2
				c1.7,0.8,1.7,1.5,2.8,1.6c0.8,0.1,1.2-0.2,2.4-0.6c1.2-0.4,3.3-1.1,4.7-0.5c2.2,0.9,1.9,4.3,3.5,4.5c0.1,0,0.2,0,2.3-1
				c1.6-0.7,1.7-0.8,1.9-0.8c1.5-0.2,2.4,0.8,2.9,0.5c0.7-0.5-0.5-3.4-1-4.8c-1.3-3.2-2-6.6-3.2-9.9c0,0-0.3-0.7-3.8-10.2
				c-3.1-8.2-4.6-12.4-4.9-14.1c-1.5-7.2-0.7-11.2-3.1-14.5c-0.7-0.9-1.9-2.3-2.2-4.4c-0.1-1.2,0.2-2.1-0.4-3.5
				c-0.8-2-0.8-2.1-0.8-2.1c-0.3-0.5-0.5-0.9-0.4-1.1c0.2-0.3,0.9,0.2,1.4-0.1c0.5-0.3,0.3-0.9,0.7-1.1c0.4-0.2,0.7,0.2,1.2,0
				c0.5-0.2,0.4-1,0.8-1.2c0.7-0.3,1.9,1.6,2.7,1.4c0.6-0.2,0.6-1.6,0.6-3.1c0-1.4,0-2.1-0.1-2.8c-0.1-0.4-0.3-0.8-0.1-1.4
				c0.1-0.4,0.3-1,0.6-1C537.3,186.5,537.6,187.4,537.7,187.7z"/>
			<rect x="474.8" y="269.9" class="st4" width="243.5" height="21.5"/>
		</g>
		<g>
			<path class="st4" d="M740.1,187.7c0.4,1.2,0.3,2.2,0.3,2.3c-0.2,1.7,0.4,1.9,0.7,5.1c0.1,1.6,0.3,3.9-0.3,6.7
				c-0.3,1.5-0.6,1.7-0.6,2.7c-0.1,1.7,0.6,2.6,1.4,4.9c1.4,3.6,0.8,3.6,1.9,5.7c1.3,2.5,2,2.2,3,4.5c0.3,0.8,0.3,0.9,1.4,5.1
				c0.7,2.5,1,3.8,1.3,4.4c1,2.5,1.7,2.3,3.2,5c1.7,3,1.6,4.6,3.5,7.3c0.9,1.3,1.6,1.8,2.3,2c0.8,0.3,1.2,0,2.2,0.5
				c0.7,0.3,0.8,0.6,1.6,0.9c0.5,0.2,1.2,0.4,1.6,0.2c1.3-0.6,1-5.4-1-6.5c-0.6-0.3-1,0-1.6-0.5c-1.1-0.9-1.2-3.1-0.3-3.9
				c0.4-0.3,0.8-0.2,1-0.5c0.5-0.7-0.6-1.8-1-3.2c-0.6-2.3,1-4.6,1.5-5.2c2.1-2.7,5.4-2.8,5.9-2.8c0.7,0,2.5,0,4.2,1.3
				c1.4,1.1,2,2.5,2.4,3.6c0.3,0.7,0.5,1.3,0.6,2.2c0.2,2.1-0.9,3.5-0.4,3.9c0.4,0.4,1.3-0.6,2-0.3c1,0.5,1,3.7-0.4,4.5
				c-0.5,0.3-0.8,0-1.4,0.3c-1.4,0.7-2.2,3.9-0.7,5.9c0.6,0.8,1.7,1.5,2.9,1.4c1-0.1,1.2-0.8,3-2.2c1.8-1.4,2.4-1.2,3.1-2.1
				c1-1.2,0.7-2.5,0.9-4.2c0.4-3.4,2.1-3.6,4.8-9.4c0.2-0.3,0.9-2.2,2.3-5.8c1.7-4.5,2.6-6.7,3-7.9c1.9-5.3,2.8-7.9,3-10.3
				c0.3-2.8-0.1-4.3,0.5-8.4c0.2-1.5,0.3-1.6,0.6-3.9c0.1-1.1,0.4-2.1,0.8-4.2c0.3-1.3,0.4-2,0.9-2.1c0.4-0.1,0.9,0.2,1.1,0.6
				c0.2,0.4-0.2,0.9-0.2,1.1c-1.1,1.8-0.9,6.3,0.1,6.6c0.6,0.2,1-1.1,2-1.1c1.5,0,3,2.8,3.4,5c0.1,0.7,0.4,2.8-0.7,4.7
				c-0.8,1.4-1.6,1.5-2.6,2.7c-1.5,1.8-1.4,4-1.5,5.8c-0.4,7.2-3.5,14-5,17.3c-0.6,1.3-1.1,2.3-1.7,4.2c-1,3.1-0.8,4.2-1.5,7.5
				c-1.1,5.1-1.6,7.6-3.5,10.2c-1,1.4-2.4,2.9-2.2,5c0,0.4,0.1,1.3,0.9,1.9c0.9,0.7,1.8,0.1,3.1,0.2c3.2,0.3,4.5,4.6,5.9,4.1
				c0.7-0.2,0.3-1.2,1.2-2.8c1.3-2.3,3.1-2,4-3.6c1-1.8-0.8-3-1-7.1c-0.1-1.6-0.3-4.7,1.7-7.3c1.3-1.6,4-3.5,6-2.8
				c3.1,1.1,3.2,7.2,4.3,7.1c0.5,0,0.5-1.1,1.5-4.2c1.2-3.3,1.7-3.5,1.8-5.2c0.1-1.7-0.5-2.2,0-3.3c0.4-0.8,1.2-2,1.7-2.5
				c0.4-0.5,0.4-0.4,0.5-0.6c0.9-1.4,0.4-2.7,1-3c0.3-0.1,0.7,0,0.8,0.2c0.2,0.3-0.2,0.7-0.6,1.6c-0.1,0.2-0.5,1.4-0.2,1.6
				c0.2,0.1,0.5-0.1,0.6-0.2c0.6-0.4,0.7-0.9,1.1-1.7c0.5-1.1,0.9-1.8,1.4-1.9c0.4,0,0.5,0.4,0.9,0.3c0.4-0.1,0.4-0.7,0.9-0.8
				c0.3-0.1,0.7,0.1,0.8,0.4c0.1,0.2-0.2,0.4-0.4,0.7c-0.5,0.6-0.3,0.7-0.9,1.9c-0.6,1.2-1,1.5-0.9,1.6c0.2,0.2,1-0.1,1.5-0.8
				c0.2-0.2,0.1-0.3,0.3-0.7c0.2-0.4,0.8-1.6,1.3-1.5c0.2,0,0.4,0.3,0.4,0.5c0,0.3-0.2,0.4-0.5,0.7c-0.4,0.4-0.3,0.7-0.6,1.2
				c-0.3,0.6-0.4,0.5-1.6,2.1c-0.7,0.9-0.9,1.2-0.8,1.7c0,0.1,0.1,0.5,0.3,0.6c0.5,0.2,1-0.5,2.2-0.7c0.1,0,1.1-0.2,1.3,0.2
				c0.1,0.2-0.2,0.6-0.2,0.6c-0.3,0.4-0.7,0.3-1.2,0.5c-0.8,0.3-0.7,0.6-1.6,1.1c-0.5,0.3-0.7,0.2-1.6,0.5c-1.2,0.3-1.8,0.5-2.2,0.9
				c-0.6,0.5-0.6,1-1.1,3.1c-0.6,2.3-0.7,2-0.9,2.9c-0.4,2,0.2,2.3,0.1,4.5c-0.1,3.5-1.6,5.4-0.6,6.3c0.3,0.3,0.6,0.3,1,0.3
				c1.9,0.3,3.3,2.1,5.5,5.5c3.1,4.8,4.4,7.2,5.1,7c0.3-0.1,0.4-0.5,0.5-0.8c0.1-0.7-0.6-1.3-1-1.7c-1.2-1.3-1.1-3.2-1.1-5.5
				c0.1-1.7,0.1-2.7,0.8-3.8c1.1-1.8,3-2.4,3.5-2.5c0.6-0.2,1.9-0.6,3.4,0c1.4,0.5,2.8,1.9,3.1,3.4c0.2,1.1-0.1,2.8,0.2,3.8
				c0,0,0.3,0.9,0.3,0.9c0.4-0.2,0.6-0.1,0.8-0.1c0.6,0.4,0,2.8-1.1,3.1c-0.3,0.1-0.5-0.1-0.8,0.1c-0.5,0.2-0.6,0.9-0.7,1.7
				c-0.3,2.6-0.4,3.8,0.1,4c0.3,0.1,0.6-0.1,0.9-0.3c0.8-0.6,1-1.5,1.2-2c0.2-0.6,1.1-1.7,2.8-3.7c1.8-2.2,1.8-1.9,2.4-2.8
				c1.1-1.7,1.5-3.3,1.7-4.1c0.5-2.3,0.8-3.6,0.1-4.6c-1.2-1.7-4.3-0.9-4.8-2.2c-0.3-0.9,1-1.6,0.7-2.7c-0.3-1-1.9-1.3-3.2-1.7
				c-3.4-1.1-6.8-3.8-8-6.8c-0.5-1.2-0.5-2.9-0.5-6.2c0-0.7,0-0.7,0.2-5.4c0.2-4.9,0.2-5.3-0.1-6c-0.6-1.1-1.5-1.9-1.6-3.6
				c0-0.5,0.1-0.4,0.2-1.3c0.2-2.5-0.5-3.6,0.1-4.2c0.5-0.4,1.2,0,1.6-0.6c0.3-0.5-0.1-1,0.2-1.3c0.3-0.3,1.1,0.2,1.3,0
				c0.2-0.2,0-0.5,0-1.2c0-0.3,0-1,0.3-1.1c0.2-0.1,0.5,0.2,0.6,0.4c0.1,0.3,0.1,0.6,0,0.9c-0.1,0.6,0,0.4,0,1.7
				c-0.1,1.1-0.2,1.3,0,1.6c0.2,0.3,0.7,0.4,0.9,0.2c0.3-0.2,0.2-0.7,0.1-1.5c0-1-0.1-2.6,0.6-2.9c0.3-0.1,0.7-0.1,0.8,0.1
				c0.1,0.1,0,0.3,0,0.5c-0.1,0.4,0,0.6,0,1.2c0,0.3-0.1,1-0.3,2.2c-0.2,1.3-0.2,1.5-0.2,1.8c0,0.2,0.2,1.5,0.7,1.6
				c0.1,0,0.2,0,1-0.6c0.6-0.5,0.7-0.7,1.2-1c0.5-0.4,0.7-0.5,1-0.5c0.3,0,0.7,0.1,0.8,0.3c0,0.2-0.3,0.3-0.7,0.7
				c-0.3,0.3-0.4,0.5-0.9,1.1c-0.6,0.8-0.9,1.2-1.3,1.6c-0.8,0.7-1.2,0.6-1.8,1.1c-0.7,0.6-0.8,1.6-0.9,2.6
				c-0.2,3.1-0.5,6.5,1.4,10.1c0.8,1.5,1.6,2.4,1.7,4c0,0.8-0.1,1.5,0.4,2c0.5,0.5,1.1,0.3,2.1,0.5c2.5,0.3,3.7,2.1,4.2,1.7
				c0.3-0.3,0.1-1.1-0.4-1.7c-0.5-0.7-1-0.5-2.2-1.2c-1.2-0.7-1.7-1.6-2.2-2.4c-0.2-0.4-0.4-0.7-0.2-0.8c0.2-0.2,0.8,0,1.2,0.1
				c0.9,0.3,1,0.5,1.3,0.5c0.5-0.1,0.8-1.1,0.8-1.8c0.1-1.3-0.7-2.5-0.9-2.8c-0.4-0.5-0.8-0.9-0.8-1.6c0-0.3,0-0.7,0.2-0.7
				c0.2-0.1,0.4,0.2,0.7,0.5c1,1.3,1.4,2.4,1.5,2.4c0.1,0-0.1-0.5,0-1.3c0.1-0.6,0.2-0.7,0.1-1.1c-0.1-0.4-0.3-0.4-0.5-1
				c-0.1-0.2-0.4-0.8-0.2-1c0.1-0.1,0.5,0,0.8,0.2c0.2,0.2,0.2,0.3,0.5,1.1c0.3,0.8,0.3,0.8,0.3,0.8c0.1,0,0.3-1.2,0-2.1
				c0-0.1-0.1-0.4,0-0.5c0.1-0.1,0.3-0.1,0.5-0.1c0.3,0.1,0.4,0.5,0.5,1c0.3,1.3,0.5,1.9,0.5,1.9c0.1,0-0.4-1.6,0.1-1.8
				c0.2-0.1,0.6,0.1,0.8,0.4c0.3,0.4,0,0.9-0.1,1.9c-0.1,0.5,0,1,0,1.4c0.1,1.8,0.8,2.2,0.9,4.1c0.1,0.8-0.1,0.8,0.1,1.3
				c0.3,1,0.9,1.2,1.1,2.2c0,0.5-0.1,0.4-0.1,1.1c0,0.5,0,1.2,0.4,1.6c0.4,0.5,1.2,0.2,2.3,0.3c2.2,0.1,3,1.4,6,1.8
				c0.3,0,0.7,0.1,1-0.2c0.6-0.5,0.2-2-0.3-3c-0.9-1.8-1.9-1.8-2.2-3.2c-0.1-0.8,0.1-1.6-0.3-1.8c-0.3-0.1-0.5,0.2-0.9,0.2
				c-1.2-0.1-2.1-3.6-1.3-4.2c0.4-0.3,1,0.2,1.2-0.1c0.4-0.4-0.9-1.6-1.3-3.1c-0.5-2.1,0.8-5,3.2-6.5c0.2-0.1,3-1.7,5.9-0.5
				c0.3,0.1,2.3,1,3.2,2.9c1.1,2.5-0.2,5.3,1,5.9c0.5,0.3,1-0.1,1.3,0.2c0.5,0.6-0.9,1.7-1.4,3.9c-0.5,2-0.1,3.7,0.2,4.5
				c0.2,1,0.4,1.7,1.1,2.4c1,1.2,2.5,1.3,3.2,1.4c2.2,0.2,3.6-0.6,5.9-1.4c5.5-2,8.1-1.1,8.6-2.7c0.4-1.1-1-1.8-2.8-4.8
				c-1.9-3.2-2.6-6.2-2.8-7.5c0,0-0.7-3.3-0.7-9c0-1.1,0-1.9,0-1.9c0-1,0.1-1.4,0.1-1.6c0-0.6,0.1-0.7,0-1c-0.1-0.7-0.5-1.1-0.6-1.4
				c-0.1-0.2-1.5-2.1-1.3-3.6c0.2-1.4,1.9-2.6,2.6-2.3c0.4,0.2,0.5,0.8,0.7,0.8c0.2,0,0.2-0.5,0.2-1c0-0.3-0.1-0.7-0.8-2
				c-0.4-0.7-0.5-0.9-0.4-1c0.1-0.2,0.5-0.1,0.8,0.1c0.3,0.2,0.5,0.6,0.5,0.8c0.5,1.6,0.8,2.5,1.3,2.8c0.4,0.2,0.7,0.1,0.8,0.4
				c0.2,0.4-0.2,0.8-0.1,1.4c0.1,0.4,0.2,0.4,0.5,1c0.3,0.6,0.5,1.1,0.4,1.6c-0.1,0.7-0.7,0.8-1,1.7c0,0.2-0.1,0.4-0.1,0.6
				c-0.1,2.6,1,8.8,0.8,10.9c0,0.1-0.1,0.7,0.1,0.7c0.1,0,0.4-0.4,0.5-0.6c0.5-0.9,1.3-1.2,2.7-2.2c1-0.7,2-1.4,2.9-2.5
				c1-1.2,0.8-1.4,1.8-2.3c0.7-0.7,1.8-1.8,3.4-2c1.5-0.1,2.6,0.6,3.7,1.3c0.6,0.4,2.3,1.6,3.4,3.9c1,2.2,0.3,2.7,1.5,5.2
				c0.8,1.7,1.8,2.8,2.3,3.4c1,1.2,1.6,1.8,2.6,2.3c1.9,0.9,3.9,0.6,4.7,0.1c0.2-0.1,0.3-0.3,0.4-0.4c0.2-0.6-0.4-1.3-0.9-1.9
				c-1.4-1.8-0.8-1.9-2.2-3.6c-0.3-0.4-0.1,0-2.3-2.4c-1-1-1.1-1.2-1.5-1.5c-0.7-0.5-0.9-0.6-1.2-1.1c-0.5-0.7-0.4-1.7-0.2-1.8
				c0.1-0.1,0.4,0.2,0.4,0.2c0.3,0.3,0.2,0.6,0.5,0.9c0.2,0.2,0.5,0.5,0.8,0.4c0.4-0.1,0.5-1.1,0.2-1.9c-0.1-0.2-0.4-1.3-1.2-1.6
				c-0.1-0.1-0.3-0.1-0.4-0.2c-0.2-0.3,0-0.9,0.3-1.1c0.1-0.1,0.4,0,0.9,0.2c0.5,0.2,0.6,0.3,0.8,0.3c0.3,0,0.4-0.2,0.7-0.3
				c0.7-0.2,1.7,0.5,1.9,1.3c0,0.2,0,0.4,0,0.4c-0.1,0.9,0,1.8-0.1,2.6c0,1.6,3,3.4,6.3,6.3c3.8,3.5,3.7,4.7,3.6,5.1
				c-0.1,0.5-0.4,0.6-2.1,2.2c-2.8,2.5-2.9,3-4,3.4c-1.6,0.6-1.9-0.3-3.5,0.3c-2,0.8-3.3,3-3.7,4.7c-0.3,1.2,0.1,1.2-0.2,3.1
				c-0.2,1.7-0.6,2.4-1,3.9c-0.3,1.1-1.5,5.6-0.2,6.3c0.5,0.3,1-0.2,3.9-1.7c3.6-1.9,4.5-2,5.1-2.1c0.7-0.1,2.9-0.3,4.2,1
				c0.6,0.5,1.1,1.4,1.2,4.8c0.1,2.5,0.1,3.7-0.2,5.8c-1.7,9.3,4.2,27.7-0.5,30c-0.6,0.3-1.2,0.2-2.4,0c-5.4-0.8-10.9-0.1-16.3-0.4
				c-9.5-0.4-30.6-0.3-37.4-0.3c-52,0.1-65.5-2.7-106.8-1.3c-38.8,1.3-77.4,5.4-79.1-2.1c-0.1-0.4,0-0.3,0.5-3.3
				c0.2-1.6,1.3-8.8,1.3-16.9c0-5.6-0.5-4.7-0.3-8.8c0.3-5.5,0.4-8.3,1.4-11.6c0.9-3.2,2.1-5.3,1-7c-0.7-1-1.9-1.4-2.4-3.1
				c-0.4-1.1,0-1.4-0.5-2.2c-0.7-1.1-1.6-1-2.5-2.3c-0.4-0.5-0.6-1-0.7-1.4c-0.5-1.4-0.8-3.6,0-4.1c0.8-0.5,2.9,1.2,4,2.6
				c0.6,0.8,0.7,1.2,1.2,1.3c1.1,0.1,2.1-2.8,2.5-3.9c0.7-2,1.3-3.7,0.7-5.1c-0.1-0.2-0.3-0.6-0.2-1.1c0.2-0.6,1-0.7,1.5-1.1
				c1.7-1.2-0.8-5.2,1.1-7.8c0.1-0.2,0.8-0.8,2-1.9c1.1-1,1.7-1.6,2-1.8c1.6-0.9,3.3-0.6,4.3-0.4c0.9,0.2,2.8,0.5,4.5,2.2
				c0.4,0.4,2.3,2.4,2,4.9c-0.2,2-1.7,2.1-2.8,5.1c-0.6,1.5-1.1,3.7-0.4,4.1c0.5,0.3,1.7-0.6,2.9-1.6c0.8-0.6,1.2-1,1.6-1.5
				c0.8-1.2,0.4-2,1.2-3.1c0.3-0.4,0.4-0.3,1.7-1.3c2.1-1.5,3.1-2.3,3.1-3.1c0-0.8-0.7-1.1-0.6-1.9c0.1-0.8,0.9-1.6,1.7-1.6
				c0.5,0,0.6,0.4,1.1,0.5c1.1,0.1,2.1-1.8,2.3-2.2c0.4-0.8,1.3-2.4,0.9-3.8c-0.1-0.2-0.2-0.5,0-0.7c0.2-0.3,0.9-0.2,1.2,0.2
				c0.1,0.2,0.2,0.4-0.1,1.8c-0.4,1.7-0.6,2.5-0.7,2.8c-0.1,0.1-0.3,0.5-0.1,0.6c0.2,0.2,0.8-0.3,1.2-0.1c0.3,0.2,0.1,0.6,0.4,0.8
				c0.4,0.2,0.8-0.2,1.1,0c0.3,0.2-0.1,0.7,0.2,1.2c0.3,0.4,0.7,0.3,0.9,0.6c0.4,0.7-0.7,2.4-1.9,2.5c-0.5,0-0.9-0.2-1.4,0
				c-0.3,0.1-0.3,0.3-0.5,0.5c-0.5,0.4-1.2,0.3-1.6,0.4c-1,0.2-1.5,1.6-1.9,2.6c-1.4,3.2-4,5.4-4.5,5.8c-1.3,1.1-2.2,1.5-3,2.9
				c-0.4,0.8-0.4,1.1-0.8,1.9c-0.8,1.5-2,2.3-2.5,2.7c-3.2,2.4-4.6,7.6-4.9,10.6c-0.2,2.1,0.1,3.6,0.2,4c0.4,1.8,0.9,2.6,1.6,4
				c2.2,4.8,1.8,8.8,2.7,8.8c0.3,0,0.5-0.3,0.9-1c0.9-1.4,0.7-2.1,1.3-3.5c0.6-1.3,1.3-2.1,2.1-2.9c0.8-0.8,1.2-1.3,2-1.5
				c0.8-0.2,1.4,0,1.5-0.2c0.1-0.2-0.4-0.6-0.7-0.9c-1.1-1.1-1.1-2.7-1.2-3.2c-0.1-1.6,0.8-1.8,1.5-4.9c0.3-1.1,0.1-0.9,0.3-1.8
				c0.3-1,0.8-3.3,2.8-5.1c0.5-0.5,1.8-1.7,3.9-2c0.5-0.1,2.7-0.4,4.8,0.8c0,0,3.5,2.1,4,7c0,0.4,0.1,0.6,0.2,1
				c0.2,1,0.4,1.3,0.5,1.5c0.2,0.3,0.4,0.6,0.6,0.6c0.7,0.1,1.5-1.3,1.8-2.6c0.1-0.4,0.2-0.8,0.2-2.5c0-2.3-0.1-2.6,0-3.6
				c0.1-1.2,0.3-1.4,1-3.8c0.6-2,0.8-3.6,1.1-5.1c0.5-2.6,0.6-4.1,0.7-4.7c0.1-1,0.1-1.6,0.1-2.4c0-1.3-0.2-1.6-0.4-3.7
				c-0.2-2,0-1.7-0.2-2.7c-0.2-1.3-0.5-2.2-0.1-2.5c0.2-0.2,0.5-0.2,0.6-0.1c0.2,0.1,0.1,0.4,0.1,0.8c0,0.8,0.2,1.4,0.4,2.1
				c0.1,0.3,0.1,0.4,0.3,0.4c0.3,0.1,0.6-0.3,1.3-0.6c0.3-0.2,1.2-0.6,1.5-0.4c0.3,0.2,0.1,0.8,0.4,0.9c0.2,0.1,0.5-0.2,0.6,0
				c0.2,0.1-0.1,0.4,0.1,0.7c0.2,0.3,0.9,0.1,1.1,0.4c0.2,0.3-0.2,0.8-0.3,1c-0.4,0.5-0.7,0.5-0.9,1c-0.2,0.4-0.1,0.8-0.1,1
				c0.1,1.2-0.6,2.3-1,3c-1,2.1,0.2,3.9-0.3,8.2c-0.2,2.3-0.6,1.8-1,4.8c-0.5,3.4,0,3.7-0.4,7.2c-0.4,3.4-1.2,6.4-1.3,6.8
				c0,0.1-0.6,2.2-1.2,4.8c-0.4,1.8-0.6,2.8,0,3.9c0.2,0.5,0.5,0.7,0.9,1.6c0.4,1.1,0.3,1.4,0.6,1.9c0.5,0.7,1,0.5,2.4,1.2
				c1.7,0.8,1.7,1.5,2.8,1.6c0.8,0.1,1.2-0.2,2.4-0.6c1.2-0.4,3.3-1.1,4.7-0.5c2.2,0.9,1.9,4.3,3.5,4.5c0.1,0,0.2,0,2.3-1
				c1.6-0.7,1.7-0.8,1.9-0.8c1.5-0.2,2.4,0.8,2.9,0.5c0.7-0.5-0.5-3.4-1-4.8c-1.3-3.2-2-6.6-3.2-9.9c0,0-0.3-0.7-3.8-10.2
				c-3.1-8.2-4.6-12.4-4.9-14.1c-1.5-7.2-0.7-11.2-3.1-14.5c-0.7-0.9-1.9-2.3-2.2-4.4c-0.1-1.2,0.2-2.1-0.4-3.5
				c-0.8-2-0.8-2.1-0.8-2.1c-0.3-0.5-0.5-0.9-0.4-1.1c0.2-0.3,0.9,0.2,1.4-0.1c0.5-0.3,0.3-0.9,0.7-1.1c0.4-0.2,0.7,0.2,1.2,0
				c0.5-0.2,0.4-1,0.8-1.2c0.7-0.3,1.9,1.6,2.7,1.4c0.6-0.2,0.6-1.6,0.6-3.1c0-1.4,0-2.1-0.1-2.8c-0.1-0.4-0.3-0.8-0.1-1.4
				c0.1-0.4,0.3-1,0.6-1C739.8,186.5,740,187.4,740.1,187.7z"/>
			<rect x="677.2" y="269.9" class="st4" width="243.5" height="21.5"/>
		</g>
	</g>
	
		<image style="display:none;overflow:visible;" width="1024" height="769" id="cheering_2_" xlink:href="footySupporters.png"  transform="matrix(0.24 0 0 0.24 675.2826 91.5272)">
	</image>
	<g>
		<path class="st4" d="M310.4,182.8c0.4,1.2,0.3,2.2,0.3,2.3c-0.2,1.7,0.4,1.9,0.7,5.1c0.1,1.6,0.3,3.9-0.3,6.7
			c-0.3,1.5-0.6,1.7-0.6,2.7c-0.1,1.7,0.6,2.6,1.4,4.9c1.4,3.6,0.8,3.6,1.9,5.7c1.3,2.5,2,2.2,3,4.5c0.3,0.8,0.3,0.9,1.4,5.1
			c0.7,2.5,1,3.8,1.3,4.4c1,2.5,1.7,2.3,3.2,5c1.7,3,1.6,4.6,3.5,7.3c0.9,1.3,1.6,1.8,2.3,2c0.8,0.3,1.2,0,2.2,0.5
			c0.7,0.3,0.8,0.6,1.6,0.9c0.5,0.2,1.2,0.4,1.6,0.2c1.3-0.6,1-5.4-1-6.5c-0.6-0.3-1,0-1.6-0.5c-1.1-0.9-1.2-3.1-0.3-3.9
			c0.4-0.3,0.8-0.2,1-0.5c0.5-0.7-0.6-1.8-1-3.2c-0.6-2.3,1-4.6,1.5-5.2c2.1-2.7,5.4-2.8,5.9-2.8c0.7,0,2.5,0,4.2,1.3
			c1.4,1.1,2,2.5,2.4,3.6c0.3,0.7,0.5,1.3,0.6,2.2c0.2,2.1-0.9,3.5-0.4,3.9c0.4,0.4,1.3-0.6,2-0.3c1,0.5,1,3.7-0.4,4.5
			c-0.5,0.3-0.8,0-1.4,0.3c-1.4,0.7-2.2,3.9-0.7,5.9c0.6,0.8,1.7,1.5,2.9,1.4c1-0.1,1.2-0.8,3-2.2c1.8-1.4,2.4-1.2,3.1-2.1
			c1-1.2,0.7-2.5,0.9-4.2c0.4-3.4,2.1-3.6,4.8-9.4c0.2-0.3,0.9-2.2,2.3-5.8c1.7-4.5,2.6-6.7,3-7.9c1.9-5.3,2.8-7.9,3-10.3
			c0.3-2.8-0.1-4.3,0.5-8.4c0.2-1.5,0.3-1.6,0.6-3.9c0.1-1.1,0.4-2.1,0.8-4.2c0.3-1.3,0.4-2,0.9-2.1c0.4-0.1,0.9,0.2,1.1,0.6
			c0.2,0.4-0.2,0.9-0.2,1.1c-1.1,1.8-0.9,6.3,0.1,6.6c0.6,0.2,1-1.1,2-1.1c1.5,0,3,2.8,3.4,5c0.1,0.7,0.4,2.8-0.7,4.7
			c-0.8,1.4-1.6,1.5-2.6,2.7c-1.5,1.8-1.4,4-1.5,5.8c-0.4,7.2-3.5,14-5,17.3c-0.6,1.3-1.1,2.3-1.7,4.2c-1,3.1-0.8,4.2-1.5,7.5
			c-1.1,5.1-1.6,7.6-3.5,10.2c-1,1.4-2.4,2.9-2.2,5c0,0.4,0.1,1.3,0.9,1.9c0.9,0.7,1.8,0.1,3.1,0.2c3.2,0.3,4.5,4.6,5.9,4.1
			c0.7-0.2,0.3-1.2,1.2-2.8c1.3-2.3,3.1-2,4-3.6c1-1.8-0.8-3-1-7.1c-0.1-1.6-0.3-4.7,1.7-7.3c1.3-1.6,4-3.5,6-2.8
			c3.1,1.1,3.2,7.2,4.3,7.1c0.5,0,0.5-1.1,1.5-4.2c1.2-3.3,1.7-3.5,1.8-5.2c0.1-1.7-0.5-2.2,0-3.3c0.4-0.8,1.2-2,1.7-2.5
			c0.4-0.5,0.4-0.4,0.5-0.6c0.9-1.4,0.4-2.7,1-3c0.3-0.1,0.7,0,0.8,0.2c0.2,0.3-0.2,0.7-0.6,1.6c-0.1,0.2-0.5,1.4-0.2,1.6
			c0.2,0.1,0.5-0.1,0.6-0.2c0.6-0.4,0.7-0.9,1.1-1.7c0.5-1.1,0.9-1.8,1.4-1.9c0.4,0,0.5,0.4,0.9,0.3c0.4-0.1,0.4-0.7,0.9-0.8
			c0.3-0.1,0.7,0.1,0.8,0.4c0.1,0.2-0.2,0.4-0.4,0.7c-0.5,0.6-0.3,0.7-0.9,1.9c-0.6,1.2-1,1.5-0.9,1.6c0.2,0.2,1-0.1,1.5-0.8
			c0.2-0.2,0.1-0.3,0.3-0.7c0.2-0.4,0.8-1.6,1.3-1.5c0.2,0,0.4,0.3,0.4,0.5c0,0.3-0.2,0.4-0.5,0.7c-0.4,0.4-0.3,0.7-0.6,1.2
			c-0.3,0.6-0.4,0.5-1.6,2.1c-0.7,0.9-0.9,1.2-0.8,1.7c0,0.1,0.1,0.5,0.3,0.6c0.5,0.2,1-0.5,2.2-0.7c0.1,0,1.1-0.2,1.3,0.2
			c0.1,0.2-0.2,0.6-0.2,0.6c-0.3,0.4-0.7,0.3-1.2,0.5c-0.8,0.3-0.7,0.6-1.6,1.1c-0.5,0.3-0.7,0.2-1.6,0.5c-1.2,0.3-1.8,0.5-2.2,0.9
			c-0.6,0.5-0.6,1-1.1,3.1c-0.6,2.3-0.7,2-0.9,2.9c-0.4,2,0.2,2.3,0.1,4.5c-0.1,3.5-1.6,5.4-0.6,6.3c0.3,0.3,0.6,0.3,1,0.3
			c1.9,0.3,3.3,2.1,5.5,5.5c3.1,4.8,4.4,7.2,5.1,7c0.3-0.1,0.4-0.5,0.5-0.8c0.1-0.7-0.6-1.3-1-1.7c-1.2-1.3-1.1-3.2-1.1-5.5
			c0.1-1.7,0.1-2.7,0.8-3.8c1.1-1.8,3-2.4,3.5-2.5c0.6-0.2,1.9-0.6,3.4,0c1.4,0.5,2.8,1.9,3.1,3.4c0.2,1.1-0.1,2.8,0.2,3.8
			c0,0,0.3,0.9,0.3,0.9c0.4-0.2,0.6-0.1,0.8-0.1c0.6,0.4,0,2.8-1.1,3.1c-0.3,0.1-0.5-0.1-0.8,0.1c-0.5,0.2-0.6,0.9-0.7,1.7
			c-0.3,2.6-0.4,3.8,0.1,4c0.3,0.1,0.6-0.1,0.9-0.3c0.8-0.6,1-1.5,1.2-2c0.2-0.6,1.1-1.7,2.8-3.7c1.8-2.2,1.8-1.9,2.4-2.8
			c1.1-1.7,1.5-3.3,1.7-4.1c0.5-2.3,0.8-3.6,0.1-4.6c-1.2-1.7-4.3-0.9-4.8-2.2c-0.3-0.9,1-1.6,0.7-2.7c-0.3-1-1.9-1.3-3.2-1.7
			c-3.4-1.1-6.8-3.8-8-6.8c-0.5-1.2-0.5-2.9-0.5-6.2c0-0.7,0-0.7,0.2-5.4c0.2-4.9,0.2-5.3-0.1-6c-0.6-1.1-1.5-1.9-1.6-3.6
			c0-0.5,0.1-0.4,0.2-1.3c0.2-2.5-0.5-3.6,0.1-4.2c0.5-0.4,1.2,0,1.6-0.6c0.3-0.5-0.1-1,0.2-1.3c0.3-0.3,1.1,0.2,1.3,0
			c0.2-0.2,0-0.5,0-1.2c0-0.3,0-1,0.3-1.1c0.2-0.1,0.5,0.2,0.6,0.4c0.1,0.3,0.1,0.6,0,0.9c-0.1,0.6,0,0.4,0,1.7
			c-0.1,1.1-0.2,1.3,0,1.6c0.2,0.3,0.7,0.4,0.9,0.2c0.3-0.2,0.2-0.7,0.1-1.5c0-1-0.1-2.6,0.6-2.9c0.3-0.1,0.7-0.1,0.8,0.1
			c0.1,0.1,0,0.3,0,0.5c-0.1,0.4,0,0.6,0,1.2c0,0.3-0.1,1-0.3,2.2c-0.2,1.3-0.2,1.5-0.2,1.8c0,0.2,0.2,1.5,0.7,1.6
			c0.1,0,0.2,0,1-0.6c0.6-0.5,0.7-0.7,1.2-1c0.5-0.4,0.7-0.5,1-0.5c0.3,0,0.7,0.1,0.8,0.3c0,0.2-0.3,0.3-0.7,0.7
			c-0.3,0.3-0.4,0.5-0.9,1.1c-0.6,0.8-0.9,1.2-1.3,1.6c-0.8,0.7-1.2,0.6-1.8,1.1c-0.7,0.6-0.8,1.6-0.9,2.6
			c-0.2,3.1-0.5,6.5,1.4,10.1c0.8,1.5,1.6,2.4,1.7,4c0,0.8-0.1,1.5,0.4,2c0.5,0.5,1.1,0.3,2.1,0.5c2.5,0.3,3.7,2.1,4.2,1.7
			c0.3-0.3,0.1-1.1-0.4-1.7c-0.5-0.7-1-0.5-2.2-1.2c-1.2-0.7-1.7-1.6-2.2-2.4c-0.2-0.4-0.4-0.7-0.2-0.8c0.2-0.2,0.8,0,1.2,0.1
			c0.9,0.3,1,0.5,1.3,0.5c0.5-0.1,0.8-1.1,0.8-1.8c0.1-1.3-0.7-2.5-0.9-2.8c-0.4-0.5-0.8-0.9-0.8-1.6c0-0.3,0-0.7,0.2-0.7
			c0.2-0.1,0.4,0.2,0.7,0.5c1,1.3,1.4,2.4,1.5,2.4c0.1,0-0.1-0.5,0-1.3c0.1-0.6,0.2-0.7,0.1-1.1c-0.1-0.4-0.3-0.4-0.5-1
			c-0.1-0.2-0.4-0.8-0.2-1c0.1-0.1,0.5,0,0.8,0.2c0.2,0.2,0.2,0.3,0.5,1.1c0.3,0.8,0.3,0.8,0.3,0.8c0.1,0,0.3-1.2,0-2.1
			c0-0.1-0.1-0.4,0-0.5c0.1-0.1,0.3-0.1,0.5-0.1c0.3,0.1,0.4,0.5,0.5,1c0.3,1.3,0.5,1.9,0.5,1.9c0.1,0-0.4-1.6,0.1-1.8
			c0.2-0.1,0.6,0.1,0.8,0.4c0.3,0.4,0,0.9-0.1,1.9c-0.1,0.5,0,1,0,1.4c0.1,1.8,0.8,2.2,0.9,4.1c0.1,0.8-0.1,0.8,0.1,1.3
			c0.3,1,0.9,1.2,1.1,2.2c0,0.5-0.1,0.4-0.1,1.1c0,0.5,0,1.2,0.4,1.6c0.4,0.5,1.2,0.2,2.3,0.3c2.2,0.1,3,1.4,6,1.8
			c0.3,0,0.7,0.1,1-0.2c0.6-0.5,0.2-2-0.3-3c-0.9-1.8-1.9-1.8-2.2-3.2c-0.1-0.8,0.1-1.6-0.3-1.8c-0.3-0.1-0.5,0.2-0.9,0.2
			c-1.2-0.1-2.1-3.6-1.3-4.2c0.4-0.3,1,0.2,1.2-0.1c0.4-0.4-0.9-1.6-1.3-3.1c-0.5-2.1,0.8-5,3.2-6.5c0.2-0.1,3-1.7,5.9-0.5
			c0.3,0.1,2.3,1,3.2,2.9c1.1,2.5-0.2,5.3,1,5.9c0.5,0.3,1-0.1,1.3,0.2c0.5,0.6-0.9,1.7-1.4,3.9c-0.5,2-0.1,3.7,0.2,4.5
			c0.2,1,0.4,1.7,1.1,2.4c1,1.2,2.5,1.3,3.2,1.4c2.2,0.2,3.6-0.6,5.9-1.4c5.5-2,8.1-1.1,8.6-2.7c0.4-1.1-1-1.8-2.8-4.8
			c-1.9-3.2-2.6-6.2-2.8-7.5c0,0-0.7-3.3-0.7-9c0-1.1,0-1.9,0-1.9c0-1,0.1-1.4,0.1-1.6c0-0.6,0.1-0.7,0-1c-0.1-0.7-0.5-1.1-0.6-1.4
			c-0.1-0.2-1.5-2.1-1.3-3.6c0.2-1.4,1.9-2.6,2.6-2.3c0.4,0.2,0.5,0.8,0.7,0.8c0.2,0,0.2-0.5,0.2-1c0-0.3-0.1-0.7-0.8-2
			c-0.4-0.7-0.5-0.9-0.4-1c0.1-0.2,0.5-0.1,0.8,0.1c0.3,0.2,0.5,0.6,0.5,0.8c0.5,1.6,0.8,2.5,1.3,2.8c0.4,0.2,0.7,0.1,0.8,0.4
			c0.2,0.4-0.2,0.8-0.1,1.4c0.1,0.4,0.2,0.4,0.5,1c0.3,0.6,0.5,1.1,0.4,1.6c-0.1,0.7-0.7,0.8-1,1.7c0,0.2-0.1,0.4-0.1,0.6
			c-0.1,2.6,1,8.8,0.8,10.9c0,0.1-0.1,0.7,0.1,0.7c0.1,0,0.4-0.4,0.5-0.6c0.5-0.9,1.3-1.2,2.7-2.2c1-0.7,2-1.4,2.9-2.5
			c1-1.2,0.8-1.4,1.8-2.3c0.7-0.7,1.8-1.8,3.4-2c1.5-0.1,2.6,0.6,3.7,1.3c0.6,0.4,2.3,1.6,3.4,3.9c1,2.2,0.3,2.7,1.5,5.2
			c0.8,1.7,1.8,2.8,2.3,3.4c1,1.2,1.6,1.8,2.6,2.3c1.9,0.9,3.9,0.6,4.7,0.1c0.2-0.1,0.3-0.3,0.4-0.4c0.2-0.6-0.4-1.3-0.9-1.9
			c-1.4-1.8-0.8-1.9-2.2-3.6c-0.3-0.4-0.1,0-2.3-2.4c-1-1-1.1-1.2-1.5-1.5c-0.7-0.5-0.9-0.6-1.2-1.1c-0.5-0.7-0.4-1.7-0.2-1.8
			c0.1-0.1,0.4,0.2,0.4,0.2c0.3,0.3,0.2,0.6,0.5,0.9c0.2,0.2,0.5,0.5,0.8,0.4c0.4-0.1,0.5-1.1,0.2-1.9c-0.1-0.2-0.4-1.3-1.2-1.6
			c-0.1-0.1-0.3-0.1-0.4-0.2c-0.2-0.3,0-0.9,0.3-1.1c0.1-0.1,0.4,0,0.9,0.2c0.5,0.2,0.6,0.3,0.8,0.3c0.3,0,0.4-0.2,0.7-0.3
			c0.7-0.2,1.7,0.5,1.9,1.3c0,0.2,0,0.4,0,0.4c-0.1,0.9,0,1.8-0.1,2.6c0,1.6,3,3.4,6.3,6.3c3.8,3.5,3.7,4.7,3.6,5.1
			c-0.1,0.5-0.4,0.6-2.1,2.2c-2.8,2.5-2.9,3-4,3.4c-1.6,0.6-1.9-0.3-3.5,0.3c-2,0.8-3.3,3-3.7,4.7c-0.3,1.2,0.1,1.2-0.2,3.1
			c-0.2,1.7-0.6,2.4-1,3.9c-0.3,1.1-1.5,5.6-0.2,6.3c0.5,0.3,1-0.2,3.9-1.7c3.6-1.9,4.5-2,5.1-2.1c0.7-0.1,2.9-0.3,4.2,1
			c0.6,0.5,1.1,1.4,1.2,4.8c0.1,2.5,0.1,3.7-0.2,5.8c-1.7,9.3,4.2,27.7-0.5,30c-0.6,0.3-1.2,0.2-2.4,0c-5.4-0.8-10.9-0.1-16.3-0.4
			c-9.5-0.4-30.6-0.3-37.4-0.3c-52,0.1-65.5-2.7-106.8-1.3c-38.8,1.3-77.4,5.4-79.1-2.1c-0.1-0.4,0-0.3,0.5-3.3
			c0.2-1.6,1.3-8.8,1.3-16.9c0-5.6-0.5-4.7-0.3-8.8c0.3-5.5,0.4-8.3,1.4-11.6c0.9-3.2,2.1-5.3,1-7c-0.7-1-1.9-1.4-2.4-3.1
			c-0.4-1.1,0-1.4-0.5-2.2c-0.7-1.1-1.6-1-2.5-2.3c-0.4-0.5-0.6-1-0.7-1.4c-0.5-1.4-0.8-3.6,0-4.1c0.8-0.5,2.9,1.2,4,2.6
			c0.6,0.8,0.7,1.2,1.2,1.3c1.1,0.1,2.1-2.8,2.5-3.9c0.7-2,1.3-3.7,0.7-5.1c-0.1-0.2-0.3-0.6-0.2-1.1c0.2-0.6,1-0.7,1.5-1.1
			c1.7-1.2-0.8-5.2,1.1-7.8c0.1-0.2,0.8-0.8,2-1.9c1.1-1,1.7-1.6,2-1.8c1.6-0.9,3.3-0.6,4.3-0.4c0.9,0.2,2.8,0.5,4.5,2.2
			c0.4,0.4,2.3,2.4,2,4.9c-0.2,2-1.7,2.1-2.8,5.1c-0.6,1.5-1.1,3.7-0.4,4.1c0.5,0.3,1.7-0.6,2.9-1.6c0.8-0.6,1.2-1,1.6-1.5
			c0.8-1.2,0.4-2,1.2-3.1c0.3-0.4,0.4-0.3,1.7-1.3c2.1-1.5,3.1-2.3,3.1-3.1c0-0.8-0.7-1.1-0.6-1.9c0.1-0.8,0.9-1.6,1.7-1.6
			c0.5,0,0.6,0.4,1.1,0.5c1.1,0.1,2.1-1.8,2.3-2.2c0.4-0.8,1.3-2.4,0.9-3.8c-0.1-0.2-0.2-0.5,0-0.7c0.2-0.3,0.9-0.2,1.2,0.2
			c0.1,0.2,0.2,0.4-0.1,1.8c-0.4,1.7-0.6,2.5-0.7,2.8c-0.1,0.1-0.3,0.5-0.1,0.6c0.2,0.2,0.8-0.3,1.2-0.1c0.3,0.2,0.1,0.6,0.4,0.8
			c0.4,0.2,0.8-0.2,1.1,0c0.3,0.2-0.1,0.7,0.2,1.2c0.3,0.4,0.7,0.3,0.9,0.6c0.4,0.7-0.7,2.4-1.9,2.5c-0.5,0-0.9-0.2-1.4,0
			c-0.3,0.1-0.3,0.3-0.5,0.5c-0.5,0.4-1.2,0.3-1.6,0.4c-1,0.2-1.5,1.6-1.9,2.6c-1.4,3.2-4,5.4-4.5,5.8c-1.3,1.1-2.2,1.5-3,2.9
			c-0.4,0.8-0.4,1.1-0.8,1.9c-0.8,1.5-2,2.3-2.5,2.7c-3.2,2.4-4.6,7.6-4.9,10.6c-0.2,2.1,0.1,3.6,0.2,4c0.4,1.8,0.9,2.6,1.6,4
			c2.2,4.8,1.8,8.8,2.7,8.8c0.3,0,0.5-0.3,0.9-1c0.9-1.4,0.7-2.1,1.3-3.5c0.6-1.3,1.3-2.1,2.1-2.9c0.8-0.8,1.2-1.3,2-1.5
			c0.8-0.2,1.4,0,1.5-0.2c0.1-0.2-0.4-0.6-0.7-0.9c-1.1-1.1-1.1-2.7-1.2-3.2c-0.1-1.6,0.8-1.8,1.5-4.9c0.3-1.1,0.1-0.9,0.3-1.8
			c0.3-1,0.8-3.3,2.8-5.1c0.5-0.5,1.8-1.7,3.9-2c0.5-0.1,2.7-0.4,4.8,0.8c0,0,3.5,2.1,4,7c0,0.4,0.1,0.6,0.2,1
			c0.2,1,0.4,1.3,0.5,1.5c0.2,0.3,0.4,0.6,0.6,0.6c0.7,0.1,1.5-1.3,1.8-2.6c0.1-0.4,0.2-0.8,0.2-2.5c0-2.3-0.1-2.6,0-3.6
			c0.1-1.2,0.3-1.4,1-3.8c0.6-2,0.8-3.6,1.1-5.1c0.5-2.6,0.6-4.1,0.7-4.7c0.1-1,0.1-1.6,0.1-2.4c0-1.3-0.2-1.6-0.4-3.7
			c-0.2-2,0-1.7-0.2-2.7c-0.2-1.3-0.5-2.2-0.1-2.5c0.2-0.2,0.5-0.2,0.6-0.1c0.2,0.1,0.1,0.4,0.1,0.8c0,0.8,0.2,1.4,0.4,2.1
			c0.1,0.3,0.1,0.4,0.3,0.4c0.3,0.1,0.6-0.3,1.3-0.6c0.3-0.2,1.2-0.6,1.5-0.4c0.3,0.2,0.1,0.8,0.4,0.9c0.2,0.1,0.5-0.2,0.6,0
			c0.2,0.1-0.1,0.4,0.1,0.7c0.2,0.3,0.9,0.1,1.1,0.4c0.2,0.3-0.2,0.8-0.3,1c-0.4,0.5-0.7,0.5-0.9,1c-0.2,0.4-0.1,0.8-0.1,1
			c0.1,1.2-0.6,2.3-1,3c-1,2.1,0.2,3.9-0.3,8.2c-0.2,2.3-0.6,1.8-1,4.8c-0.5,3.4,0,3.7-0.4,7.2c-0.4,3.4-1.2,6.4-1.3,6.8
			c0,0.1-0.6,2.2-1.2,4.8c-0.4,1.8-0.6,2.8,0,3.9c0.2,0.5,0.5,0.7,0.9,1.6c0.4,1.1,0.3,1.4,0.6,1.9c0.5,0.7,1,0.5,2.4,1.2
			c1.7,0.8,1.7,1.5,2.8,1.6c0.8,0.1,1.2-0.2,2.4-0.6c1.2-0.4,3.3-1.1,4.7-0.5c2.2,0.9,1.9,4.3,3.5,4.5c0.1,0,0.2,0,2.3-1
			c1.6-0.7,1.7-0.8,1.9-0.8c1.5-0.2,2.4,0.8,2.9,0.5c0.7-0.5-0.5-3.4-1-4.8c-1.3-3.2-2-6.6-3.2-9.9c0,0-0.3-0.7-3.8-10.2
			c-3.1-8.2-4.6-12.4-4.9-14.1c-1.5-7.2-0.7-11.2-3.1-14.5c-0.7-0.9-1.9-2.3-2.2-4.4c-0.1-1.2,0.2-2.1-0.4-3.5
			c-0.8-2-0.8-2.1-0.8-2.1c-0.3-0.5-0.5-0.9-0.4-1.1c0.2-0.3,0.9,0.2,1.4-0.1c0.5-0.3,0.3-0.9,0.7-1.1c0.4-0.2,0.7,0.2,1.2,0
			c0.5-0.2,0.4-1,0.8-1.2c0.7-0.3,1.9,1.6,2.7,1.4c0.6-0.2,0.6-1.6,0.6-3.1c0-1.4,0-2.1-0.1-2.8c-0.1-0.4-0.3-0.8-0.1-1.4
			c0.1-0.4,0.3-1,0.6-1C310,181.6,310.3,182.5,310.4,182.8z"/>
		<rect x="247.5" y="265" class="st4" width="243.5" height="21.5"/>
	</g>
	<rect x="0" y="268.5" class="st11" width="1280" height="69.5"/>
	<g>
		
			<ellipse transform="matrix(0.9936 -0.1131 0.1131 0.9936 -27.2602 127.2795)" class="st12" cx="1107.9" cy="303.9" rx="80.1" ry="20.1"/>
		<text transform="matrix(1 0 0 1 1052.7341 310.3315)" class="st13 st14 st15">SAMSUNG</text>
		
			<ellipse transform="matrix(0.9936 -0.1131 0.1131 0.9936 -30.7953 74.2616)" class="st12" cx="639" cy="308.5" rx="80.1" ry="20.1"/>
		<text transform="matrix(1 0 0 1 583.7812 314.9731)" class="st13 st14 st15">SAMSUNG</text>
		
			<ellipse transform="matrix(0.9936 -0.1131 0.1131 0.9936 -32.8607 27.3861)" class="st12" cx="224.9" cy="303.3" rx="80.1" ry="20.1"/>
		<text transform="matrix(1 0 0 1 161.9882 314.9733)" class="st13 st14 st15">SAMSUNG</text>
	</g>
	<g id="net">
		<g id="XMLID_28_">
			<line id="XMLID_1_" class="st16" x1="954.9" y1="164.4" x2="952.9" y2="352.2"/>
			<line id="XMLID_2_" class="st16" x1="752.6" y1="164.4" x2="750.6" y2="352.2"/>
			<line id="XMLID_3_" class="st16" x1="783.1" y1="166" x2="781.1" y2="353.8"/>
			<line id="XMLID_4_" class="st16" x1="813.5" y1="166" x2="811.5" y2="353.8"/>
			<line id="XMLID_5_" class="st16" x1="840.3" y1="166" x2="838.3" y2="353.8"/>
			<line id="XMLID_6_" class="st16" x1="863.6" y1="166" x2="861.6" y2="353.8"/>
			<line id="XMLID_7_" class="st16" x1="886.9" y1="166" x2="884.9" y2="353.8"/>
			<line id="XMLID_8_" class="st16" x1="911.9" y1="164.4" x2="909.9" y2="352.2"/>
			<line id="XMLID_9_" class="st16" x1="935.2" y1="164.4" x2="933.2" y2="352.2"/>
			<line id="XMLID_18_" class="st16" x1="716.8" y1="163.6" x2="714.8" y2="351.4"/>
			<line id="XMLID_17_" class="st16" x1="514.6" y1="163.6" x2="512.6" y2="351.4"/>
			<line id="XMLID_16_" class="st16" x1="545" y1="165.2" x2="543" y2="353"/>
			<line id="XMLID_15_" class="st16" x1="575.4" y1="165.2" x2="573.4" y2="353"/>
			<line id="XMLID_14_" class="st16" x1="602.3" y1="165.2" x2="600.3" y2="353"/>
			<line id="XMLID_13_" class="st16" x1="625.6" y1="165.2" x2="623.6" y2="353"/>
			<line id="XMLID_12_" class="st16" x1="648.8" y1="165.2" x2="646.8" y2="353"/>
			<line id="XMLID_11_" class="st16" x1="673.9" y1="163.6" x2="671.9" y2="351.4"/>
			<line id="XMLID_10_" class="st16" x1="697.2" y1="163.6" x2="695.1" y2="351.4"/>
			<line id="XMLID_27_" class="st16" x1="482.4" y1="165.2" x2="480.4" y2="353"/>
			<line id="XMLID_26_" class="st16" x1="280.1" y1="165.2" x2="278.1" y2="353"/>
			<line id="XMLID_25_" class="st16" x1="310.6" y1="166.9" x2="308.5" y2="354.7"/>
			<line id="XMLID_24_" class="st16" x1="341" y1="166.9" x2="339" y2="354.7"/>
			<line id="XMLID_23_" class="st16" x1="367.8" y1="166.9" x2="365.8" y2="354.7"/>
			<line id="XMLID_22_" class="st16" x1="391.1" y1="166.9" x2="389.1" y2="354.7"/>
			<line id="XMLID_21_" class="st16" x1="414.4" y1="166.9" x2="412.4" y2="354.7"/>
			<line id="XMLID_20_" class="st16" x1="439.4" y1="165.2" x2="437.4" y2="353"/>
			<line id="XMLID_19_" class="st16" x1="462.7" y1="165.2" x2="460.7" y2="353"/>
		</g>
		<line id="XMLID_56_" class="st17" x1="280.6" y1="158.9" x2="953.2" y2="167.6"/>
		<line id="XMLID_55_" class="st18" x1="269.8" y1="251.9" x2="949.8" y2="260.7"/>
		<line id="XMLID_54_" class="st19" x1="280.4" y1="238" x2="954.2" y2="246.7"/>
		<line id="XMLID_53_" class="st20" x1="280.5" y1="224" x2="955" y2="232.7"/>
		<line id="XMLID_52_" class="st17" x1="283" y1="211.7" x2="955.6" y2="220.4"/>
		<line id="XMLID_51_" class="st17" x1="283.7" y1="201" x2="956.3" y2="209.7"/>
		<line id="XMLID_50_" class="st17" x1="284.4" y1="190.3" x2="957" y2="199"/>
		<line id="XMLID_49_" class="st17" x1="279.3" y1="178.7" x2="951.9" y2="187.4"/>
		<line id="XMLID_48_" class="st17" x1="280" y1="167.9" x2="952.6" y2="176.7"/>
		<line id="XMLID_47_" class="st21" x1="280.3" y1="268.5" x2="947" y2="277.1"/>
		<line id="XMLID_45_" class="st22" x1="278.1" y1="347.6" x2="945.9" y2="356.3"/>
		<line id="XMLID_44_" class="st23" x1="277.9" y1="333.6" x2="946.8" y2="342.3"/>
		<line id="XMLID_43_" class="st24" x1="269.6" y1="321.1" x2="947.5" y2="329.9"/>
		<line id="XMLID_42_" class="st25" x1="269.4" y1="310.4" x2="948.1" y2="319.2"/>
		<line id="XMLID_41_" class="st26" x1="269.1" y1="299.7" x2="948.8" y2="308.5"/>
		<line id="XMLID_40_" class="st27" x1="269.7" y1="288.2" x2="945.9" y2="296.9"/>
		<line id="XMLID_39_" class="st28" x1="278" y1="277.5" x2="946.5" y2="286.2"/>
	</g>
	<g id="goal_keeper">
		<ellipse cx="601.8" cy="214" rx="11.2" ry="13.1"/>
		<path d="M607.6,229.6c0.2,1.6,0.1,2.8,0,3.2c-0.7,4.3-4.6,9.2-8.3,8.9c-4-0.3-7-6.8-6.4-12.1c0.5-4,3.4-9.1,7.1-9.2
			C603.9,220.3,607,225.6,607.6,229.6z"/>
		<path class="st6" d="M648,270.3c1.2,0.7,3,1.9,6.6,5.4c4.2,4,8.9,8.5,8,9.7c-0.8,1-5.8-0.4-9.6-3c-2.9-2-4-3.9-5.2-3.6
			c-1.9,0.6-0.2,6.1-2.7,7.3c-1.6,0.8-4.8-0.5-5.8-2.5c-1.4-2.9,2.6-5,2-9.7c-0.4-3.8-3.4-5.6-2.7-6.5
			C639.7,266.2,644.7,268.3,648,270.3z"/>
		<path class="st6" d="M560.4,267.2c0.5,1.3-0.3,3-1.6,3.7c-1.7,1-4,0-5.2-0.9c-2-1.6-1.3-3.5-2.7-4c-1-0.4-2.2,0.3-7.2,4.2
			c-4,3.1-5.2,4.1-6.3,3.7c-1.1-0.4-1.7-2.1-1.3-3.3c0.4-1.2,1.8-1.1,2.4-2.4c0.6-1.4-0.6-2.2-0.3-3.6c0.3-1.9,3.1-2.5,6.1-3.9
			c6.7-3.2,6.8-7.1,10.2-6.8c3.3,0.2,6.4,4.2,5.8,6.5c-0.5,2-3.5,2.5-3.3,3.9C557.3,265.6,559.7,265.5,560.4,267.2z"/>
		<path d="M580.5,309.5c0.3,3.2-5,4.4-6.2,10.4c-0.5,2.5,0.3,2.7-0.3,5.1c-1.4,5.6-7.5,10.1-9.5,9c-0.8-0.4-0.6-1.5-0.6-10.4
			c0-5.2,0-4.7,0-5.4c0.3-3.6,0.9-12.4,5.9-14.1C573.9,302.8,580.1,306.2,580.5,309.5z"/>
		<path d="M607.8,309.5c-0.3,3.2,5,4.4,6.2,10.4c0.5,2.5-0.3,2.7,0.3,5.1c1.3,5.3,6.8,10,9.5,9c3-1.1,2.2-9.1,2.1-9.9
			c-0.2-2-0.6-3.3-1.5-5.9c-4.2-12.7-4.6-13.6-5.9-14.1C614.4,302.8,608.1,306.2,607.8,309.5z"/>
		<path class="st6" d="M616.3,279.9c1.9,3.9,1.8,4.9,4.7,15.3c4,14.2,6,18.4,3.7,20.5c-1.4,1.2-2.5,0.2-8.4,0.8
			c-8.7,0.8-11.7,3.5-14,1.8c-2-1.6-0.1-4.1-2.1-8.5c-1.4-3.1-4.9-7.5-8.2-7.3c-5,0.4-4.5,11.5-12.1,14c-2.4,0.8-4.8,0.4-9.2-0.3
			c-3.8-0.6-6.8-1-7.9-3c-0.9-1.7,0.4-3.1,1.8-7.3c2.2-6.2,0.8-7.1,3.2-15c1-3.3,2-5.7,2.9-7.8c2.5-5.8,4-9.3,6.1-11.8
			c6.1-7.2,20.9-9.9,30-4.3C611.4,270,613.5,274.2,616.3,279.9z"/>
		<path class="st29" d="M589.7,225.4c0,0-4.7,0.8-8.6,2.3c-5.6,2.3-11.7,9.2-19.1,16.1c-8.2,7.5-14.6,11.8-13.5,14
			c0.7,1.3,3.4,0.3,6.1,2.6c2.7,2.2,2,4.7,3.7,5.1c2,0.5,3.8-2.6,10.5-7.1c3.1-2.1,4-2.2,4.4-2c1,0.6,0.6,2.9-1,8.7
			c-3.1,11.1-4.5,12.5-3.4,14.1c1.6,2.6,6,0.7,20.1,1.2c7.9,0.3,11,1,17.2-0.2c2.8-0.6,9.7-1.9,10.3-5.1c0.4-2.3-3-3.2-4.4-7.2
			c-1.7-4.9,0.4-11.3,3.2-11.9c1.9-0.4,3.4,2,9.8,8.8c10.2,10.8,12.6,11.3,14.2,11.2c3.8-0.3,7.4-4.5,7.1-7.9
			c-0.2-2.4-2.4-4.2-5.4-6.8c-3.1-2.6-4-2.2-6.1-4.4c-2.1-2.2-3.1-4.4-4.2-6.8c-1.9-4.4-1.2-5.2-2.7-8.8c-0.6-1.4-2.4-5.2-6.1-8.6
			c-2.5-2.3-6.9-6.2-11.4-5.4c-5.6,0.9-7,8-10.3,7.4c-3.4-0.6-3.3-8.6-8-9.4C591.7,225.1,591,225.2,589.7,225.4z"/>
		<path class="st6" d="M570.8,324.1c2.3,0.4,2.5,0,3,0.4c0.6,0.4,2.2,2.2-3.7,17.9c-3.1,8.2-4.9,11.3-3.4,15.3
			c0.6,1.6,1.4,2.7,0.8,3.8c-1.4,2.7-9.7,2.8-11.4-0.1c-0.8-1.4,0.5-2.7,1.4-6.1c1.1-4,0-5-0.1-11.4c-0.1-5.1,0.5-10.3,2.4-15.4
			c2-5.6,3.8-6.1,4.4-6.2C565.9,322.1,566.8,323.4,570.8,324.1z"/>
		<path class="st6" d="M617.5,322.9c-2.3,0.4-2.5,0-3,0.4c-0.6,0.4-2.2,2.2,3.7,17.9c3.1,8.2,4.9,11.3,3.4,15.3
			c-0.6,1.6-1.4,2.7-0.8,3.8c1.4,2.7,9.7,2.8,11.4-0.1c0.8-1.4-0.5-2.7-1.4-6.1c-1.1-4,0-5,0.1-11.4c0.1-5.1-0.5-10.3-2.4-15.4
			c-2-5.6-3.8-6.1-4.4-6.2C622.4,321,621.5,322.3,617.5,322.9z"/>
		<path d="M565.4,363.9c0.5,1.5,0,2.9-0.2,3.4c-1.9,5.1-12.8,10.4-16.7,7.3c-1.8-1.4-1.8-4.5-1-6.5c0.8-1.9,3.1-3.1,7.8-5.3
			c4.8-2.3,6.1-2.2,7-1.9C563.7,361.3,564.9,362.5,565.4,363.9z"/>
		<path d="M620.2,361.6c-0.5,1.5,0,2.9,0.2,3.4c1.9,5.1,12.8,10.4,16.7,7.3c1.8-1.4,1.8-4.5,1-6.5c-0.8-1.9-3.1-3.1-7.8-5.3
			c-4.8-2.3-6.1-2.2-7-1.9C621.9,359,620.7,360.2,620.2,361.6z"/>
	</g>
	<path d="M752.9,467c-0.8-0.3-0.8-0.4-1.1-0.4c-1.7,0-3,14.2-3,14.2c-1.5,15.6-2.5,17.1-0.6,20.8c0.7,1.3,3.5,6.8,10.1,8.9
		c5.1,1.6,9.8,0.4,10.4,0.2c2-0.5,2-1,4.3-1.7c4.3-1.3,6.1-0.3,8.4-1.3c2.1-0.9,2.8-2.7,4.6-7c3.3-8,5-12,6.1-14.1
		c4.1-7.2,7.3-7.7,6.6-10.2c-1-3.4-6.8-3-19-8.5c-1.4-0.6-2.9-1.4-5.2-1.6c-2.4-0.2-2.7,0.3-9,0.7c-1.2,0.1-0.7,0-4.5,0.3
		c-1.7,0.1-2.5,0.1-3.3,0.2C755,467.5,753.9,467.4,752.9,467z"/>
	<path id="swosh" class="st30" d="M614.6,592.3c1,3.8,113.6,7.8,204.4-55c55.1-38.1,80-84.5,100.8-128.4
		c52.7-111.2,50.3-212.2,45.4-212.8c-4.6-0.6-9.4,89.8-69.6,205.4c-23.3,44.9-47.3,85-95.1,121.1
		C714.8,587.3,613.7,588.7,614.6,592.3z"/>
	<line id="goalkeeperpath" class="st31" x1="412.4" y1="373.6" x2="734.7" y2="373.6"/>
	<circle class="st32" cx="115.8" cy="65.8" r="27.5"/>
	<g>
		<circle class="st33" cx="146.4" cy="74" r="15.6"/>
		<path class="st33" d="M183.9,83.7c-1.4,10.4-25.3,16.4-30.8,10.1c-2.3-2.7-1.2-7.2-0.4-10.1c0.2-0.7,4.2-15.6,15.6-15.6
			C177.4,68,184.8,77.3,183.9,83.7z"/>
		<path class="st33" d="M144.5,83.7c-0.7,6.7-7.1,11.4-13.1,12.2c-7.8,1.1-17.3-4-18.1-12.2c-0.8-8.2,7.2-15.6,15.6-15.6
			C137.4,68.1,145.3,75.6,144.5,83.7z"/>
		<path class="st33" d="M174.7,96.4h-52.2c-0.9-0.1-3-0.4-5-2.1c-1.3-1.1-2-2.3-2.3-3.1c-3-6.5-2.1-11.9,0.3-13.1
			c2.5-1.3,6.8,2.3,7.1,2.6h52.2c1.1,1.8,3.3,2.6,5,2.1c2.2-0.7,3.7-3.4,2.7-6c2.6,7.1,1.4,14.1-2.7,17.5
			C178.8,95,177.2,96,174.7,96.4z"/>
	</g>
	<g>
		<circle class="st33" cx="672.2" cy="55" r="15.6"/>
		<path class="st33" d="M709.7,64.7c-1.4,10.4-25.3,16.4-30.8,10.1c-2.3-2.7-1.2-7.2-0.4-10.1c0.2-0.7,4.2-15.6,15.6-15.6
			C703.2,49,710.6,58.3,709.7,64.7z"/>
		<path class="st33" d="M670.3,64.7c-0.7,6.7-7.1,11.4-13.1,12.2c-7.8,1.1-17.3-4-18.1-12.2c-0.8-8.2,7.2-15.6,15.6-15.6
			C663.2,49.1,671.1,56.6,670.3,64.7z"/>
		<path class="st33" d="M700.5,77.4h-52.2c-0.9-0.1-3-0.4-5-2.1c-1.3-1.1-2-2.3-2.3-3.1c-3-6.5-2.1-11.9,0.3-13.1
			c2.5-1.3,6.8,2.3,7.1,2.6h52.2c1.1,1.8,3.3,2.6,5,2.1c2.2-0.7,3.7-3.4,2.7-6c2.6,7.1,1.4,14.1-2.7,17.5
			C704.6,76,703,77,700.5,77.4z"/>
	</g>
	<g>
		<circle class="st33" cx="993.1" cy="119.1" r="15.6"/>
		<path class="st33" d="M1030.6,128.8c-1.4,10.4-25.3,16.4-30.8,10.1c-2.3-2.7-1.2-7.2-0.4-10.1c0.2-0.7,4.2-15.6,15.6-15.6
			C1024.1,113.1,1031.5,122.4,1030.6,128.8z"/>
		<path class="st33" d="M991.2,128.8c-0.7,6.7-7.1,11.4-13.1,12.2c-7.8,1.1-17.3-4-18.1-12.2c-0.8-8.2,7.2-15.6,15.6-15.6
			C984.1,113.2,992,120.8,991.2,128.8z"/>
		<path class="st33" d="M1021.4,141.5h-52.2c-0.9-0.1-3-0.4-5-2.1c-1.3-1.1-2-2.3-2.3-3.1c-3-6.5-2.1-11.9,0.3-13.1
			c2.5-1.3,6.8,2.3,7.1,2.6h52.2c1.1,1.8,3.3,2.6,5,2.1c2.2-0.7,3.7-3.4,2.7-6c2.6,7.1,1.4,14.1-2.7,17.5
			C1025.5,140.1,1024,141.1,1021.4,141.5z"/>
	</g>
	<rect x="267.4" y="163" class="st6" width="8" height="198.9"/>
	<polygon class="st5" points="296.5,354.7 304.5,354 281.6,166.4 273.6,167.1 	"/>
	<rect x="950.9" y="163" class="st6" width="8" height="198.9"/>
</g>
<g id="Layer_2">
	<g id="fballer_1_">
		<path class="st34" d="M899.3,415.8c0.3,3.2-1.2,3.1-22.1,27c-11.7,13.5-26.3,30.9-35.4,28.5c-1.5-0.4-3.2-1.4-6.4-1.5
			c-5.7-0.1-7.6,3-11,2.5c-5.7-0.9-5.9-10.2-9.9-10.5c-4.3-0.3-4.9,10.9-12.8,13.5c-7.1,2.4-11.9-5-26.2-7.5c-1-0.2-2-0.3-2-0.3
			s-0.7-0.1-1.4-0.2c-2.6-0.3-19.8,3.4-23.3,0.5c-5.8-4.8,17.3-31.3,14.5-43.5c-0.2-1.1-1.2-4.4,0.6-7.5c1.6-2.7,3.7-2.8,5.8-5.5
			c2.6-3.4,1.3-6.1,2.3-9.5c1.6-5.6,8.1-8.7,12.8-11C804.5,381.2,897,390.9,899.3,415.8z"/>
		<path class="st35" d="M782.6,511.1c3.4-1.5,7.1-1.1,10.5-0.8c4,0.4,7.6,0.7,9.9,3c0.8,0.8,1.5,1.9,2,9.6c0.5,8-0.1,10.2,2,12.9
			c1.9,2.3,3.4,2,4.1,3.8c1.3,3.2-3.7,5.6-9.4,13.1c-4.2,5.5-2.4,5.4-7.4,12.2c-3.1,4.2-4.7,5.6-4.8,8.6c-0.1,2.6,1.1,4.4-0.4,6.5
			c-1,1.5-2,1.2-3.5,2.8c-2.2,2.3-0.4,4-2.3,6.8c-1.8,2.6-3.9,2-5.3,4.5c-1.1,2.1,0.1,2.9-0.9,5.5c-0.8,2.2-2.9,4.8-4.4,4.5
			c-2.3-0.3-1.3-6.9-4.4-7.8c-2.4-0.7-4.3,2.8-7.9,2.3c-3.1-0.4-3.8-3.4-5.9-3.3c-3.2,0.3-4,7.6-6.1,7.6c-1.5,0-3.6-3.1-3.5-6.3
			c0.1-6.1,7.7-7.6,12.6-15.4c2.1-3.3,1.1-3.7,3.5-14.4c2-9,2.6-8.3,6.7-22.9c1.2-4.4,3.1-11.4,6.4-20.7
			C776.7,516.7,778.4,512.9,782.6,511.1z"/>
		<path class="st36" d="M783.4,337.9c-1.4,6.1-4.8,10.1-8.4,16.6c-1.3,2.3-1.1,2.4-2.9,5.9c-5,10-10.4,18-12.9,21.5
			c-10.9,15.9-13.2,13.9-17.9,23.8c-3.5,7.5-2.9,10.1-7.3,14.5c-1.9,1.9-7.9,7.4-14.2,12.7c-1.7,1.4-3.6,2.9-3.7,5.1
			c0,1.9,1.4,3.1,1.3,6.1c0,0.6-0.1,2.4-1,2.6c-0.5,0.1-1.2-0.4-2.2-1.3c-1.4-1.3-2.1-2.3-2.2-2.2c-0.3,0.1,5.1,8,3.2,9.5
			c-0.8,0.6-2.4-0.3-3.4,0.6c-0.8,0.7-0.1,1.8-1.1,2.6c-0.6,0.6-1.7,0.9-2.5,0.6c-1-0.3-1.1-1.3-1.8-3.1c-0.7-1.7-2.2-4.8-3-4.7
			c-0.9,0.1-0.3,3.8-2.2,4.5c-0.8,0.3-1.6-0.2-1.7-0.2c-1.7-0.9-1.3-3.6-1.1-5.9c0.8-8.5-0.3-7.4,0.5-10.8c1-4.2,3.1-7.3,6.7-11.9
			c7.9-10,11.3-11.8,15.7-17.3c2.7-3.5,5.1-9.5,9.7-21.5c4.4-11.3,7.2-18.6,10.3-29.1c2-6.7,4.8-13.1,6.9-19.8
			c2-6.1,2.9-9.4,6.6-11.4c5.8-3.2,13.9-0.6,14.5-0.4c1.4,0.5,3,1.4,6,3.1c7,4.1,7.9,6.2,8.1,7.4
			C783.7,336.5,783.6,337.4,783.4,337.9z"/>
		<path class="st36" d="M992.7,299.5c2.4,2.7,4.2,4.9,5.3,6.3c0.5,0.6,3.4,4.4,5.6,7.4c2.1,2.9,4.7,7.1,8.1,14.5
			c2.6,5.5,8.1,18.2,12.1,28.4c0.5,1.3,1.4,3.6,3.2,6.5c3.8,6,7.5,6.1,11.1,11.8c0.2,0.3,1.3,2.9,3.4,8.1c3,7.1,3.3,8.1,2.9,9.6
			c-0.7,2.4-2.9,4.4-6.1,7.2c-1.1,1-3.1,1.7-3.7,3.6c-0.2,0.6,0,0.7-0.3,2.3c-0.3,2.1-0.5,3.2-1.3,3.7c-0.3,0.2-1.1,0.6-2.8,0.1
			c-0.8,0.2-1.9,0.4-2.4,0c-0.6-0.6,0.4-1.7,0.8-3.6c0.2-0.9,0-2.4-0.3-5.2c-0.6-4.9-1.1-5.4-1.6-5.5c-0.6-0.2-1.4,0.3-1.8,0.8
			c-0.5,0.8,0.3,1.8,0.7,2.6c1.5,2.9,0.9,7-0.9,7.8c-1,0.5-2.6-0.1-3.5-0.7c-0.8-0.6-2-1.7-3-8.9c-0.4-3.2-0.3-4.1-1.4-5
			c-1.7-1.5-3.5-0.6-5.3-1.9c-2.1-1.5-1.3-4.3-1.5-8.9c0,0-0.1-3.4-1.6-9.6c-1.2-4.8-3.1-8-6.8-14.1c-2.4-4-4.6-7.7-8.5-12.1
			c-5.4-6.2-7-5.6-11.3-11c-4.3-5.3-3-6.1-7.7-12.5c-5.2-7.1-7.6-7-8.4-10.8c-1-4.8,1.7-11,7.5-14.3c4.3-2.4,11-3.6,15.2-1.2
			C988.8,295.2,990.1,296.6,992.7,299.5z"/>
		<path d="M825.5,472.6c0-0.1-0.6,0.1-1.5,0c-1.4-0.1-2.4-0.8-2.7-1.1c-0.6-0.4-0.9-1-1.6-2.1c-0.3-0.5-0.7-1.2-1.5-2.7
			c-0.4-0.7-0.9-1.5-1.2-2.2c-0.4-0.8-0.5-1.2-1-1.6c-0.2-0.2-0.8-0.7-1.7-0.7c-1,0-1.7,0.8-2.4,1.5c-0.5,0.6-0.7,1-1.7,2.9
			c-1.1,2.2-1.4,2.6-1.6,3c-0.5,0.7-0.8,1.3-1.3,1.9c-0.7,1-1.1,1.5-1.6,1.9c-0.7,0.6-1.3,0.9-2.1,1.4c-1.1,0.6-1.9,1-3.2,1.3
			c-1.2,0.2-2.2,0.1-2.7,0.1c-1.2-0.1-1.9-0.4-1.9-0.3c-0.1,0.2,1.9,1,3.1,1.5c2.2,0.9,3.4,1.4,4.3,1.5c1.6,0.3,2.8,0.2,4.3,0.1
			c2.3-0.2,2.1-0.5,4.5-0.7c2.3-0.2,2.9,0.1,3.9-0.5c0.4-0.2,0.9-0.6,1.9-1.5c0.8-0.6,0.9-0.7,1.3-1c0.8-0.5,1.5-0.7,2.5-1
			C823.7,473.7,825.6,472.8,825.5,472.6z"/>
		<path d="M772.4,606.5c0.3,1.1,1.7,5.9-0.8,9.1c-3.4,4.4-12.2,3.6-17.6,3.2c-0.9-0.1-6.8-0.6-13.1-3.7c-4.8-2.4-5.7-4.2-5.9-4.9
			c-0.7-2.2,0.3-4.2,1-5.6c2.1-4.1,6.7-7.3,8.2-6.5c0.7,0.3,0.1,1.2,1,3.3c0.2,0.5,1.5,3.5,3.3,3.5c1,0,1.7-0.9,2.5-1.8
			c0.4-0.5,0.9-1.2,2-4c0.7-1.9,0.9-2.5,1.4-2.6c0.5-0.1,1,0.4,2.2,1.4c1.6,1.3,2.5,1.9,3.1,2.1c2.8,0.8,5.4-3.1,7.8-2.3
			c0.7,0.2,0.9,0.7,1.8,2.6C772.3,606.5,772.2,605.9,772.4,606.5z"/>
		<path class="st37" d="M868.3,217.9c-4.8-0.7-8.2-0.2-13.5,0.5c-13.4,1.8-27.9,7-36.9,12.9c-1.8,1.1-4.9,3.3-9.9,5.2
			c-2.9,1.1-4.1,1.6-8.4,2.5c0,0-3.2,0.8-9.7,3.8c-5.5,2.5-8.7,7.7-15.8,21.7c-8,15.8-11.9,23.8-12.9,29.3c-1.4,7.6-0.3,10.1-3,17
			c-3.3,8.4-8.3,13-6.2,15c2.1,2,7-1.7,14.6-0.6c10.8,1.6,13.4,11,19,10.2c7.8-1.1,10.2-20.5,11.8-20.3c0.9,0.2-1.8,6.6,1.7,12.6
			c3.7,6.3,11.6,7.8,10.9,10.9c-0.4,1.8-3,1.5-6.4,4c-5.3,3.8-4.5,8.4-8.4,15.3c-3,5.3-5.6,6.2-9.4,10.6
			c-7.5,8.8-10.7,20.9-9.4,26.8c5.7,25,115.8,35.5,128.7,11.9c1.4-2.6,2.3-8.8,3.9-21.2c0.5-4,1.7-12.6,2-21.7
			c0.7-21.3-5-21.5-3-35.7c1.5-10.5,4.5-10.3,7.4-26.3c1.8-9.9,1.2-13.2,3.9-14.4c8-3.6,21.3,21.7,40.9,21.7
			c20.4,0,39.8-27.4,34-35.7c-2.4-3.5-7.9-1.7-25.1-8.5c-7.8-3.1-11.2-5.2-12.3-5.9c-7.1-4.6-7.6-7.6-13.8-13.6
			c-7.4-7.2-15-10.7-30.1-17.8c-4.4-2.1-7.8-3.5-12.3-4.2c-6-1-7.5,0.1-13.8-0.4C878,222.5,876.7,219,868.3,217.9z"/>
		<path class="st36" d="M860,215.2c-0.5-0.4-5.2-3.3-6.4-4.8c-1.2-1.6-1.3-2.9-1.8-7.9c-0.6-7-0.9-10.6-1.2-11.7
			c-0.7-3.2-1.5-6.9-4.6-10.5c-3-3.6-6.8-5.3-10.4-7c-3.3-1.6-6.3-3-10.6-3.4c-7.6-0.8-13.6,1.9-15.7,2.9c-4.3,2-6.7,4.5-9.2,6.9
			c-2.7,2.7-6.6,6.6-8.6,12.4c-0.4,1.3-0.6,2.1,0,15.6c0.3,7.5,0.6,12.9,3.2,13.6c1.4,0.4,2.6-0.9,4-0.2c1.2,0.7,0.8,2,2,4.3
			c0.3,0.5,0.5,0.9,0.8,1.2c1,1.2,1.8,2,2,2.2c2.2,2.1-0.7,6.6,1,7.7c1,0.7,3.2-0.2,8.2-2.9c5.7-3.1,7.4-4.5,10.4-6.2
			c4.7-2.7,8.6-3.8,15.6-5.9c6.2-1.9,9.3-2.8,13.5-3.3c4.4-0.5,8.9-0.4,9.1-1.5C861.5,216.2,860.9,215.8,860,215.2z"/>
		<text transform="matrix(-1.1433 0.1504 0.1746 0.9846 894.7939 314.8684)" class="st38 st39">5</text>
	</g>
	<g id="animatedFoot">
		<path class="st35" d="M776.4,496.8c-2.1-2.9-4.6-4.3-5.9-5.1c-8.2-4.7-21.4-4.3-27.2,5.6c-0.2,0.4-4.9,8.6-2.1,16.9
			c1.9,5.8,5.7,6.4,7.8,13.5c1.7,5.7,0.3,8.7,2.4,10.6c2.4,2.1,6.2-0.4,10.3-1.5c11.2-2.9,21.5,8.5,22.9,6.1
			c0.7-1.2-2.2-3.4-3.9-8.6c-1.9-5.6-0.1-7.6-0.1-17.6C780.5,508.9,780.4,502.2,776.4,496.8z"/>
		<path class="st6" d="M798,565.8c-1,3.2-3.9,4.5-5.3,5c-5.1,2.1-8.1-0.8-18-2c-5.9-0.7-8.8-1.1-12.2,0.3c-5.8,2.3-5.4,6.5-10.5,9.4
			c-7.4,4.3-19.7,1.9-23.3-5.3c-2.2-4.5-0.4-9.6-0.2-10.3c2.8-7.8,11.7-9.5,20.5-11.2c4.7-0.9,9.9-1.9,16.6-0.5
			c4.1,0.9,6.2,2.1,10.3,2.3c6,0.3,7.1-3.6,11.9-2.8c0.6,0.1,5.5,1.1,8.4,5.9C797,557.7,799.3,561.9,798,565.8z"/>
		<path d="M799.5,563.4c0.1,0.9,0.2,2.1,0,2.2c-0.3,0-0.7-3.4-2.1-6.4c-2-4.3-6.6-9.5-10.8-9.3c-2,0.1-2.4,1.3-7.6,2.5
			c-1.3,0.3-1.9,0.4-3,0.5c-1.2,0.1-2.5,0-7-1.3c-3.5-1-3.4-1.1-4.8-1.3c-1.4-0.2-2.9-0.3-5.6-0.1c-3.3,0.2-5.7,0.7-7.9,1
			c-9.6,1.7-11.1,2.2-12,2.6c-3.5,1.3-5.2,2.5-6.4,3.6c-1.1,1-2.5,2.2-3.5,4.5c-1.3,2.8-1.2,5.5-1.2,6.1c0.1,4.1,2,6.4,1.6,6.7
			c-0.6,0.4-6-4.4-5.9-9.8c0-1.3,0.6-2.7,1.8-5.3c1.3-3.1,2.4-5.4,4.2-7.2c1.4-1.4,2.1-1.2,6.7-2.8c9.5-3.4,11.9-6.1,12.6-6.9
			c1.3-1.5,1.1-1.8,2.1-2.6c2.7-2,5.2-0.4,10.2-1.3c3.5-0.6,3-1.5,5.3-1.5c2.4-0.1,4.8,1.3,9.7,3.9c3.7,2,4.9,3,7.5,3.4
			c1.3,0.2,1.8,0.1,2.4,0.2c0,0,0.5,0.1,0.8,0.2c1.9,0.5,3.7,3.4,6.6,6.3c1.1,1.1,1.3,1.2,2.2,2.2c1,1.1,1.8,2.1,2.5,3.5
			C799.1,558.9,799.3,560.6,799.5,563.4z"/>
		<ellipse transform="matrix(-0.3224 -0.9466 0.9466 -0.3224 521.9638 1485.9943)" cx="792.8" cy="556.2" rx="2.8" ry="2.4"/>
		<ellipse transform="matrix(-0.3224 -0.9466 0.9466 -0.3224 508.5706 1500.6558)" cx="791.4" cy="568.3" rx="2.8" ry="2.4"/>
		<ellipse transform="matrix(-0.3224 -0.9466 0.9466 -0.3224 509.6925 1479.3331)" cx="784.3" cy="557.2" rx="2.8" ry="2.4"/>
		<ellipse transform="matrix(-0.3224 -0.9466 0.9466 -0.3224 497.1357 1493.934)" cx="783.3" cy="569" rx="2.8" ry="2.4"/>
		<ellipse transform="matrix(-0.3224 -0.9466 0.9466 -0.3224 482.6519 1457.4078)" cx="762.9" cy="556" rx="2.8" ry="2.4"/>
		<ellipse transform="matrix(-0.3224 -0.9466 0.9466 -0.3224 460.063 1471.2577)" cx="756.6" cy="571" rx="2.8" ry="2.4"/>
		<ellipse transform="matrix(-0.3224 -0.9466 0.9466 -0.3224 472.871 1449.7245)" cx="755.3" cy="555.6" rx="2.8" ry="2.4"/>
		<ellipse transform="matrix(-0.3224 -0.9466 0.9466 -0.3224 456.0701 1457.4695)" cx="749.7" cy="565.5" rx="2.8" ry="2.4"/>
		<ellipse transform="matrix(-0.3224 -0.9466 0.9466 -0.3224 442.8086 1468.0801)" cx="746.8" cy="575.6" rx="2.8" ry="2.4"/>
		<ellipse transform="matrix(-0.3224 -0.9466 0.9466 -0.3224 459.1722 1440.8594)" cx="745.3" cy="556.1" rx="2.8" ry="2.4"/>
		<ellipse transform="matrix(-0.3224 -0.9466 0.9466 -0.3224 446.6434 1437.6487)" cx="737.9" cy="559" rx="2.8" ry="2.4"/>
		<ellipse transform="matrix(-0.3224 -0.9466 0.9466 -0.3224 430.304 1458.3442)" cx="737.1" cy="575.2" rx="2.8" ry="2.4"/>
	</g>
	<path class="st40" d="M948.3,187.4c-3.4,39.6-19,160.7-116.9,264.6C763.8,523.7,688,554.3,648.3,567.1"/>
</g>
</svg>
